<?xml version="1.0" encoding="utf-8"?>
<!-- Generator: Adobe Illustrator 27.5.0, SVG Export Plug-In . SVG Version: 6.00 Build 0)  -->
<svg version="1.1" id="Layer_1" xmlns="http://www.w3.org/2000/svg" xmlns:xlink="http://www.w3.org/1999/xlink" x="0px" y="0px"
	 width="2632.33px" height="1283.785px" viewBox="0 0 2632.33 1283.785" style="enable-background:new 0 0 2632.33 1283.785;"
	 xml:space="preserve">
<path style="fill:#ABB0B4;" d="M2195.546,445.132l-235.193-62.218l20.997,49.96c893.519,305.749,218.42,795.941-632.82,774.088
	C495.991,1229.19-178.969,736.498,717.752,432.25l-21.048-49.989c0,0-142.689,37.065-142.689,37.065
	S341.186,529.102,341.186,529.102c-821.61,399.724,148.758,761.984,1007.332,754.683
	c751.453-16.026,1311.716-183.478,1273.232-520.34c-0.003-21.588-113.048-159.841-299.319-233.826
	C2322.431,529.62,2195.546,445.132,2195.546,445.132z"/>
<g>
	<defs>
		<path id="SVGID_1_" d="M696.704,382.261c-1263.791,265.646-504.868,863.956,630.814,833.935
			c1133.247,30.179,1895.293-567.651,632.835-833.281c895.089,300.029,215.57,779.601-632.847,758.011
			C477.753,1162.874-201.579,680.874,696.704,382.261L696.704,382.261z"/>
	</defs>
	<clipPath id="SVGID_00000161618272469397137050000006910033043557053084_">
		<use xlink:href="#SVGID_1_"  style="overflow:visible;"/>
	</clipPath>
	<g style="clip-path:url(#SVGID_00000161618272469397137050000006910033043557053084_);">
		
			<linearGradient id="SVGID_00000047780994379385913770000009237935357826828443_" gradientUnits="userSpaceOnUse" x1="2289.8774" y1="-551.9536" x2="2295.8223" y2="-551.9536" gradientTransform="matrix(435.457 0 0 -435.457 -997110.0625 -239553.25)">
			<stop  offset="0" style="stop-color:#0062AE"/>
			<stop  offset="0.5056" style="stop-color:#FFFFFF"/>
			<stop  offset="1" style="stop-color:#E63027"/>
		</linearGradient>
		
			<rect x="33.136" y="381.395" style="fill:url(#SVGID_00000047780994379385913770000009237935357826828443_);" width="2588.701" height="834.838"/>
	</g>
</g>
<path style="fill:#71777A;" d="M1695.775,305.65c-4.465-39.425-16.432-83.853-34.781-119.104l-0.194,0.081l-8.123-15.09l0.178-0.106
	c-2.615-5.435-18.953-29.595-22.656-35.069c-6.139-8.245-25.349-29.225-32.543-37.059c-10.259-11.245-26.711-24.02-39.017-32.933
	l0.091-0.163c-6.371-4.809-18.87-13.449-25.655-17.808c-7.169-3.772-21.364-11.495-28.907-14.436
	c-8.724-6.307-36.249-15.733-46.568-19.331C1432.802,7.356,1399.759,0.903,1373.933,0c-12.055-0.152-41.283-0.098-52.913,1.146
	c-10.833-0.032-38.639,7.293-49.566,9.005c-36.569,8.658-74.093,27.33-105.829,47.272c-11.171,9.576-27.602,21.148-38.731,30.768
	c-13.023,12.682-32.72,34.291-43.979,48.565c-17.663,24.987-36.355,58.55-47.352,87.026c-0.001-0.001-13.484,48.512-13.484,48.512
	c-1.327,13.892-5.787,36.865-6.721,50.698c0.594,15.701,0.915,39.783,2.285,55.257c1.177,7.605,3.53,23.31,4.435,31.013
	c0.852,5.175,13.275,46.363,14.141,50.162c6.259,17.122,20.113,42.556,28.911,58.687c0,0,18.083,27.092,18.083,27.092
	c11.313,14.232,30.996,35.844,44.049,48.496c7.596,6.005,19.398,15.675,26.563,22.128c2.995,1.68,8.778,5.533,11.245,7.894
	c7.477,3.492,21.476,12.251,28.192,16.973c19.105,8.598,41.618,19.596,61.515,26.235c18.397,5.251,47.578,11.432,66.608,13.516
	c27.833,1.821,59.285,2.162,86.892-2.324c10.7-2.105,39.636-7.622,49.628-11.315c7.985-2.736,23.915-8.757,31.562-12.381
	c0,0.001,29.424-13.632,29.424-13.632c6.721-4.509,21.014-12.634,27.93-16.795c11.273-8.363,29.07-21.466,39.704-30.632
	c13.029-12.67,32.722-34.289,43.966-48.568c9.576-13.33,26.677-41.405,33.733-56.261
	C1690.502,433.372,1702.248,366.459,1695.775,305.65z M1642.312,475.458c-5.4,6.9-19.929,25.466-26.466,30.904l5.526-27.387
	l1.572-23.162c8.874-8.978,25.129-27.542,31.665-38.223c-0.601,12.163-5.693,39.193-8.239,51.308
	C1646.37,468.898,1642.312,475.458,1642.312,475.458z M1362.814,559.149c-18.913,0.415-63.519,0.428-81.636-3.806
	c-0.452-14.576,0.725-44.967,1.78-59.643c36.8,4.401,82.652,2.092,119.261-3.353c0.021,12.589,0.202,49.862-0.736,61.832
	L1362.814,559.149z M1400.847,564.47c-2.221,12.55-3.959,33.506-6.211,45.961c-22.247,3.811-55.187,4.905-77.828,4.338
	c-7.144-1.102-22.412-2.898-29.568-3.052c-1.934-2.61-5.332-42.057-5.918-46.15c0,0,28.135,3.727,28.135,3.727h35.575
	C1356.976,570.479,1388.702,566.182,1400.847,564.47z M1098.002,523.441l-8.116-23.582c-1.671-6.079-3.158-19.636-3.558-25.995
	c20.341,19.965,49.158,40.53,74.343,53.863c0.117,14.006,4.731,35.051,9.19,48.285c-10.481-5.115-30.581-18.322-40.641-24.624
	C1119.306,543.843,1106.59,532.457,1098.002,523.441z M1062.085,232.373c0.537,4.075,1.895,21.861,3.916,25.24
	c-9.868,13.437-19.626,31.874-26.949,46.811c-1.731-11.885-1.54-28.25-0.366-40.185c4.33-13.886,15.602-37.935,23.852-49.879
	C1061.998,218.302,1062.024,228.297,1062.085,232.373z M1029.83,314.557l1.991,6.713c-0.236,0.886-3.15,12.483-3.365,12.895
	c-1.05-10.146-1.755-23.382,0.058-33.458L1029.83,314.557z M1063.797,480.643c-7.028-12.369-17.897-32.795-22.753-45.98
	c-1.691-8.636-5.535-28.89-6.676-37.42c8.724,22.207,25.797,46.506,41.04,64.698c0.319,10.776,2.067,31.728,5.182,41.976
	C1075.585,498.416,1067.528,487.076,1063.797,480.643z M1077.747,424.135l-1.82,22.359c-6.441-8.241-19.137-26.579-24.193-35.551
	c0,0-10.97-24.076-10.97-24.076c-2.106-5.33-5.84-16.438-7.104-21.995c0.462-4.768,1.549-21.042,3.747-25.256
	c3.63,9.67,9.542,22.618,14.383,31.768c7.174,10.945,19.675,28.418,29.388,37.294L1077.747,424.135z M1081.141,394.36
	c-4.714-6.101-16.759-21.684-20.592-28.059c-7.057-13.453-14.353-30.126-18.172-44.881c7.271-16.482,17.26-35.763,27.018-50.942
	c-0.17,1.687,4.594,10.702,5.326,12.334c2.094,4.978,6.696,14.785,9.228,19.536c4.993,9.385,15.082,20.033,22.366,27.692
	c-8.228,17.352-18.077,48.266-22.539,66.938L1081.141,394.36z M1365.82,10.138c9.569,0.461,24.604,1.906,33.869,4.287
	c-3.928,1.603-10.323,5.145-13.902,7.393c-2.288,2.412-7.303,6.834-10.08,8.639c0,0-9.295,15.1-9.295,15.1
	c-5.648-0.05-19.369-0.05-24.829,0.596c-3.258-8.256-10.487-25.884-14.675-33.855C1338.519,10.304,1354.086,9.964,1365.82,10.138z
	 M1681.412,319.975c-2.583,17.823-7.289,40.683-15.59,56.723c-0.023-12.485-2.085-35.695-4.09-47.997
	c6.856-12.41,10.945-31.178,13.357-45.087C1677.457,291.284,1680.346,311.81,1681.412,319.975z M1657.021,203.38l3.933,16.403
	c-3.301-5.86-10.954-18.131-15.663-22.836c-0.703-8.222-3.106-20.356-5.828-28.159C1644.526,177.3,1653.675,194.121,1657.021,203.38
	z M1390.059,399.079c-29.784,4.082-68.009,5.945-97.881,2.32c1.47-17.453,7.351-55.83,10.369-73.369
	c25.918,3.869,58.792,1.604,84.7-1.607c2.914,18.921,8.053,52.567,9.794,71.629L1390.059,399.079z M1397.839,408.181
	c1.505,20.23,4.488,53.553,4.38,73.884c-36.522,5.607-81.927,7.93-118.661,3.5c0.804-16.416,5.461-57.338,7.473-74.103
	C1324.137,415.388,1364.944,413.183,1397.839,408.181z M1117.633,193.251l1.417,6.6c-15.217,12.706-32.567,31.641-45.167,46.904
	c-2.687-16.23-1.902-35.883,1.393-51.959c11.103-15.171,29.188-32.889,44.461-43.852c-1.248,6.249-2.872,18.883-3.226,25.239
	C1116.511,176.182,1117.633,193.251,1117.633,193.251z M1080.985,254.032c11.248-13.533,27.257-31.429,40.61-42.928
	c2.392,7.644,8.427,22.423,12.082,29.544c2.1,2.752,11.222,15.718,13.867,17.585c-12.046,17.118-27.522,43.211-36.401,62.118
	c-3.455-3.581-10.083-10.993-13.24-14.83c-2.757-3.987-7.491-12.409-9.476-16.831c-1.982-4.675-6.341-14.09-8.716-18.539
	c0,0-2.215-9.907-2.215-9.907s-0.297-0.892-0.297-0.892L1080.985,254.032z M1253.359,39.317l3.376-1.845
	c7.626,0.215,24.386,8.111,31.435,11.011c2.624,1.743,10.714,7.004,13.026,8.961l-11.963,6.538l-5.492,4.828
	c-16.603-3.57-41.79-4.8-58.756-4.341C1232.694,56.294,1244.44,46.172,1253.359,39.317z M1253.114,26.841l5.56-1.986l-3.991,2.179
	L1253.114,26.841z M1514.699,163.891c17.645,10.425,41.173,25.653,56.941,38.775c-4.433,12.346-14.79,27.354-23.077,37.433
	c-15.434-17.45-39.625-39.246-58.079-53.546l13.997-15.844l4.868-9.487L1514.699,163.891z M1514.203,152.327
	c2.416-1.73,5.487-21.859,6.242-24.723c19.284,6.241,41.995,16.089,59.626,26.16c0.467,11.465-0.641,28.113-4.756,38.922
	C1557.963,178.733,1533.911,162.692,1514.203,152.327z M1330.901,97.882c-13.529,1.123-45.302,9.423-58.621,13.194v-7.211
	l6.006-14.97c0.885-0.97,7.196-8.51,8.166-9.036c15.295,3.356,32.922,10.367,46.709,17.77L1330.901,97.882z M1339.051,107.162
	c-3.673,4.123-32.552,36.193-35.238,39.482c0,0-9.441-4.723-9.441-4.723l-9.116-7.033c-3.252-3.082-9.106-9.713-10.894-13.902
	C1290.976,116.312,1322.004,108.189,1339.051,107.162z M1270.078,82.873l-2.669,6.398l-0.046-0.236
	c-3.167,1.117-17.356,1.891-20.923,2.169c-11.069,1.28-32.997,5.452-43.695,8.487c1.636-7.48,7.607-17.222,11.981-23.401
	c17.5-3.457,42.507-1.339,60.063,1.198L1270.078,82.873z M1265.836,126.994c1.184,1.541,7.72,10.985,9.174,11.917
	c-17.845,10.991-41.97,30.198-57.762,43.95c-2.077-1.767-7.373-10.038-8.958-12.405c0,0-5.295-9.53-5.295-9.53l-2.108-6.975
	c18.917-10.779,43.457-22.181,63.851-29.804L1265.836,126.994z M1235.886,180.235c12.179-9.373,33.701-27.309,47.363-34.11
	l5.302,4.12l8.417,4.275c-13.07,14.015-31.404,41.296-42.046,57.16c-10.013-5.28-22.567-13.559-30.815-21.341L1235.886,180.235z
	 M1272.468,203.662c7.254-10.426,25.704-36.514,34.504-45.202c4.277,1.094,14.35,3.465,18.668,3.716
	c-1.059,4.801-14.416,62.726-14.88,66.021l-16.573-2.344c-7.989-2.376-22.565-6.18-30.132-9.588L1272.468,203.662z M1414.204,96.7
	c-11.964-1.003-37.362-1.304-49.495-1.094c11.104-9.979,27.932-21.596,41.542-27.665c5.284,3.269,14.891,10.606,19.336,14.895
	c2.803,4.58,6.277,10.537,7.26,15.876L1414.204,96.7z M1432.639,108.885c-0.618,5.866-3.984,10.266-7.468,14.712
	c0,0-2.854,4.755-2.854,4.755l-6.213,4.864c-10.727-7.562-33.581-21.275-45.207-27.49
	C1389.293,105.311,1414.417,106.419,1432.639,108.885z M1390.052,128.243l16.97,11.14c-3.232,3.056-15.825,7.181-20.03,8.66
	c-2.14,0.545-16.344,4.942-18.264,4.708c-2.465-10.395-7.366-31.708-9.6-42.056L1390.052,128.243z M1360.932,163.944
	c0.347,1.059,11.004,64.119,11.248,65.212c-12.819,1.001-38.848,3.025-51.359,0.465c3.761-17.816,11.215-48.335,14.944-66.101
	C1340.092,163.728,1356.971,165.215,1360.932,163.944z M1313.312,266.19l5.468-26.63c13.545,2.844,41.261,0.691,55.118-0.398
	l0.592,3.452l11.232,73.793c-24.935,3.047-56.631,5.301-81.577,1.629l0.312-1.953L1313.312,266.19z M1371.092,162.884l-0.046-0.198
	c1.18,0.279,15.592-4.073,17.112-4.445c17.356,13.595,35.033,35.23,47.568,53.218l-0.542,0.226l-14.106,6.48
	c-8.793,3.047-29.605,7.504-38.903,9.272L1371.092,162.884z M1428.833,185.103c-6.419-7.471-21.859-24.781-29.454-30.73l6.276-2.246
	l10.626-6.667c16.541,10.769,43.89,29.066,58.887,41.873c-2.421,2.694-11.927,9.179-15.017,11.326
	c-2.008,1.209-12.694,8.437-14.824,8.793C1441.705,202.18,1432.791,190.295,1428.833,185.103z M1462.362,164.272
	c-4.413-2.976-33.603-22.888-37.315-25.187l4.997-3.895c0.718-1.187,3.767-6.503,4.649-7.429
	c17.285,5.293,49.708,20.87,65.611,28.951l-3.877,7.798l-13.87,15.741L1462.362,164.272z M1506.97,144.464l-1.855,3.327
	c-15.013-7.904-48.327-23.191-64.568-28.98l2.161-8.84c21.633,1.814,47.432,7.669,68.105,14.275L1506.97,144.464z M1495.169,109.071
	c-14.924-3.889-36.499-7.982-51.838-9.228c-0.595-5.585-3.528-12.702-6.261-17.555c19.542-1.239,45.831-2.356,65.121,1.359
	l3.725,6.729l3.079,11.212l1.193,11.907L1495.169,109.071z M1479.527,71.125c-13.302-0.002-36.927-0.363-49.927,1.962
	c-2.872-2.885-9.181-7.92-12.643-10.057c1.089-0.578,13.763-5.821,15.272-6.451c12.877-3.705,30.48-6.482,43.896-6.27
	c6.432,5.506,15.178,14.742,19.744,21.919L1479.527,71.125z M1457.667,41.181c-7.196,0.829-21.376,3.566-28.284,5.656
	c-5.399,2.183-17.666,7.275-22.798,9.773l-6.896-3.754c-4.519-1.459-17.493-5.794-22.132-5.838c0,0,5.742-9.569,5.742-9.569
	c2.246-1.406,6.42-5.296,8.245-7.255c5.027-3.292,12.647-6.829,18.225-9.079c0,0,12.323-1.543,12.323-1.543
	c7.074,2.18,19.37,8.077,26.133,11.069c0,0,15.515,10.094,15.515,10.094L1457.667,41.181z M1381.714,57.827
	c0.085,0.046,13.597,4.151,13.66,4.228c-13.179,6.448-30.065,19.016-40.749,29.065c-1.902-8.788-6.56-26.664-9.588-35.042
	C1355.371,55.045,1371.515,55.787,1381.714,57.827z M1348.775,111.481l9.854,42.527c-12.956,0.987-31.55-1.313-44.192-4.127
	l2.126-2.443L1348.775,111.481z M1339.53,89.479c-12.569-6.72-29.684-14.092-43.487-17.666c10.406-6.62,26.717-11.949,38.606-14.999
	c3.026,8.509,7.796,25.934,9.521,34.796L1339.53,89.479z M1316.53,51.453l-4.242,1.646c-4.508-3.59-14.022-10.257-18.91-13.337
	c0,0-21.94-9.341-21.94-9.341l-0.907-0.229c13.197-7.09,30.581-13.062,45.263-16.003c5.647,7.495,11.659,24.706,15.363,33.179
	L1316.53,51.453z M1236.045,40.191c-8.607,7.299-19.673,18.095-26.896,26.749c-9.474,1.239-26.622,6.356-35.45,9.896
	c12.853-11.027,32.566-26.519,47.041-35.085c0,0,5.919-2.728,5.919-2.728c3.183-0.818,10.119-1.718,13.422-2.034L1236.045,40.191z
	 M1225.734,104.584c8.963-1.542,28.175-4.209,37.14-4.444c-1.233,1.057-0.667,12.614-0.689,14.143
	c-20.19,7.497-44.933,18.822-63.692,29.401c-2.113-9.835-2.356-23.256,1.066-32.824L1225.734,104.584z M1199.635,175.732
	c1.907,2.895,7.427,11.485,9.947,13.706c-16.31,12.827-42.258,45.267-55.68,60.863c-1.102-0.528-10.247-13.14-11.246-14.401
	c-4.116-8.531-10.56-22.925-12.459-32.246c17.713-15.667,41.174-32.74,61.629-44.664
	C1192.277,162.819,1197.738,172.349,1199.635,175.732z M1127.11,311.034c6.223-11.714,20-34.804,27.716-45.482
	c1.017,1.24,14.041,13.036,15.587,14.47c9.706,6.121,25.991,17.45,36.502,22.057c-8.764,20.081-18.254,49.009-24.794,69.939
	c-22.046-9.303-46.915-26.609-63.609-43.748L1127.11,311.034z M1192.152,282.054l-15.205-9.808
	c-2.296-2.123-14.007-12.678-15.856-14.757c13.537-15.67,38.861-47.566,55.266-60.502c8.834,8.424,22.334,17.532,33.079,23.273
	c-14.29,21.31-26.889,49.749-38.414,72.597C1209.674,292.856,1193.734,282.929,1192.152,282.054z M1229.559,278.458
	c7.315-16.401,19.09-38.682,28.974-53.621c1.706,1.358,15.001,5.478,17.294,6.294c0,0,16.182,4.609,16.182,4.609
	s16.714,2.385,16.714,2.385c-3.95,17.625-11.525,60.193-14.613,78.451c-12.103-1.353-36.848-5.59-48.299-9.394
	c0,0.001-25.394-10.455-25.394-10.455L1229.559,278.458z M1395.693,314.501l-11.19-73.509l-0.617-3.592
	c9.774-1.847,31.131-6.413,40.364-9.594c1.643-0.732,16.262-7.461,17.525-7.881c13.425,20.609,27.987,47.308,37.639,69.924
	C1455.567,301.63,1422.018,310.447,1395.693,314.501z M1472.845,252.74c-4.969-9.37-15.742-28.009-21.579-36.774
	c9.982-5.538,23.612-14.443,31.94-22.262c18.51,14.34,42.758,36.085,58.211,53.592c-14.386,14.015-35.613,27.944-52.842,38.229
	C1485.959,278.669,1476.285,259.546,1472.845,252.74z M1494.434,293.938c17.309-10.693,39.098-24.738,53.643-38.991
	c6.356,6.762,17,22.525,21.614,30.638c4.246,6.752,12.758,21.399,15.972,28.599c-18.97,19.663-47.296,36.835-71.587,48.897
	c-5.133-19.426-13.9-49.697-21.461-68.282L1494.434,293.938z M1510.11,393.794c1.936,12.078,6.656,42.117,7.861,53.912
	c-31.045,15.145-71.69,26.657-105.613,32.606c0.003-20.034-2.962-53.698-4.458-73.616c31.769-4.588,69.789-14.958,98.986-28.417
	L1510.11,393.794z M1516.221,373.392c24.814-12.276,54.092-29.707,73.901-49.339c7.438,14.205,14.62,46.081,18.36,61.835
	c-10.748,11.286-31.796,27.815-44.951,36.186c-7.465,4.879-27.721,18.094-35.927,21.026
	C1525.305,423.736,1520.547,392.402,1516.221,373.392z M1593.209,306.642c-9.855-19.32-23.668-42.464-37.94-58.904
	c8.652-10.151,19.662-25.711,24.431-38.227c12.231,9.847,27.718,26.946,38.069,38.676c0.438,0.706,7.171,12.083,7.45,12.303
	C1617.684,275.288,1604.927,294.803,1593.209,306.642z M1599.638,213.569l-15.861-13.97l4.013-12.946
	c0.74-5.311,3.03-20.73,2.408-25.899c0,0,18.227,12.578,18.227,12.578c8.259,7.008,20.451,19.305,27.149,27.768
	c0.273,6.705,0.276,23.045-0.865,29.492c-0.915,4.476-3.528,13.307-5.115,17.606
	C1629.094,244.482,1602.455,216.931,1599.638,213.569z M1599.916,123.633c0,0,7.389,5.521,7.389,5.521
	c3.047,3.634,8.801,13.119,11.2,17.313c6.21,10.126,11.837,24.629,14.318,36.206c-9.216-11.506-30.853-26.406-43.127-34.547
	c-0.409-7.539-3.494-17.681-6.422-24.608c-1.022-3.215-3.782-11.777-5.563-14.564
	C1580.839,110.237,1596.784,121.534,1599.916,123.633z M1578.484,141.459c-16.959-9.686-39.269-18.322-57.75-24.5
	c0,0-1.684-16.812-1.684-16.812c-0.157-0.389-3.642-14.249-4.057-14.043c13.849,1.986,32.297,7.91,45.024,13.657
	c0.468,0.963,5.592,8.009,6.331,9.071c0,0,4.079,8.202,4.079,8.202C1572.545,124.293,1576.923,134.083,1578.484,141.459z
	 M1531.599,78.995l-22.88-4.387c-3.358-7.124-10.829-17.519-16.557-22.947l12.842,1.69c3.224,1.174,16.305,5.743,19.174,7.028
	c0,0,11.938,9.568,11.938,9.568l13.736,14.713L1531.599,78.995z M1495.956,41.971c-3.598-0.657-11.954-1.315-15.672-1.531
	c-2.291-2.881-16.947-11.97-20.201-14.158l21.425,7.66l-0.006,0.012L1495.956,41.971z M1185.202,83.31l15.589-4.358l-0.361,0.54
	l-5.556,11.099l-3.564,12.335c-16.501,5.88-37.415,13.761-52.381,22.99c3.714-9.59,11.714-21.592,17.75-29.885
	C1162.754,91.534,1178.041,85.89,1185.202,83.31z M1150.411,130.812c10.111-4.941,26.849-12.237,37.457-15.895l-1.339,13.531
	c0.361,4.695,1.412,15.961,2.684,20.396c-20.256,11.445-43.844,28.335-61.446,43.533c-2.123-16.041,0.014-35.256,4.826-50.64
	C1132.289,141.631,1149.868,131.163,1150.411,130.812z M1133.66,112.998c-2.565,5.441-7.548,16.804-9.601,22.391
	c-13.366,9.037-31.083,23.513-42.008,35.46c2.441-8.144,8.926-20.968,13.54-28.11c11.223-12.073,28.134-26.997,41.831-36.061
	L1133.66,112.998z M1087.72,426.038l2.118-9.56c19.734,18.807,48.395,36.366,73.012,47.839c-1.72,13.556-3.349,38.096-2.699,51.839
	c-25.467-15.283-55.165-35.451-74.624-58.089C1085.107,455.823,1087.532,429.059,1087.72,426.038z M1164.351,450.29l-0.352,3.289
	c-24.508-11.307-52.174-29.66-71.658-48.397c3.873-19.204,13.898-49.343,21.468-67.42c17.213,17.474,43.024,34.671,65.636,44.12
	C1174.795,398.732,1167.264,433.041,1164.351,450.29z M1171.099,482.484l1.43-13.399c29.825,11.944,68.491,21.495,100.347,25.228
	c-1.019,14.604-2.308,45.234-1.818,59.682c-33.457-3.964-70.585-17.544-100.545-32.693
	C1169.61,513.84,1170.759,490.309,1171.099,482.484z M1196.47,544.48c21.582,8.528,51.541,17.162,74.597,19.729
	c1.398,10.686,3.225,35.553,5.253,45.794c-5.586-1.35-18.902-3.317-24.729-4.06c-15.977-4.916-53.254-14.247-67.369-22.749
	c-7.348-13.704-11.857-35.04-13.204-50.447L1196.47,544.48z M1275.491,458.23l-2,25.944c-31.788-3.981-70.338-13.025-99.823-25.762
	c2.185-19.865,10.218-53.151,15.21-72.475c27.173,12.014,62.688,20.567,92.079,24.362L1275.491,458.23z M1272.703,399.152
	c-25.335-4.868-57.793-12.088-81.224-23.125c6.581-20.977,16.027-49.966,24.805-70.088c0,0,26.301,10.837,26.301,10.837
	c11.876,3.935,37.404,8.426,49.926,9.791c-3.05,17.739-8.91,56.023-10.406,73.67L1272.703,399.152z M1397.216,324.512
	c27.173-4.216,61.633-13.224,86.246-25.386c7.465,19.046,16.448,48.96,21.283,68.852c-28.683,13.902-66.207,23.849-97.646,28.591
	C1405.315,377.512,1400.139,343.423,1397.216,324.512z M1405.641,607.012c1.007-10.862,3.99-33.001,5.597-43.871
	c34.467-5.369,75.479-18.11,106.833-33.458c-2.32,12.962-6.44,38.75-11.694,50.686c-14.328,6.113-52.952,20.503-68.187,22.291
	c0,0-16.311,4.364-16.311,4.364l-16.654,2.082L1405.641,607.012z M1494.501,529.411c-23.575,9.051-57.897,19.692-82.83,23.46
	c0.92-10.908,0.688-50.665,0.688-62.276c34.097-5.777,75.343-17.406,106.718-32.182c0.972,17.396,1.539,42.185,0.274,59.524
	L1494.501,529.411z M1522.334,562.92l6.748-37.347l0.06-1.153c27.37-14.622,61.121-35.481,82.93-57.769
	c-0.522,13.471-5.952,41.208-10.877,53.784c-4.839,3.611-14.689,12.253-19.173,16.422c-6.398,4.127-18.96,12.842-25,17.43
	c-10.9,6.529-26.333,15.247-38.006,20.249L1522.334,562.92z M1598.618,465.783c-18.545,16.431-46.906,35.32-68.853,46.676
	c1.044-16.508,0.225-42.205-0.835-58.77c27.75-12.824,59.336-34.789,81.623-55.704c3.165,13.73,3.55,39.259,2.546,53.336
	L1598.618,465.783z M1612.32,359.669c-2.411-13.414-8.768-31.002-14.48-43.322c12.252-11.361,25.547-31.63,33.79-46.074l5.63,9.354
	l4.311,11.891c4.675,9.916,8.307,24.38,9.673,35.238c-1.914,3.121-6.364,12.219-8.011,15.642
	c-6.746,10.007-17.347,27.217-26.424,35.146L1612.32,359.669z M1652.16,403.44c-6.274,9.69-20.388,28.752-28.576,36.757V416.39
	l-4.138-27.16c5.262-4.838,14.85-15.31,18.846-21.194c1.109-1.779,15.192-22.317,15.249-23.702
	c1.111,5.085,1.86,25.365,2.142,30.904c0,0,0.006,21.679,0.006,21.679L1652.16,403.44z M1655.438,298.872
	c-2.381-5.671-6.785-17.333-8.808-23.165c-1.857-3.118-8.028-13.696-10.068-16.46c2.111-6.08,7.015-20.702,8.107-26.877
	c0.597-4.346,1.425-13.655,1.121-17.988c3.618,5.464,10.492,17.843,13.568,23.73c1.472,3.883,6.249,16.044,7.474,19.768
	c0.648,16.014-3.505,37.021-8.291,52.269L1655.438,298.872z M1662.438,439.167l2.252-20.284l1.082-19.298l1.72-3.161
	c6.767-13.192,14.577-29.636,17.991-44.122c1.209,13.825-3.544,36.984-7.302,50.215c-1.818,6.554-6.763,19.186-9.875,25.234
	c-0.672,1.527-5.668,14.09-6.592,15.176L1662.438,439.167z M1579.36,95.366l4.85,4.84l-0.537,0.491
	c-1.533-0.804-15.498-8.897-16.775-9.036c-1.791-3.18-6.84-10.226-9.059-13.22C1563.273,82.317,1574.197,91.033,1579.36,95.366z
	 M1145.749,85.82c4.758-3.515,16.242-12.108,20.565-15.901c-4.465,4.068-12.49,12.96-16.008,17.855
	c-2.941,1.563-17.391,9.645-20.344,11.671C1132.207,96.678,1142.84,88.215,1145.749,85.82z M1058.244,197.553l11.118-20.655
	c-0.242,0.122-3.249,12.684-3.457,13.397c-3.671,5.03-11.894,18.3-15.058,23.466
	C1051.068,213.054,1057.709,198.733,1058.244,197.553z M1091.359,539.176c-1.063-1.67-19.596-28.991-19.409-29.748
	c0.275,0.399,16.636,18.706,16.95,19.086c0-0.001,4.571,12.927,4.571,12.927s0.46,0.865,0.46,0.865L1091.359,539.176z
	 M1198.549,632.028c-3.693-2.461-15.021-10.179-18.909-11.871l0.158-0.262c-5.246-3.018-16.476-10-20.715-14.179
	c-4.504-3.152-13.084-9.996-17.043-13.774c-11.819-12.961-26.416-29.331-34.279-45.148c18.918,17.031,46.066,32.675,68.794,43.889
	c3.938,8.936,12.797,22.156,18.749,29.874c4.736,4.989,14.861,14.807,20.131,19.158
	C1213.805,639.096,1200.484,632.908,1198.549,632.028z M1258.239,657.368l0.465-0.774c-25.096-14.421-51.998-32.832-66.57-58.525
	c6.962,3.571,48.666,15.204,57.001,17.724c7.522,0.923,22.684,3.426,30.045,5.093c0.865,4.967,3.667,14.692,5.454,19.42
	c4.29,7.105,11.177,21.655,17.508,27.07C1291.897,665.375,1267.962,660.412,1258.239,657.368z M1373.933,671.408
	c-11.445,0.087-40.361,0.168-51.393-1.043l0.314-0.623c-8.087-3.298-15.799-10.465-20.112-18.016c0,0-8.649-15.112-8.649-15.112
	c-1.178-3.32-3.786-11.155-4.276-14.599c5.614,0.075,20.573,2.045,26.322,2.854c23.972,0.393,52.652-0.042,76.406-3.96
	c-1.27,7.333-4.938,20.477-7.865,27.31c0.001,0-5.39,16.198-5.39,16.198s-3.939,6.896-3.939,6.896L1373.933,671.408z
	 M1406.608,668.12c-1.928,0.231-17.63,2.491-19.11,2.384c0.418,0.444,6.559-18.5,6.766-18.953c3.599-8.594,7.288-22.816,8.88-31.964
	l20.338-2.539l17.013-4.513c11.671-0.695,48.967-14.841,60.361-18.9c0,0-4.554,9.115-4.554,9.115
	c-3.874,5.203-11.008,16.042-14.132,21.695c-4.268,4.048-12.397,12.647-16.119,17.178c0,0-26.231,19.665-26.231,19.665l0.116,0.155
	C1439.608,661.585,1406.95,668.026,1406.608,668.12z M1528.01,623.27c-15.471,10.543-41.814,21.567-58.979,28.799
	c2.721-1.293,9.813-9.704,11.874-12.015c0,0,8.881-8.88,8.881-8.88c3.419-5.934,10.95-17.421,15.04-22.907
	c1.971-3.937,8.406-16.322,9.533-20.424c19.791-8.781,43.21-20.481,60.287-33.847c4.722-3.016,16.138-10.64,19.853-14.743
	c-6.8,19.372-19.569,39.77-31.986,55.991c-2.509,2.718-11.792,13.327-14.642,15.369
	C1544.015,614.119,1532.612,620.648,1528.01,623.27z M1590.492,575.069l-5.099,5.107c10.271-14.964,18.615-36.537,24.404-53.668
	c6.262-5.76,24.634-23.914,29.236-30.706c-4.652,14.068-13.263,32.733-19.345,46.226
	C1615.192,548.204,1595.917,569.061,1590.492,575.069z M1661.736,469.819c-2.023,4.409-7.531,16.428-9.933,20.432
	c0.799-1.692,3.692-15.429,4.12-17.334c3.208-5.017,8.986-14.459,11.744-19.734L1661.736,469.819z"/>
<path style="fill:#0062AE;" d="M1494.271,254.595c7.193-0.915,11.194,0.607,6.45,4.203c-0.345,0.22-0.993,1.938-1.355,2.021
	C1491.97,262.834,1475.099,256.931,1494.271,254.595"/>
<path style="fill:#0062AE;" d="M1413.465,251.787c9.458-1.605,2.158,9.785,1.112,11.86c-1.159-0.571-2.646-0.256-3.823-0.369
	c-0.416-1.284,0.256-1.534-0.909-1.926c0-0.279-0.101-0.422-0.101-0.648c-4.298-1.736-13.626,0.82-8.168-4.714
	c3.18-3.222,3.721-0.493,7.591-1.237C1410.065,254.546,1411.586,252.126,1413.465,251.787"/>
<path style="fill:#0062AE;" d="M1469.401,241.868c3.136,4.232,7.237,2.315,11.081,3.834c3.436,1.606-1.255,3.235-1.255,3.365
	c-0.422,2.8,3.163,4.565-1.058,5.38c-5.618,1.094-12.847-5.76-16.182-9.428C1465.177,244.803,1466.287,242.41,1469.401,241.868"/>
<path style="fill:#0062AE;" d="M1368.972,228.986c0.761,0.505,3.323,0.904,3.923,1.1c1.338,9.03,3.715,15.646-3.329,20.2
	c-7.461,4.815-2.378-5.909-3.299-9.726C1364.484,232.422,1361.262,235.139,1368.972,228.986"/>
<path style="fill:#0062AE;" d="M1368.229,215.091c1.665,5.559,0.642,15.344-7.152,5.166
	C1363.438,218.527,1365.917,216.755,1368.229,215.091"/>
<path style="fill:#0062AE;" d="M1260.518,130.128c0.618,0,2.729,1.599,3.293,1.795c10.13,2.634,3.103,4.423,2.782,9.25
	c-0.345,4.251,0.939,3.311-0.713,7.378c-9.517,0.589-12.133,2.776-19.683,4.577c-4.197-6.623-2.33-5.148,2.61-10.165
	c-10.647-3.246,0.422-6.272,5.457-6.42C1254.858,132.417,1254.704,129.985,1260.518,130.128"/>
<path style="fill:#0062AE;" d="M1277.362,107.612c9.078,0.482,19.755,0.101,6.92,5.511c0,0.107,0.345,1.926,0.28,2.027
	c13.816,2.033,9.476,1.344,4.096,7.764c-2.634,3.174-1.421,3.174,2.877,4.5c-5.683,1.581,7.027,9.375,8.24,10.213
	c-1.213,2.782-0.351,3.87-1.575,6.759c26.84,9.897-2.188,11.55,12.443,12.55c-0.149,0.47-0.583,2.039-0.583,2.039
	c-8.137,7.451-24.826-0.949-33.487,6.272c-2.158,0.274-14.404,3.65-11.533,1.475c2.342-1.938,6.319-7.104,9.179-8.043
	c3.831-1.134,8.083,1.218,11.438-2.087c0,0,0.368-1.599,0.517-2.039c-4.964-0.345-13.525-0.642-17.293-0.839
	c4.964-3.204,10.968-5.095,2.954-8.293c9.446-1.718,8.828-2.753,14.018-6.866c-3.221-0.806-5.671-0.55-3.721-4.447
	c-2.428-0.372-4.832-0.888-7.199-1.546c0.791-1.653,3.323-6.349,0.541-8.139c-0.464,0.298-2.556,0.161-3.097,0.262
	c0.451,8.856-3.089,2.345-5.606-1.028c1.195-1.112,5.974-4.435,6.349-5.731c0.357-1.629-1.266-3.793-0.648-5.309
	C1272.47,112.618,1276.97,108.528,1277.362,107.612"/>
<g>
	<path style="fill:#0062AE;" d="M1069.818,523.521c15.341-7.873,34.266,8.379,45.621,21.883c5.778,6.105,7.24-2.675,13.203,2.931
		c15.767,9.519,14,23.561,18.916,37.187C1147.945,636.401,1084.171,542.565,1069.818,523.521"/>
	<path style="fill:#0062AE;" d="M1149.306,70.33c11.412,17.395-1.017,10.176,3.249,15.987c0.003-0.001,9.972-3.372,5.662-1.695
		c-1.427,0.458-3.537,5.659-4.477,6.86c1.665-1.349,9.904-5.957,10.992-7.128c-2.196,8.071-14.553,19.105-11.933,24.765
		c-6.361,7.055-8.493,13.177,4.367,12.111c-11.266,11.525,3.813,13.766-1.635,24.462c-6.951,6.7-7.522,7.824-12.86,0.571
		c-6.477,5.477-11.223,5.403-12.524-0.494c-5.86,0.467-6.326,11.972-13.401,7.569c3.23-5.735,7.092-8.732,4.891-13.916
		c1.161-2.83,12.206-15.344,15.577-19.999c16.056-18.962-33.957,27.103-39.069,32.696c12.347-5.782-8.43,15.663-10.005,24.177
		c6.396-7.3,14.464-2.14,8.953,8.828c-11.901,6.265-19.755,15.909-25.9,28.656c-4.495-9.78,9.525-16.197,10.122-25.481
		c-24.227,49.502-25.144,6.489-44.734,34.587C1072.537,147.112,1086.004,127.131,1149.306,70.33"/>
	<path style="fill:#0062AE;" d="M1391.602,17.128c0.541,4.869-20.765-1.581-19.88,1.891c0.708-1.724,2.336,12.305-4.78,3.953
		c-19.259-0.109-41.742-28.806-48.084,9.155c-1.127,1.136,2.594-16.33-17.582-14.345C1263.903-2.371,1395.164-9.305,1391.602,17.128
		"/>
	<path style="fill:#0062AE;" d="M1222.658,56.681c0.009,11.675,15.357,2.337,24.277,3.877c-0.86,3.946-0.783,4.725,1.844,7.947
		c-5.831,3.663-33.714,12.657-32.638-1.296c-6.122-2.437-4.059-2.383,1.993-2.853C1204.93,63.191,1219.679,58.179,1222.658,56.681"
		/>
	<path style="fill:#0062AE;" d="M1502.496,32.551c83.431,38.188,195.615,156.134,186.996,266.409
		c-15.232,14.915-16.719-12.51-26.409,3.916c-4.848-10.992-20.213-9.569-23.963-21.181c-14.693,7.97,8.327,32.877,8.22,25.605
		c17.23,12.058,7.727,11.607,23.352-5.013c-2.664,17.155,20.396,9.588,10.998,26.005c4.714,1.984-2.278,6.479-2.724,6.776
		c-0.166,7.865-2.152,4.512-4.132,8.81c0.201,13.945-13.832,11.662-13.116,25.853c-9.413,1.031-16.173,19.695-26.798,19.106
		c-8.084,1.525-16.357,17.675-20.033,3.52c0.907-4.045,1.724-3.421-2.527-5.653c0.589-6.153-0.297-12.722-3.977-16.776
		c-9.408-2.378-4.898-12.575-8.5-17.735c-17.85-3.9-7.458-20.661-20.498-26.078c1.264-17.35-16.2-10.409-16.164-27.055
		c-11.971-5.855-3.498-23.343-13.016-33.89c12.368-13.02,1.57-14.656,12.671-16.806c0.024-5,0.565-6.468,3.139-10.041
		c-19.698-4.613-9.876,15.227-25.99-8.092c-5.208-2.727-8.174-0.587-10.552,2.73c-4.197-4.149-5.136-1.985-11.782-2.526
		c-8.609-0.963-6.854-13.469-13.608-16.776c2.841-1.324,9.525-2.565,4.941-5.707c-6.322-8.725,9.535-5.048,13.587-4.213
		c0.82-6.163,8.014-1.731,12.302-1.542c1.897-9.036,19.081-3.395,24.087,0.988c1.476,5.423,5.24,5.29,10.399,5.26
		c8.624,5.177,12.547-0.773,22.31-2.187c-8.1-11.263-16.312-22.233-30.485-26.221c-6.799-7.879-19.93-7.738-29.527-9.958
		c-0.756-4.35,8.129-10.73-0.69-9.174c-4.531-5.03,8.238-4.992,0.155-8.542c-2.775,5.178-23.213,10.896-9.911,13.801
		c4.17,8.206-11.01-1.126-14.01,0.246c-13.955,4.049-21.229,26.287-2.37,38.519c1.311,0.467,1.37,1.43,1.828,2.53
		c-7.33-0.375-11.462,7.681-15.415,10.326c1.878-7.152-0.696-6.462-7.639-8.121c-2.865,4.934,0.273,3.401-8.097,4.56
		c0.025,2.813,6.948,6.108-7.39,4.453c-0.101,5.697,1.906,3.38,5.161,6.342c0.874,1.558-0.571,5.707,2.175,7.092
		c7.236-0.585,4.078-0.412,9.613,3.93c2.41,3.557-19.626-0.635-23.046,0.989c4.396-8.643-12.776-1.253-10.304-11.863
		c-2.592-0.612-5.219-2.133-7.163-2.823c3.624-10.66-1.746-10.796-10.416-12.501c-12.69-4.023-20.939-16.656-33.058-13.646
		c-0.625-4.726-1.274-5.264-8.074-3.487c0.154,12.901,9.87,14.126,17.764,23.389c12.128,0.455,23.671,9.988,35.883,12.101
		c-0.425,5.182-9.667,0.606-13.667,2.238c-1.504,4.283,4.135,3.814,7.395,5.456c-2.873,5.138-5.819,17.902-12.568,13.537
		c4.946-7.279-2.532-15.703-9.447-18.603c-8.875-4.781-14.186-8.029-25.361-7.545c-0.367-0.099-0.766-2.483-1.027-2.584
		c-13.71,3.536-10.527-12.733-20.841-15.18c-23.18,0.178-11.469,9.811-21.324,10.801c-3.879,18.889-43.687-2.688-33.866,21.119
		c-12.832,8.516-31.38,9.39-25.813,28.633c-7.901-2.003-9.33,10.67-17.629,12.673c-9.3-4.134-17.427-1.578-26.394,1.97
		c-9.482-9.678-13.966-14.444-28.216-11.412c9.35-21.296-10.891-3.024,10.605-30.305c4.744-6.109-8.642-17.612,4.8-16.407
		c4.774-9.219,13.81,4.323,21.52-0.89c6.32,0.223,14.559,7.868,25.088,3.618c4.935-3.362,1.312-15.321,10.921-12.151
		c-4.078-6.497-6.438-9.833-13.209-13.156c6.026-13.007-14.92-3.24-14.315-15.772c3.678-1.994,28.453,5.737,16.58-4.451
		c6.072-5.521,8.709,6.041,18.133,2.756c4.024-1.2,1.837-3.667,0.891-6.099c11.711-9.089,16.853-21.63,32.534-21.599
		c0.289-4.779-4.211-4.736-2.927-11.859c31.091-0.082-1.144-5.362,24.99-7.567c-0.125-6.028-2.259-7.657-5.166-11.711
		c-5.457-7.705,11.069-3.692-0.713-5.927c0.149-0.696,0.541-2.735,0.541-2.735c11.866-5.568,5.746,2.921,13.774,3.806
		c1.088,3.484-4.068,4.9-4.619,8.303c-1.074,6.743,8.802,2.154,8.067,9.434c15.472-0.852,24.967-2.776,37.065-13.057
		c4.369-0.667,11.164,6.47,9.233-1.889c6.787,0.434,4.723,0.092,5.106-3.667c9.422,3.598-10.752-11.344,1.084-14
		c-8.831-11.971,28.882-10.703,18.15-15.771c-16.552-7.353-14.59,13.513-31.259,3.276c-1.232-9.315-10.726-7.14-9.377-14.736
		c6.127-8.632,9.502-16.429-5.231-12.288c-0.269,6.386-1.167,12.297-8.142,13.767c-5.319,15.06,29.865,20.158,1.391,20.593
		c-0.974,3.534,9.662,2.603,9.844,3.371c-20.875,2.542,2.272,12.989-12.149,20.066c6.477,7.205-11.337,4.043-10.875,0.694
		c1.362-3.61-10.662-10.819-12.904-17.831c-3.426-9.57-1.411-1.877-8.402,2.594c-5.85,7.95-18.016,2.935-15.54-5.018
		c-7.036-3.605-0.24-2.082-0.688-6.628c-8.742-3.774-4.492-3.394-4.451-11.1c7.471,0.966,7.354-3.714,11.458-3.443
		c-1.278-5.274,4.218-4.106,8.835-5.83c-2.307-3.543-2.063-2.972,0.892-6.741c5.634,1.231,8.598,1.008,5.838-4.328
		c2.207-5.438,9.059-13.371-1.611-14.559c9.058-1.973,11.408,6.308,16.234-4.342c6.28,1.307,10.617-0.311,11.213-6.704
		c4.591-1.258,11.946,3.835,13.453-1.432c9.254,8.928,10.252-2.288,18.08,5.556c8.489-2.53,32.02,3.357,29.553,9.502
		c-2.775,8.126-20.205,0.69-26.277-0.397c8.446,8.482,24.124,14.544,37.193,15.702c-2.009-2.778-6.743-5.846-1.383-6.597
		c-3.554-5.533-7.119-4.094-5.14-12.254c-6.197-2.531-1.56,0.197-5.115-3.684c-1.908-2.123-11.682-5.606-3.715-5.083
		c8.266,3.657,11.467,6.607,21.509,8.024c-11.008-10.596,3.167-13.879,10.103-2.629c-0.869-8.668-8.843-12.047,4.562-11.53
		c-4.29-0.92-4.713-4.354-8.941-2.122c-5.3-13.948,13.641,0.418,19.932,0.177c4.061,0.565,1.19-0.321-0.909-1.313
		C1487.234,28.05,1498.655,32.263,1502.496,32.551z M1554.578,290.899c-0.493-0.446,0.618,1.023,0.541,0.874
		c5.771,17.324,8.279,36.651-11.087,15.308c0.28,13.119,11.646,5.913,10.349,18.399c3.121,3.375,12.811,13.055,18.204,12.394
		c11.526,13.912,20.099,23.638,25.945,42.681c5.663,3.169,4.624,10.485,8.325,14.385c9.832,1.208,7.34,5.34,16.128,9.329
		c-1.295,15.946,5.396,16.748,13.068,6.8c7.87-0.957,4.607-3.847,8.477-8.581c4.798-4.024,9.982-3.269,12.223-10.13
		c0.32,54.569-47.489,93.72-66.724,138.021c8.51,24.969-16.187,41.755-36.991,59.845c1.287,11.944,1.598,24.381-8.098,33.303
		c-27.755,18.254-71.764,51.1-107.216,25.208c3.389-9.898-4.96-5.313-6.892-14.614c-5.052,1.953-6.829-3.502-7.782-7.865
		c2.013-6.259,2.385-20.731,12.349-22.435c-8.013-28.63-7.747-37.049-38.37-50.91c-2.891-6.926,8.403-8.318,11.118-13.604
		c0.85-2.687,0.225-5.261,0.766-7.342c-9.074-3.778-2.51-6.039-6.765-10.053c-6.098-5.596-19.871-1.909-28.167,2.51
		c-11.361,0.885-6.646-4.032-9.779-9.857c-0.37-0.481-12.193-9.06-13.637-12.133c-22.314-1.796-20.799,16.809-37.773,22.732
		c-18.502,1.424-35.773-0.15-52.567,11.446c-15.47-4.041-42.185-29.029-58.375-34.444c-7.276-5.97-8.829-18.747-18.153-21.308
		c6.346-11.119-2.366-12.223-7.375-21.644c11.409-8.408-4.96-13.473,1.718-31.139c-4.374-4.446-5.24-2.042-4.223-9.118
		c-10.137-16.32,4.243-25.027,15.489-34.337c5.003-12.032-0.737-20.194,14.021-24.658c9.312-7.874,17.683-17.943,26.661-26.361
		c-14.875-12.683,7.407-13.497,7.704-22.727c17.778-3.855,7.206-13.674,24.358-24.657c24.068,19.158,52.861-21.777,77.149-12.395
		c8.278-1.959,12.257-5.237,20.07-4.785c4.756,6.602,6.969-7.709,21.484,0.396c2.497-2.372,1.498-2.027,5.755-3.745
		c0.623,6.094-3.586,4.605-2.854,9.511c19.543,4.602,2.205,8.779,0.094,16.721c14.544,11.323,14.44,8.177,30.98,5.632
		c8.985,10.64,10.319,8.203,22.75,6.972c5.968,6.084,27.573,5.16,16.663-8.613c2.604-4.286,3.745-8.334,13.12-7.544
		c19.229,4.855,39.07,4.013,59.948,7.446c2.893-10.793,14.936-4.883,20.349-2.803
		C1549.085,290.804,1553.838,287.507,1554.578,290.899z"/>
</g>
</svg>
