<svg xmlns="http://www.w3.org/2000/svg" xmlns:xlink="http://www.w3.org/1999/xlink" width="890.14222mm" height="820.31427mm" viewBox="0 0 2523.23779 2325.30029">
  <defs>
    <style>
      .cls-1 {
        fill: #fff;
      }

      .cls-2 {
        clip-path: url(#clip-path);
      }
    </style>
    <clipPath id="clip-path">
      <path class="cls-1" d="M667.83041,366.35671C289.10859,439.76373,31.763,576.31728,31.763,737.03512c0,236.76886,555.492,428.73126,1240.7254,428.73126,685.17078,0,1240.60485-191.9624,1240.60485-428.73126,0-160.71784-255.29632-296.65678-633.98385-370.052C2125.50839,440.32722,2285.534,559.70619,2285.534,691.408c0,222.10687-453.59319,402.19944-1013.04566,402.19944-559.50376,0-1013.09117-180.09257-1013.09117-402.19944,0-132.3856,159.71487-251.71836,408.43323-325.0513Z"/>
    </clipPath>
  </defs>
  <g id="Calque_2" data-name="Calque 2">
    <g id="Calque_1-2" data-name="Calque 1">
      <g>
        <path class="cls-1" d="M2104.55552,426.62237l-225.44617-59.63923,20.12685,47.88939c246.4333,74.83128,406.42169,197.46674,406.42169,331.79535,0,226.55736-453.56467,410.24-1013.01713,410.24-559.4922,0-1013.06252-183.68259-1013.06252-410.24,0-135.02352,159.71485-257.60785,408.42748-332.39392l-20.17531-47.91725L531.05451,401.8859,327.04589,507.11241C172.92058,568.262,31.763,717.7478,31.763,736.73307v56.47385c0,241.51,575.65591,437.313,1260.87781,437.313,685.17077,0,1220.45244-195.803,1220.45244-437.313V731.72307c0-20.67285-108.36023-153.19651-286.91093-224.11469Z"/>
        <g>
          <path class="cls-1" d="M667.83041,366.35671C289.10859,439.76373,31.763,576.31728,31.763,737.03512c0,236.76886,555.492,428.73126,1240.7254,428.73126,685.17078,0,1240.60485-191.9624,1240.60485-428.73126,0-160.71784-255.29632-296.65678-633.98385-370.052C2125.50839,440.32722,2285.534,559.70619,2285.534,691.408c0,222.10687-453.59319,402.19944-1013.04566,402.19944-559.50376,0-1013.09117-180.09257-1013.09117-402.19944,0-132.3856,159.71487-251.71836,408.43323-325.0513Z"/>
          <g class="cls-2">
            <rect class="cls-1" x="31.76295" y="365.52724" width="2481.41673" height="800.23932"/>
          </g>
        </g>
        <path class="cls-1" d="M1624.23912,293.08554l-2.14375-16.22589-6.48754-32.23365-4.2875-15.1376-10.77972-30.15323-6.53445-14.047-2.23522-4.15411-.781-1.89484-.19467.08122-7.69839-14.30731.16712-.1-2.20268-3.68355-2.10828-3.91809-17.3001-25.861-9.67267-11.84926-21.42811-23.57657L1519.6129,85.13238l-11.84457-9.70083L1493.4197,64.67264l.09294-.16624-1.23254-.6881-10.25552-7.68988-13.08766-8.68055-14.04461-7.57349L1441.22767,33.612l-13.83351-7.47029L1396.8469,15.18607,1381.639,10.84462l-32.19846-6.4031L1333.2193,2.26728l-16.22588-1.06015-33.25392.007-17.29541,1.07891-16.20243,2.186-31.15238,6.41717-16.26341,4.36256-14.98748,5.36172-14.17126,5.46961-14.81157,7.41869-14.16423,6.52742-12.84842,7.51251-13.85932,8.51167-11.99936,9.80168-12.91175,9.668-11.9853,9.84155-10.77269,10.775-21.43515,23.593-9.78759,11.99-17.22505,25.87746L1006.844,185.49226l-6.42655,13.94141-6.55087,15.35808-8.53747,29.88585-4.35082,16.43229-3.21651,24.16146-1.06161,4.69-2.15313,19.58225v26.628h.61891l.77664,11.98325-.30491.02316,1.08594,14.13843,2.10476,13.62859,2.14991,16.12826,4.35082,15.35573,4.28046,16.043,2.9459,10.25933,1.23606,6.49194.76374-.14513,5.90205,13.76287,6.48519,14.04227,15.10007,27.986,17.26023,25.87042,9.69612,11.8305,21.4328,23.58594,10.91811,10.89232,11.84926,9.71489,3.81606,2.85267,9.82748,8.67292,6.14422,3.77385,4.60032,3.76681,14.14546,7.68138,12.78041,8.51167,14.42222,6.68691,14.83737,6.38669,14.14781,6.49692,15.1845,5.40863,16.16256,4.32738,31.1946,6.41717,16.23995,2.16955,17.25789,1.06015h15.98664l17.28134-.007,16.23527-1.07892,16.20243-2.18127,32.25943-6.44064,15.13759-4.35317,15.12352-5.40159,15.01563-6.42422,28.07514-12.99619,13.76315-8.46946,12.81764-7.50576.58431.65,6.7602-6.09761,18.69741-14.00767,11.97591-9.84859,10.7938-10.77973,21.4328-23.60471,9.7618-11.97592,17.27665-25.88449,14.964-27.87579,6.5579-14.15016,10.75158-30.14151,4.25-16.14614,6.46878-31.17351,2.12968-16.21886,2.139-33.261ZM1439.39821,559.75026l-44.50742,15.89753-15.97726,3.20155-15.71927,4.20541-17.78737,2.22291.72181-3.62315,2.11561-19.05686,3.232-22.73454.05219-1.24192,5.60506-.71654,16.179-3.27426,32.26882-8.59846,30.12038-10.78208,21.14079-9.75506-5.82963,32.14717-4.189,14.63567-1.87608,4.91139Zm-305.21717.14806-4.55693-9.74568-5.14594-17.41035-3.157-19.83086-.19115-4.32884,26.214,12.08762,14.15015,5.43208,30.06878,8.56562,15.20326,3.27661,12.88478,1.70926.00117,1.52279,3.19452,28.69435,1.05076,11.70854,1.266,4.724-11.02307-2.21206-14.68491-2.08043-29.534-8.45538-13.60366-4.16319-13.53564-5.19285Zm-97.3081-399.2093,5.10372-12.35823,7.21023-12.36966,15.40234-15.4428,11.60533-9.49677,12.41451-9.33258,5.22246-2.979-6.00115,10.06935-5.38987,11.89618-3.93274,9.86148-10.96326,7.84205L1051.267,151.43853l-15.1845,15.17512-2.00536,2.47886Zm121.15-114.51708,11.5162-7.32956,5.87156-2.70637,5.60008-1.12142,9.17309-1.06484,2.35777-.00733-6.87747,5.46991-9.729,8.65709-8.67585,8.67351-7.56411,8.5322-6.69394,1.04666-19.48372,5.42739-13.51072,5.102,5.311-5.30836L1146.49968,54.571ZM1309.29973,8.38805l14.6081,1.01881,13.59428,2.09449,8.3296,1.91478L1340.94993,15.43l-6.62357,3.33055-5.32419,3.18045-4.77067,4.637-4.59241,3.42906-9.05816,14.72011-.07359.14806-16.12884.00908-9.23055.62155-5.377-13.43245-5.296-11.64052-3.19451-7.475-1.59491-2.19066,9.20358-1.32753L1293.54821,8.396l11.52617-.00674Zm297.2218,261.48917,3.17575,13.5591,3.30446,23.16406-.10057,1.2428-4.22651,23.138-3.06317,11.42239-4.189,11.46226-5.2679,11.62645-.6365,1.273-.00147-7.3149-1.11174-22.66183-2.85062-22.00628,1.57938-2.85091,4.34848-10.93453,3.32586-11.01663,4.25466-21.658.23367-2.46361Zm-300.18588,267.305-50.6666.03283-28.85471-3.8401-.00381-26.52187,1.789-33.19764,10.48713,1.4448,32.20315,1.04138,32.19846-1.05545,33.29613-3.22736,8.59053-1.48409.00323,43.60855-.75876,18.289ZM1027.97427,425.75414l-14.78342-21.09976-6.2014-10.28015-10.54987-23.1708L992.267,359.71771l-2.73011-9.93595,1.73094-18.2424,3.08047-10.247.7051,2.371,4.3133,10.78443,4.3391,9.736,5.5517,11.04243,6.504,9.743,14.19237,18.508,7.80481,7.79836-3.44226,15.4991-1.97693,24.43119Zm-44.5171-125.80578.38026-5.91994,1.00444-7.58756,1.51664-6.71007,2.05726,21.61312,1.94145,6.52829-2.86791,11.29017-2.17805,7.23339-.39257-2.24929-1.05077-11.42239V299.94836Zm43.03712-77.8036-.01173-10.37866,1.02966-13.52626,2.00712-12.11958,11.89206-14.69841,14.638-14.63333,15.8295-12.6819,3.46337-2.47915-.58783,2.16251-2.16486,13.06422-1.07891,11.9806,1.07187,16.26342,1.47911,6.88891-3.53139,3.0277-15.1071,14.04227-12.86953,13.97425-12.98446,15.154-1.1,1.54361ZM1108.14,90.70724l10.85683-5.82583,16.74658-6.30694,18.22421-5.0876-2.15078,3.21592-5.32889,10.639-3.39036,12.18965-11.78006,4.21215-16.17194,6.47112-16.31736,7.62744-9.904,5.96069.12343-.30813,5.13655-11.38721,6.23892-10.43964,7.32722-10.47248Zm66.35038-20.51544,20.701-.01408L1218.32,72.26987l6.06272,1.09592L1218.395,80.2116l-3.08806,7.47146-.226-1.15513-4.89732.98274-15.21264,1.10706-21.62748,3.27661L1151.17682,97.21l1.89953-6.97393,4.94188-9.92833,5.61708-8.40877Zm90.20869-12.93991,14.55123-4.14911.98216-.06656,5.56167,17.5848,4.66775,19.4462-7.0179-3.22266-13.022-6.54383-13.03606-5.40159-13.05013-4.31565-5.048-1.26332.93408-.83118,10.92984-6.01141Zm93.18507-39.3099,5.16118-.56878,1.85174.4257,12.41686,5.17174,11.49744,5.221,11.44584,7.28265,6.72736,4.4939-9.53722.69895-14.19941,2.17424-12.79682,3.225-13.39726,5.54-8.81511,4.01426-7.16215-3.90168-14.50432-4.54081-8.16865-1.19735,6.61127-11.02015,3.72458-2.78406,4.33907-4.29923,4.70033-2.81924,6.192-3.11008,7.027-3.00219Zm61.00538,32.02256,8.20442,8.188,7.32252,9.37011,1.83122,3.3071-1.80777-.34713L1418.20934,69.385l-25.786.007-17.39392,1.12816-5.02017.81769-6.19582-5.54144-8.12555-5.67572,4.23678-1.92827,12.54352-5.22568,12.19638-3.089,13.58021-2.07339,14.65911-1.06484,2.56652.18559Zm77.33593,44.59218,1.13374,1.8104,5.1647,7.23809,3.99666,8.03085,3.16168,9.5085,3.10069,8.11294,2.02648,8.04728.07212.63562-12.0105-6.4078-16.23527-7.55473-17.13123-6.44767-12.97713-4.55136L1454.836,96.06457l-3.32586-12.29491-1.66469-3.03707,16.31443,3.13558,16.76534,5.21865Zm100.85326,146.92635,1.94438,5.43.01642,9.00393-1.07422,11.35672-4.12331,20.9731-3.13354,10.37631-1.25863,3.18045-.477-2.79579-3.32117-12.112-4.22182-10.55222-4.2359-11.69446-6.80183-11.41536-3.0447-4.59446,5.69507-17.07524,2.125-8.55389,1.154-10.41619-.01407-11.66544,8.20441,13.36355,7.26154,13.43245Zm-47.96053,122.83115-4.85451-19.3307L1540.966,330.7161l-5.39925-15.13525-5.4529-12.69539,7.85-7.83911,13.3222-17.71292,10.78911-17.3048,1.82243-3.59793.42452.64031,6.23423,10.3552,4.16085,11.47634,4.13269,10.27077,3.11477,11.37782,2.13906,12.635.027.20728-2.9025,5.21074-5.04274,10.24966-12.66547,18.96069-7.19118,9.274Zm-340.15894,99.3871-28.49732-5.26321-27.41606-7.36005-26.25038-9.42406-3.12092-1.56032.7825-7.329,6.3515-32.82237,7.93029-31.81675,5.42006,2.32963,22.79082,8.63833,25.71092,6.40545,25.89387,5.37814,10.65923,1.23312-2.11238,18.26234-3.20859,28.90076-2.015,26.21432ZM1075.77765,199.97811l.21989,1.02468,5.43443,15.21969,6.41013,13.85932,9.96117,13.41134,3.80814,3.82281-14.71922,22.10625-13.93906,24.66251-7.54241,15.13144-7.811-8.39293-6.2225-7.26858-5.01694-7.98864-4.20306-8.38971-4.32268-9.72428-4.07406-8.13171-2.12264-9.52256-.48844-1.4665,4.0723-5.71765,12.703-14.80689,12.58573-13.68106,14.80219-13.74909Zm71.109-65.51368-1.04373-11.40128,1.01089-11.00958,2.07368-6.92967,13.36413-3.07372,12.45439-3.11712,21.01765-3.1781,15.36745-1.1352,1.4234-.27823-1.45858,3.529v11.35437l.204,1.06719-16.16959,6.29521-19.34769,8.59611-19.3172,9.6844-8.53834,4.74721Zm202.1457-70.2559,10.35286,7.23574,8.10121,7.06922,2.76764,4.61586,2.01241,3.96852,2.00771,5.02163.77517,3.887-19.52008-2.10681L1335.105,92.83018l-30.20628.01788,5.73376-5.25295L1327.365,75.007l10.40915-6.26,10.21213-5.10606ZM1527.503,210.7599l15.921,17.00458,8.32638,9.31852,6.28582,10.50766,1.29587,1.95435-3.51,6.96074-10.456,16.763L1532.70525,290.142l-5.87127,5.86746-5.37286-10.68269-9.607-16.04294L1500.91959,251.85l-11.81085-14.52719,1.974-1.97781,10.10424-13.416,8.55623-13.88278,4.02041-9.38125Zm-364.29664-37.66809-6.10288-9.14494-5.1389-9.25284-2.3522-7.79866,10.20714-5.67367,19.03105-9.54133,19.04044-8.46007,15.15137-5.91642,1.51311,3.897,6.86047,9.34666,2.87787,2.89693-2.69024,1.353L1203.95169,146.879l-24.60621,19.25623-12.66371,10.8627Zm20.67757-1.38616,24.31537-19.03576,16.84743-11.56077,5.16528-2.59642,5.71764,4.4423,9.305,4.70792-11.07818,12.747-21.37182,29.93042-9.43783,14.14224-2.79608-1.40405-10.4373-6.22485-10.3552-7.224-8.20441-7.156-.09646-.10818Zm242.35859,103.63063-4.81992-11.0694-10.72813-21.44454-10.73282-19.35943-10.71024-17.10309,2.66063-1.1094,12.40278-7.84557,10.97675-7.72829,6.40193-5.71852.63445.50222,23.24349,19.00057,19.04513,17.96388,14.679,15.58206-5.7194,5.75224-13.74439,10.578-14.72948,10.53112-16.69967,10.449ZM1209.87866,215.805l13.41837,4.46576,15.35807,4.38366,13.93671,2.15079,3.3801.44916-5.38781,26.23514-8.5234,48.01391-.53154,3.32264-28.04318-4.08492-19.791-5.17643-25.603-10.54284,9.36307-18.70973,9.485-20.00677,10.5616-19.03341,8.40818-13.46382Zm39.26533,86.8946,8.49525-47.85911,5.47108-26.638,5.68861.75582,16.45105,1.05781,32.76342-2.15607.76257,4.44524,10.95153,71.942-3.46014.66172-23.281,2.10387-24.18168,1.07188-22.03793-1.039-8.12848-1.18416Zm30.27606-147.42622,1.12963.1501,18.44469,1.07423,6.50923-.80919.48962,2.09684,10.80406,62.98557-31.52854,2.0728-15.75679-1.032-4.95331-.66,1.58992-7.74148,7.46794-32.01084Zm26.16506-30.8428-4.64108-20.8957,32.19552,18.27113,17.90787,11.756-6.87483,4.3737-14.312,5.12952-14.64973,4.17492-4.18313.52069Zm61.59643,19.723,29.61376,20.08886,19.20022,15.20357-5.15561,4.60619-10.52173,7.38116-11.45991,7.30376-3.87763,1.61749-6.50337-9.11827-9.80871-13.01495-17.28134-19.44152-12.41041-11.35437,7.99626-2.86146,10.63607-6.69453Zm-50.80732,10.184,14.51047-4.104,2.86,2.11971,12.51068,11.43881,16.86854,18.98884,9.5554,12.70066,5.50215,7.70924-1.94644.81182-13.60366,6.253-14.41988,4.15381L1323.86,219.451l-10.82576-63.08935-.36472-1.56354Zm9.49441,76.8185-.79745-4.64782,24.88531-5.13275,14.92181-4.28984,14.24163-6.50162,3.34315-1.39379.72856,1.02086,10.58271,16.899,10.56395,19.05921,10.578,21.13728,4.836,11.0908-9.15638,4.31888-20.08182,7.414-19.85665,6.29053-33.86725,6.47611Zm95.39655-56.703-20.21991-16.00161-29.87645-20.2765-7.35712-4.82754,6.00145-4.67861,3.33055-5.58688,1.58172-2.11121,5.06531,1.25042,36.80963,15.78026,23.22443,11.588-4.35287,8.75413Zm-50.66865-59.92269-3.40092,4.53612-2.85676,4.75894-6.86106,5.36582-20.59488-13.51395-27.60576-15.66239,25.64026-.00294,20.03022,1.04842,19.85724,2.142-1.4923,6.78248Zm-72.01965,11.4951,5.28373,22.62753-5.10079.63474-17.52527-1.01089-15.6489-2.07339-7.97162-1.83415,3.4402-3.95444,32.6309-36.41092ZM1264.305,153.26564l7.96254,1.0578-5.6593,25.48108-7.47732,32.06713-1.71042,8.329-3.8061-.50691-13.416-2.0429-14.78108-4.24528-12.54586-4.13974L1209.815,207.731l8.8802-13.3096,21.09506-29.56453,12.54087-14.41519Zm-97.80328,34.29766,8.826,7.71187,10.88059,7.60633,10.88292,6.48989,2.37478,1.19472-8.15164,13.05629-10.761,19.397-9.55774,20.14281-9.55774,19.1196-3.72928-1.53569-15.65125-9.3795-14.66381-9.45215-12.438-11.37787-3.70143-3.70143,12.36555-14.83709,30.75131-34.9755,11.65312-9.99635Zm24.90877,114.79619,20.63066,5.40863,28.356,4.13475-6.88334,43.0348-3.47567,30.04622-10.33908-1.19472-25.43884-5.2937-25.16678-6.246-22.23964-8.453-6.31309-2.707,8.29032-25.87247,8.45772-24.32007,7.89159-19.34331ZM1240.63,355.91807l6.87572-42.9785,8.57616,1.25042,22.704,1.07188,24.67892-1.08126,23.80172-2.16251,3.54076-.67784,4.98732,32.76138,4.264,32.84348.44329,5.6291-7.90654,1.16335-28.53016,3.19452-28.49263,1.07187L1247.08,386.95319l-9.85972-1.1393Zm106.57765,20.28354-4.29689-33.10148-5.041-33.11174,34.53746-6.611,20.42895-6.45,20.53214-7.58991,9.24961-4.36871,2.82951,6.489,8.52339,26.56,8.42958,28.495,1.41783,6.83-5.60213,2.93887-24.18637,9.485-25.38255,7.39758-27.4231,6.36088-13.59663,2.00068Zm102.15879-31.4362-8.52808-28.86323-8.6782-26.97514-3.057-7.02113,2.72864-1.28883,17.25789-10.775L1464.11,259.10921l14.1994-10.965,5.703-5.71442,11.07173,13.59282,10.64369,17.01162,9.44282,15.75211,6.31632,12.56668-3.347,3.34492-16.68559,14.66381-19.95047,13.6623L1460.254,344.72084l-9.82571,5.15444Zm54.11912-140.26085-8.22787,13.38085L1485.81484,230.45l-1.45448,1.46268-14.65882-15.56359L1450.314,198.06627l-23.42556-19.16153,14.28765-16.17048,5.06414-9.94387,6.34417,3.16549,19.06389,11.671,18.95131,12.62327L1508.056,193.804Zm-60.23109-61.22295L1419.626,131.4857l-37.274-15.98431-3.4531-.87134.84964-1.41079,2.20708-9.2458,12.24094,1.32049,18.94662,3.14057,17.92869,4.23121,17.9193,5.27963.662.23249-3.93158,20.682Zm-187.58069-7.63037-5.58571,6.42714-10.03505-5.01752-8.95965-6.92849-4.07641-4.09283-5.96215-7.94876-1.21466-3.04148,36.96883-9.75066,20.08651-3.164,9.82923-1.10823Zm-112.47941,14.81158,2.00127,6.67048,5.77686,10.54988,6.39372,9.60232,3.885,4.37047-11.77039,10.09632-31.31657,35.5689-12.00171,14.42224-2.76529-2.7653-9.1942-12.25737-6.12634-13.212-5.18112-14.4668-.93847-4.36138,8.1789-7.01175,15.82247-12.65141,17.93807-12.6608,16.90137-10.5616Zm-63.89909,146.99466L1093.0115,273.182l13.76051-20.68578,3.21826,3.23087,12.77571,11.69212,15.49645,10.05029,15.982,9.57886,4.3004,1.7717-7.97573,19.5368-8.55389,24.58277-8.1015,25.30839-9.0438-3.87792-19.98565-11.5209-17.917-12.65611L1071.36057,315.609l-.72973-.78426Zm-12.67955,25.4154.63768-1.27856,14.98777,14.01676,18.77305,13.28468,20.64,11.88679,10.40269,4.471-8.26129,33.13607-6.43828,33.31022-.53154,4.96974-13.28556-6.642-22.02855-12.55525-19.995-14.7248-15.84622-13.96428,1.99628-9.00246,8.42489-29.52231Zm164.43073,117.07364,5.36084-47.0039,10.12388,1.17126,29.04147,1.07188,29.02739-1.093,28.91482-3.22969,7.55237-1.1138,2.17659,27.62922,2.12968,34.95908.00088,10.75364-9.5469,1.64915-32.80359,3.1781-31.73405,1.04138-31.59333-1.00854-10.6862-1.47764Zm121.50883,12.17293-2.13906-35.24053-2.22291-28.18041,14.363-2.11824,27.90626-6.46644,25.8798-7.55238,24.84778-9.75242,4.14326-2.169,3.442,16.57947,5.31481,33.99275,2.34194,18.62676-4.43409,2.11883-27.32929,11.60768-28.624,8.46711-29.57155,7.414-13.91707,2.4041Zm108.651-41.90868-5.36172-34.27655-3.89815-18.756,11.70384-6.12693,21.61105-11.91259,20.58844-14.10794,17.1969-15.08835,1.5999-1.59755,4.2356,9.85826,5.19754,14.52075,3.19451,13.93672,5.93519,23.57451-3.73515,3.74306-18.86217,16.81695-21.19357,14.79516-23.05586,14.7248-13.10671,6.26325Zm107.792-218.04333.13662,1.229.02346,18.8059-1.02262,9.31382-1.98426,8.04493-3.76006,11.31567-4.64606-7.77637-9.02064-10.18634-16.22119-17.3048-15.82129-13.94053,4.08931-13.19175,2.2704-17.04915-.01495-9.81223,19.59484,13.53213,12.57166,11.45523,10.53111,11.65224Zm-53.11-31.211-2.07338,15.68644-3.12,10.11919-15.89693-12.34034-19.27967-12.84843L1456.065,149.67709l-6.37407-3.1822,2.58381-4.62584,4.20951-21.29355,10.56219,3.70729,16.80287,6.314,15.80839,7.3624,15.64421,8.32169.55382.38261Zm-71.19405-74.87177,3.021,10.99552,1.33926,13.39815-16.1391-4.75513-18.35556-4.32972-19.39226-3.21563-12.78245-1.37971.0044-.377-1.13521-6.03253-2.444-6.24127-2.261-4.47513-1.16159-1.94527.44857-.07418,16.81694-1.08125,25.31219-.00938,15.52694,1.02731,7.27209,1.3976ZM1310.3417,52.06139l14.387,2.06635,13.23308,4.07407,2.32786,1.263-5.968,2.98928-10.958,6.59778-17.31886,13.022-8.28886,7.59577-5.04273-20.97193-5.11369-16.16081,7.0182-.47554Zm-68.00892,25.41775,12.54351,4.14912,12.55289,5.19988,12.9,6.48989,2.11707.97044-6.50777.72767L1255.336,98.27633l-37.05356,9.77588V99.25439l5.92932-14.77405,6.72209-7.72829,1.86346-1.65766Zm-155.78771,56.1292,15.65124-9.42875,15.80136-7.37178,15.86233-6.34447,6.68749-2.40175-.68077,2.2751-1.2384,12.72646,1.15631,12.43329,1.56735,7.774-4.20364,2.33725-17.2274,10.76567-18.27581,12.9-16.08985,12.86015-5.31745,4.5587-.50163-2.33051-1.02028-15.44251.99682-11.15266,2.05228-12.44032,2.79432-10.29657ZM1024.761,257.30086l.91239-1.28121,1.168,5.2896,4.49859,9.21062,4.32033,9.72428,4.44,8.83769,5.32889,8.514,6.80886,8.00975,9.75213,10.47248-1.9441,3.9005L1049.28276,347.981l-8.58437,30.05707-1.098,4.94423-4.26844-4.25-13.70921-17.91463-6.16387-9.19185-5.25617-10.51-4.21713-9.46393-4.15616-10.3552L997.824,307.94315l4.84278-10.64985,6.3515-12.69363,7.346-13.65527ZM1039.275,439.507l-.005-4.98557,2.11091-26.39581,2.51492-11.34088,13.10584,11.54259,20.59547,15.15636,22.55393,12.87658,15.86117,7.915-1.87051,17.48862-1.06953,26.9423.36062,8.0851-3.36749-1.675-23.25757-14.7975-11.58891-8.43428-21.01766-16.75831-9.43578-9.44282Zm80.97667,49.18751,1.05311-26.40284,1.55856-14.59755,1.10823.55294,26.92352,9.67971,27.979,7.51251,28.93827,5.35234,13.64353,1.87959-1.82711,33.98953.01759,25.76048-11.65107-1.55065-14.6943-3.17106-29.52463-8.40378-13.64119-5.24445-27.60136-12.7335-1.76349-.87691ZM1352.55643,469.134l15.39911-2.66034,29.97966-7.51017,29.15405-8.643,27.85935-11.81173,2.35983-1.12993,1.01764,23.4892.00469,22.16225-.723,14.20909-24.622,11.36346-29.5434,10.57568-31.75751,8.45538-15.73333,3.18513-4.11658.528.725-17.21128Zm112.95143-8.42079-1.0836-24.80559-.22868-1.82711,15.64772-7.49374,23.56248-15.02033,21.64858-15.13994,19.35-17.22506.29875-.29963,3.13969,20.44009.00938,28.23465-.372,5.53763L1533.165,447.40273l-22.07077,17.90759L1486.78586,481.168l-21.8028,12.216.52949-10.1661Zm85.47965-88.11981,10.717-10.75775,7.63682-9.82044,13.04544-19.56582,3.34169-6.75141,1.52279,11.72378,1.0836,22.20213.0044,21.10356-3.61172,6.662L1570.04026,408.379l-15.01093,16.8407V399.07219Zm38.57166-178.09458,6.05627,25.26822-4.87885-9.0564-8.50463-13.864-6.348-7.61688-.66494-6.06419-2.2188-12.112-3.26957-10.85948-3.0016-8.2138,3.99608,5.95981,4.23824,7.09238,10.32178,19.19935Zm-55.19333-77.06478,7.2328,5.399,4.6446,6.35179,6.30459,10.54285,6.24361,11.46461,4.12332,11.26758,3.10539,10.26608,1.178,6.45852-6.91969-7.643-13.19086-11.99938L1522.62036,142.634l-.75113-6.58869-2.23757-8.92447-3.18044-8.38267-3.18982-9.60935-3.86942-7.84733,8.01619,4.49566Zm-49.00133-35.09746-17.47366-5.42974-22.512-4.32356-4.822-8.79694L1432.46973,53.403l-5.6505-5.65666.50925.03694,15.602,2.05228,14.45272,5.16705,4.27812,1.70867,11.65693,9.34079,13.38788,14.34952,2.52811,3.529ZM1439.70312,41.9079l.61481.39638-12.25766-1.66762-9.64482-.70159-4.1887-3.72664-10.04794-6.75258-11.72261-7.46091-1.845-.84378,8.27155,3.011.20112-.55295,21.64947,7.73914-.01437.0261Zm-202.63355-23.016,13.599-4.20541,11.04066-2.551.34888.35094,2.78641,3.69879,8.32169,18.70973,4.51442,11.26554L1262.424,50.443l-5.50861,2.132.42834-.56995-8.69227-6.53211-9.57885-6.36557-20.83237-8.84473-3.9735-.99888,10.33439-5.1603ZM1207.437,34.9325l8.23725,2.04993,19.71124,8.30293,9.11914,6.05128,5.304,3.98875-1.6685.64588-11.72729,6.41249-5.5215,4.86478-11.59566-2.0901-23.7853-2.15313h-21.30145l-3.37482.52773,1.65091-1.86464,8.37563-8.37095,9.43813-8.3944,10.40914-8.33811,3.68442-2.01211ZM1019.32891,222.54115l2.132,19.19289,1.7547,5.36788-4.4379,6.22808-8.636,14.02819-7.50078,13.92969-6.457,12.90941-1.01735,2.23669-1.71042-17.79882-.007-11.47868.9373-14.17537,2.99838-9.05641,12.59511-27.334,8.47884-13.79834,1.718-2.67411-.869,11.37108Zm-13.4043,215.52665-5.28431-11.63817-3.96793-9.49442-4.32562-22.71578-3.15229-19.95517-.00176-1.99834.59985,1.65121,10.8454,23.79234,6.52976,10.85479,15.05784,21.49614,8.643,10.79615,1.236,1.39028.0047,3.99725,2.186,23.83456,2.24695,11.08933,2.41436,7.25363-4.72933-5.31628-8.29823-10.34113-7.33659-11.4951Zm45.26824,64.10465-1.45038-4.10075-6.26941-18.74491-2.07573-10.27781-1.66967-18.25237,9.6888,9.675,21.44452,17.1242,11.90321,8.65709,23.76653,15.10945,7.2677,3.62667.38553,8.64009,3.29772,20.687,5.32653,18.12805,1.07276,2.303-6.46731-3.23409-12.6819-7.40227-23.10511-14.6474-10.49827-8.41082-10.517-9.45924Zm181.7103,85.33164-1.87548-6.88393-1.032-11.46929-3.18044-28.373v-.17357l28.37536,3.76447h34.09828l17.49243-.02815,37.50154-4.79324-3.164,22.14495-2.08276,18.85985-1.13227,5.6634-25.39956,3.17429-16.82163,1.06484-33.61511.03283-16.22589-2.15782Zm225.09455-48.20858,6.45-35.63223.09411-1.80688,25.95925-14.54332,24.81495-16.20244,22.64775-18.37433,8.78638-8.75971-.94317,14.03465-6.39372,31.72-3.50441,9.84213-8.18535,6.55732-10.48889,9.41937-12.66548,8.47649-11.43177,8.324-12.66078,7.40462-13.66934,7.346-12.72411,5.87215Zm94.916-80.32028,1.5398-22.67884,2.88374-2.87494,18.33679-20.59549,11.87359-16.96852-.27764,4.93631-2.09215,18.91145-5.88036,30.38514-4.055,6.39167-16.756,21.013-11.666,11.67688Zm39.36618-38.20989,2.14844-19.37115,1.05751-18.78508,1.76642-3.24582,5.38987-10.77974,5.42739-11.997,4.386-12.0111,3.22266-12.0064.40635-2.2279,1.00561,9.02269v9.3021l-4.11862,25.99942L1609.838,386.1745l-4.12331,12.445-5.38048,11.82816-5.15532,12.44266-5.12688,9.40412Zm19.81238-157.23728-2.90162-9.52492-3.0016-8.38795-.00059-.35357-1.10735-11.4696,3.54663,12.51567ZM1514.8,90.45423l4.69238,4.68007-.57376.5245,6.03575,6.60042-3.75127-2.57561-17.44083-9.76884-2.66327-1.09709-3.21914-5.14183-5.61972-7.81039-7.43188-7.98893,3.53519,1.98045L1503.3448,81.0888ZM1220.76863,17.881l.38114-.07857L1208.72,24.00265l-5.77687,3.15348-3.157-.39287-5.08379.012.96282-.48346,14.90773-5.32888-.11493-.32133ZM1085.90476,90.69112l11.59829-9.50381L1110.4148,71.517l11.53966-9.46158,13.58255-8.3428,2.05784-1.20616-17.0594,13.68635-9.87672,9.87438-7.20643,9.00862-3.47245,1.85555-15.30411,8.7603-12.90941,9.67267-.47877.39258,4.22447-4.64959Zm-78.92234,111.66031,6.28583-13.65058,14.75293-27.395,2.19711-3.30153-.06978.168-4.3391,13.04076-2.91863,11.70619-.87866,1.08595-9.63515,14.95934-8.72041,14.23929-.97308,2.11121,3.37483-10.12565-.25537-.085ZM1045.07267,517.471l-16.87793-25.30047-8.80719-16.33525.706,1.10383,8.64067,10.79615,16.15142,18.15533,4.46516,12.62414,6.124,11.50272-1.03434-1.13813Zm103.18845,89.41362-12.832-8.52574-5.33563-2.87642.15216-.25243-12.89035-7.87634-7.06716-5.78361-8.82215-6.5928-7.69691-6.781-9.51084-10.54753-10.46074-12.54352-9.35838-13.49108-7.09736-13.3014,9.13556,8.21409,10.97675,8.772,23.539,14.94762,13.00088,7.58287,14.757,7.37442,1.87226,4.01983,7.6462,13.09235,8.52574,11.71557,10.10893,10.17461,9.75945,8.66178,6.76841,5.25794-11.57191-4.98117Zm72.68576,28.45982-15.53368-4.15323.47115-.784-15.84357-9.51787-9.36308-6.22251-9.4217-7.32018-9.42406-8.36391-9.39121-9.40764-8.15985-11.18081-4.47426-7.66555.07652.03812,14.09152,5.41566,13.90622,4.264,29.83424,8.54217,15.21264,2.18362,14.29205,2.84534,2.18011,9.6888,3.1992,9.60231,8.94089,15.74507,4.25935,6.41718,6.08881,6.15683.10291.08151-.34683-.04633Zm96.04654,9.44516-32.813.007-16.77941-1.02731-.27882-.03724.3398-.67344-6.07005-3.06551-4.72844-3.7199-5.07557-5.07558-3.93568-5.91056-8.34984-14.59345-2.98342-8.90336-1.56325-6.99094,10.37748.677,16.46043,2.16486h17.03741l17.27665-.007,17.26258-1.093,23.24906-2.90251-.55909,2.797-3.06786,13.42072-4.29688,11.83988-5.20223,15.64422-4.08579,7.13958.25478.14571Zm31.49012-3.164-15.73333,2.11795-5.03072.33393,1.991-3.47919,5.57281-16.54253,4.386-12.1659,3.21328-13.94142,1.04519-5.24708,20.40168-2.54688,16.2165-4.311,16.01011-3.20155,44.642-15.91717-5.81527,11.63671-7.46794,10.65073L1421.751,599.29l-8.35921,8.37094-7.22871,8.24429-25.2512,18.93256.15949.21314-.83968.24188Zm116.86483-43.16585-13.45355,8.30762-27.62012,12.7593-14.706,6.29756-8.8972,3.17957,10.10746-7.5773,7.85728-8.85642,8.50933-8.51406,6.79245-11.13155,7.482-10.65543,6.80183-13.56614,2.37741-6.21928,19.4119-8.9535,13.97893-7.50781,13.07359-7.665,11.61471-8.439,12.764-8.53748,9.83128-8.78931-2.31174,6.49311-6.26238,14.65443-7.30845,13.55676-8.44834,12.67956-8.24663,11.3919-10.42791,11.4904-3.70084,3.33085-6.34241,4.75864Zm81.30767-69.7141-21.17949,23.32794L1515.058,562.49445l-2.646,2.1719.42717-.58871,8.70165-13.08063,7.62274-14.13609,6.48285-15.15167,6.355-17.83312,1.29586-1.0408,20.53684-20.55561L1574.94344,468.35l-7.59576,20.898-7.37882,16.88262-5.09433,10.26139-2.15783,3.21328.90476.60747Zm47.36419-77.92556-6.33743,13.65057-11.46489,21.37829,6.45968-17.82022,3.16168-13.932.25536-1.32108,2.48883-3.91165,6.49692-10.79146,6.56728-12.07912,4.5282-10.885L1604.556,421.279Z"/>
        <g>
          <path class="cls-1" d="M1025.48066,501.76216c2.40471,1.61867,2.46166-3.84636,4.5017-1.47017,1.34478,1.62424,5.01463-2.62105,6.27393-.86047,2.60418,3.69263,6.1942-.85455,9.16879,2.5188,1.96022,2.28506,4.855,3.21961,6.9805,5.52764,2.46175,2.60991,9.9949,7.34525,12.61055,9.744.73509.63266,3.46465,4.7183,4.194,5.51616,5.53894,5.85214,6.94076-2.56435,12.65621,2.80921,3.09423,2.90068,10.24,9.904,12.59917,12.51953,4.09712,4.4105.75786,19.614,5.53876,23.12405-.7123.54153-2.399,19.15806-3.04293,19.7848-26.23549-19.90444-48.47628-46.37923-68.93354-74.575-.68952-.92307-2.88911-4.92351-2.54713-4.63865"/>
          <path class="cls-1" d="M1432.34354,243.98145c6.895-.87751,10.73007.58153,6.18272,4.029-.33058.21077-.95159,1.85762-1.29922,1.93761-7.08892,1.9317-23.2609-3.72706-4.8835-5.96656"/>
          <path class="cls-1" d="M1354.88622,241.29049c9.066-1.53833,2.06838,9.37991,1.06549,11.36865-1.11123-.54709-2.53583-.2452-3.6641-.35337-.39876-1.23087.245-1.47016-.87177-1.84648,0-.26781-.09686-.4045-.09686-.62118-4.12008-1.66389-13.06088.78638-7.82957-4.51866,3.04849-3.0885,3.56706-.473,7.27673-1.18532.86047-.19929,2.31933-2.51879,4.12008-2.84364"/>
          <path class="cls-1" d="M1408.50355,231.78259c.47284,0,1.8917,2.09726,2.41027,2.331,2.50732.83195,6.274.35893,8.21146,1.34461,3.2937,1.53868-1.20235,3.10006-1.20235,3.22553-.40467,2.68365,3.03162,4.37606-1.01437,5.15688-5.38486,1.04862-12.31414-5.52173-15.511-9.03767,1.60685-.473,1.89188-.23373,2.90607-.90047.63839-.376,2.96328-2.21655,4.1999-2.11986"/>
          <path class="cls-1" d="M1312.23756,219.43418a20.86616,20.86616,0,0,0,3.76079,1.05454c1.28218,8.65579,3.5615,14.998-3.19109,19.36291-7.15153,4.6157-2.27933-5.664-3.16258-9.32252-1.70945-7.80123-4.79812-5.19688,2.59288-11.09493"/>
          <path class="cls-1" d="M1311.52525,206.11471c1.59555,5.32834.61527,14.7079-6.8552,4.952,2.26212-1.65833,4.63848-3.3563,6.8552-4.952"/>
          <path class="cls-1" d="M1101.67458,67.353c.376,4.28528,9.15157,10.09221,2.53566,12.8729-.25076.09669-1.5898,2.68956.58136,2.45027,0,0,9.55624-3.23109,5.42486-1.62389-1.36774.43858-3.39056,5.42469-4.291,6.57591,1.59555-1.29348,9.49364-5.70988,10.53635-6.83259-2.09116,3.31665-8.76968,19.19248-12.54786,18.69651-.09687,0,1.23087,4.66126,1.11123,5.04315-3.81227,8.25129-6.06308.11408-4.23955,11.10641,1.97726-.21112,4.62143,1.05419,8.42223.50118-6.79816,9.56216-5.01463,9.72737,1.00863,18.59983-.456.69526-3.48186,3.53855-2.57566,4.84907-6.66147,6.42219-7.20857,7.49934-12.3258.5471-5.23113,3.93191-6.08585,4.54753-11.76722,3.04293.0913-.90012,1.88057-3.75523-.23929-3.516-3.73819.33077-5.801,5.425-8.41649,8.74726-.661-.28485-3.778-1.835-4.4277-1.49312,2.51879-3.97157,3.68115-6.30811,6.42775-10.48488-1.339-1.362-2.87755-.097-1.738-2.85512,1.11124-2.71217,11.69888-14.70756,14.9298-19.16918,13.10644-18.315-10.35966,8.821-15.47672,12.17173-8.70151,5.65841-14.5766,10.04038-21.97307,19.16953,2.342-.9975,2.1996-1.47052,5.25392-1.81241,0,0-3.78949,4.28529-2.50158,4.90646-4.0459,5.74989-9.47076,11.77871-12.34275,20.08113,6.13142-6.99746,13.86422-2.05135,8.58178,8.4624-1.47016,3.04293-7.64158,3.92044-9.92091,5.94883-6.23411,5.48764-10.37679,14.02378-14.9071,21.5172,0,0-1.95448-3.97157-1.436-3.84636,2.16542-4.96906,5.59015-10.06334,8.41092-14.51383,1.29922,1.64685,2.342-5.06576,2.72947-6.06291-4.15981,6.22255-9.39668,14.41123-13.60206,20.88455-9.92091,15.16909-15.86434-11.80132-29.27841,12.26876,14.00664-29.14175,26.10436-52.984,34.84005-66.44922,19.7906-30.44079,37.02825-46.61295,73.21316-79.78365"/>
          <path class="cls-1" d="M1208.27763,124.67308c.59249,0,2.61548,1.53311,3.15684,1.72093,9.71014,2.5247,2.97459,4.23972,2.66678,8.8669-.33041,4.07451.90046,3.174-.68378,7.07188-9.12305.56414-11.63036,2.661-18.86745,4.38754-4.023-6.34811-2.23377-4.93463,2.50175-9.74406-10.20594-3.11145.40449-6.01213,5.23113-6.15438.5697-3.95487.42154-6.2855,5.99473-6.14881"/>
          <path class="cls-1" d="M1224.42405,103.09049c8.70134.46188,18.93579.097,6.63278,5.28243,0,.10261.33058,1.84649.268,1.94318,13.24295,1.94909,9.08323,1.28792,3.92617,7.4423-2.52452,3.04293-1.362,3.04293,2.75791,4.3138-5.44764,1.51573,6.73556,8.9862,7.89809,9.78962-1.16253,2.667-.33615,3.70967-1.51016,6.47923,4.33658,2.31915,17.08965,5.68137,8.70725,10.31411-3.3963,1.85762,2.09134,1.43017,3.21961,1.71537-.14242.45005-.5584,1.9543-.5584,1.9543-6.98632,5.65876-16.34883,2.17134-25.79673,2.99737-1.151.06852-7.11727,3.516-6.30254,3.01441-2.06838.26225-13.80726,3.49891-11.05492,1.41348,2.24524-1.858,6.05751-6.80964,8.79837-7.71011,2.70678-.91159,6.05752.38189,8.86672-.55857,0,0,1.57277-1.11088,2.09708-1.44164,0,0,.3532-1.53277.4958-1.95431-4.7583-.33076-12.964-.61561-16.57665-.80378,4.75812-3.07145,10.51357-4.8835,2.832-7.949,9.05488-1.64685,8.46222-2.63844,13.43685-6.58183-.7123-.26781-3.55577-.67787-3.93192-1.0768-.83194-.946.22225-2.42767.36468-3.18553a59.37573,59.37573,0,0,1-6.90077-1.48164c.758-1.58425,3.18553-6.08587.51858-7.80123-.44449.2852-2.45027.15407-2.96885.25076-.33041,3.69854.51858,6.274-2.68956,2.71252a37.86971,37.86971,0,0,1-2.684-3.69819c1.14532-1.06567,5.72693-4.2512,6.08586-5.49321.34189-1.56129-1.21366-3.63559-.62117-5.08871,0,0,4.3138-3.92044,4.69-4.79829"/>
          <path class="cls-1" d="M1333.92917,16.356c.5184,4.66717-19.9046-1.51573-19.05561,1.8124.67821-1.65276,2.2395,11.7954-4.58144,3.78932.11964.66674.188,1.39608.27911,1.92022-12.41675-3.68115-30.07036-16.793-38.81744-11.18014-4.37067,2.667-3.6641,13.84153-7.55619,18.02978-1.077,1.09419,2.49027-15.648-16.85-13.74449-15.65932-8.37094-.25651-12.514,1.22513-12.867,7.08875-2.42767,82.62116-12.588,85.35646,12.2399"/>
          <path class="cls-1" d="M1171.98664,54.27c.05686,2.45619-.1426,3.67558-.07408,5.14018,6.41627-.7123,10.61043.61527,15.89843-.33041,3.533-.56414.02852-2.251,7.44785-1.09419-.8262,3.78375-.75212,4.53014,1.76649,7.61863-2.94606,1.36757-16.20049,6.88964-21.92742,6.50775-2.40471-.18816-7.85235-3.48742-10.4167-4.519.473-1.44721.8262-1.16236,1.05993-3.23074-5.86935-2.33655-3.89209-2.28507,1.90892-2.73548-12.65621-1.11679,1.48164-5.92065,4.33658-7.35673"/>
          <path class="cls-1" d="M1440.22719,31.13971c12.00652,6.01179,45.16554,23.61968,70.78559,46.7326,39.564,35.76879,84.21114,82.4447,103.50587,160.59263,3.12848,12.79847,7.46489,31.871,9.89812,47.952-1.10549-.38188-4.04008.7123-4.95184.09113-5.44208,5.09427-7.88087,3.04884-14.31436,4.855-.684-4.75794-1.78371-5.89213-5.47634-7.77827-1.70371,2.291-3.81209,4.55866-5.516,6.67852-2.15394-5.00872-7.38508-8.08608-12.223-10.40523-1.56146-.7123-4.05156-.42745-5.13427-1.48164-2.29654-2.14247-3.71541-6.46776-5.613-8.4165-1.47016,3.60707-3.03719,4.42754-6.35941,4.21677,2.23377,9.767,6.83242,15.87583,12.16042,22.32654,0,0,4.45623-1.94909,2.07986-2.00022,0,0,3.1.26225,3.66985.38189,1.4246,4.04565,5.66414,11.3057,10.44522,5.51581,3.45316-4.2738,3.67541-7.18561,8.26832-10.70156.38189,8.5591,1.23088,13.17479,8.49631,11.31718,1.63555,1.57276,2.67826,5.33947,4.62144,6.52479.56987.376-2.25081,6.41627-2.57566,7.083,4.51883,1.90318-2.18246,6.21107-2.60991,6.49627-.15947,7.539-2.06282,4.32494-3.96044,8.445-1.983,4.00008.22225,5.94326-2.50731,9.56181-1.89744,2.49027-6.65574,3.89783-8.30815,6.32515-1.4246,2.00021-1.4246,6.46218-1.75519,8.89542-1.06549.18781-2.01152-.42745-3.59559.28485l-.68952.66082c-2.08,1.66981-2.8492,4.80978-4.74107,6.61592-2.76382,2.71252-6.92929,4.32528-9.65884,7.0378-.84917.74638-.89473,2.80329-2.02874,3.36187-1.49851.66117-3.47021-.1426-4.97463.35336-1.85761.51858-4.78664,2.63844-7.01467,3.6582-2.92328,1.5046-3.95469,2.99737-5.41929,5.51616-.92881-.27929-2.6327.19373-3.57855.28485-.70656-1.56129-2.98032-4.48457-3.19109-6.08586-.228-1.46425,1.31626-1.90318.51284-3.72671-.06835-.18817-2.76939-1.54982-2.93477-1.69242.56431-5.8977-.28485-12.19468-3.81209-16.081-1.25366-1.43573-4.12008-1.47017-5.17984-3.35039-2.78086-4.92942.188-10.25742-2.969-13.6478-.13668-.07965-2.71808-.29077-2.9118-.433-2.13691-1.12271-8.21146-7.68158-9.29417-9.92109-1.38461-3.04293.37041-7.47047-.62675-10.02926-.7123-1.9543-6.05733-2.67252-6.81537-4.61569-1.70945-4.43311.9688-7.8068-2.84347-11.0605-1.54424-1.31643-7.5788-3.21961-9.049-4.382-3.64707-3.117-1.94318-7.39674-3.60151-10.49079,0,0-4.9461-4.23973-6.94058-6.15438l-1.05993-2.23951c.28485.07408.54709.07408.87177.1426,1.82353-6.53627.45023-11.152-1.91466-17.57416-.42154-1.16792-3.43038-6.66113-3.43038-6.66113a29.581,29.581,0,0,0,6.60443-10.61043c.52432-1.51608-.59839-2.9292.52432-3.80115.92307-.95715,3.761-1.15088,5.01462-1.698.02278-4.79238.54136-6.19994,3.00867-9.62476-15.17482-3.93192-6.82094,3.51594-15.3002,2.97476-5.37356-.4045-5.65859-8.67874-9.61328-10.73008-4.99167-2.61548-7.83531-.56414-10.11464,2.61548-4.023-3.97748-4.92333-1.90318-11.29421-2.42176,0,0-2.79216-.889-2.98589-1.02567-5.18557-3.10588-4.35363-12.41692-10.05777-15.05536,2.36489-.85455,4.023-1.74354,5.72692-2.38176,0,0,1.45313-2.75808-.99158-3.08849-.30763,0-.75786-.8323-1.0655-.87786l-.9288-2.42732c1.70945-.63822,2.701-2.26246,4.50161-2.56992,3.67558-.55857,5.87509,1.305,8.33684,1.97727.188-.34189,1.72667.07408,2.18247-.1426.09686-.09113,1.15679-3.1,1.23087-3.24223a93.49129,93.49129,0,0,1,10.55913,1.7665c.14243-.17112.35337-2.40472.56988-2.54731,1.44164-1.20793,7.15152-2.28507,10.20576-1.97727,2.96885.23929,10.29706,3.76671,12.31432,5.4706.9175.8716,1.34478,3.66968,2.46175,4.28494,2.07986,1.08862,4.80942.33076,7.50472.75786,1.25939.19373,4.71256,2.09726,5.35651,2.14282,6.0803.33041,8.57039-3.49334,16.02955-4.23972-4.2851-4.50753-7.29395-11.29422-12.17745-15.52247-1.96022-1.738-4.39919-1.92613-6.19977-4.023-3.573-3.99452-5.53894-3.32778-10.84415-5.59024-1.7778-.78047-3.15684-3.3963-4.76386-4.15416-6.13142-2.85477-16.83315-3.95453-23.54019-5.39061.26225-4.03452.07409-3.5615,3.22536-6.53592a13.77858,13.77858,0,0,1-.14243-2.52436c-.99715-.27928-2.82068.17078-3.74393.26781.18817-.62117-1.35052-1.07158-.95159-2.50175.53006-2.01169,7.37378-3.20813,1.09976-5.68693-3.27074,2.09691-5.90344,5.37913-9.19713,7.56751-1.89188,1.19644-7.62454,2.2395-4.1599,4.05156,1.17957.59265,2.268.99715,3.85783,1.61241,0,0,2.19968,2.90068-.42745,3.18554-4.05156.49561-8.8495-3.6582-13.00366-2.95181-3.3563.58118-9.20861,6.50183-11.978,8.43353,1.91466.90047-5.44781,21.81945,7.37934,26.77147a27.53083,27.53083,0,0,1,2.33063,1.715c.84916.06852.56414.99159,1.134.7123l.61544,1.71537c-7.02614-.35929-10.98658,7.3623-14.77589,9.89813,1.80057-6.8552-.66674-6.19438-7.32248-7.78419-2.7466,4.72978.26207,3.25962-7.76122,4.37085a13.61569,13.61569,0,0,1,.15946,1.95431c1.63555-.54119,4.35937,4.54752-7.24265,2.31358.56414,1.06011-.28485,2.07987.28485,3.157.56431,1.16236,4.05174,1.78945,4.66143,2.92329.83769,1.49312-.54709,5.4706,2.08561,6.79817,1.06549.53561,3.174-.59266,4.43327-.33042,1.23087.28485,3.402,3.48151,4.78107,4.09713,1.13958.58674.4558.473.832,1.90318-5.40208-1.76058-17.93864-.98011-22.92475-.95716a13.71425,13.71425,0,0,1,1.11123-3.85783c-1.54424-.416-8.99784-1.06567-10.56486-3.07737-.63248-.866-.30207-3.4589-.42172-4.4331-2.48453-.58709-5.00314-2.04578-6.8665-2.707.75786-4.422,2.5814-7.18562-.84916-9.47069-2.7066-1.80058-5.55024-1.47016-9.13453-2.51288-6.39349-2.05169-18.32609-8.90689-21.45441-14.46827-6.13716,1.90318-5.23113,2.9459-10.23445,1.38461,0,0-.75213-1.95466-.9629-2.47323,1.33905.51857.47284-1.01976.64379-1.38461-2.71235,0-3.71524-.8549-7.41934.51858,1.91466,3.85783,1.57277,5.08871.23372,9.56772,2.855,1.54981,6.94059,2.94589,9.36826,5.08871,2.93458,2.47879,3.93174,5.92066,7.4249,7.76123,3.23109,1.70354,5.20261.21077,9.77274,1.20236,3.61855.84307,8.01774,5.58989,11.6761,6.8552,4.53588,1.55538,9.13453,1.61242,12.9468,3.54412l-.52431,2.56435c-4.30789-.89455-8.49631-.61526-12.57639-.42154.39893,1.0142-.26781,1.56129-.5071,2.61549,2.21673.66117,5.24818,1.89761,7.596,2.61548-2.7979,6.0403-3.94339,10.84416-9.71588,14.742-.54135-1.04306-1.44164-1.18531-2.33063-1.76649.56414-1.98874,2.211-4.27381,1.51016-7.12893-.946-3.74932-6.80963-9.41921-10.56486-10.70156-1.08271-.376-2.80364.16521-3.74393-.376-.28485-.19372-.16521-2.2395-.21651-2.52435-3.28222-.889-7.30543-3.25962-9.95517-3.70411-4.06286-.866-6.88354.59266-10.39392-.63265-.35319-.09113-.73508-2.37619-.98567-2.47288-3.01459-.89455-5.87509.66674-8.24-.66118-5.07149-2.97441-4.1712-13.6078-11.7387-13.88709-3.818-.14225-14.85572,2.14282-15.86435,4.31972-.61544,1.09975.56988,3.83488-.23372,5.10575-.4045.5697-3.61837.5697-4.34215.92307-2.00578,1.16827-2.80921,4.496-4.47883,6.10847l-.63822,1.31644c-8.1146,3.06-17.18652-.70083-25.67135,1.82353-5.35078,1.57277-3.73245,6.9978-1.66963,10.99789-1.89188.99159-3.94339,2.75808-5.50468,3.63559-4.45623,2.35358-17.46563,5.824-18.725,9.62476-.42171,1.19644.85473,2.61548.456,3.80079-1.45886,4.23973-2.9005,3.909-.97454,10.38263-1.339.45006-3.16831-.29633-4.382.296-2.496,1.12862-7.18579,11.16344-12.51379,11.85279-2.75807.35893-6.55887-2.56992-9.08322-2.56992-6.23976-.02295-10.41671,3.20814-16.21771,4.45606-2.35915-2.35915-6.633-4.59866-8.257-7.1171-.59266-.92342-.33042-3.30518-1.24218-3.82375l-4.46753-.91159c-4.422-.07409-8.75856,1.61832-13.07792.91159a36.0637,36.0637,0,0,1,4.47327-10.58748c-4.82647-1.17419-3.43039.353-5.62433-3.44778a68.38911,68.38911,0,0,0,11.31143-15.00945c2.80347-5.11723-.76934-8.39945-1.95465-15.30022,1.34478-.097,4.99184.18782,6.55887-.42745,1.03141-.45006,1.03141-3.117,3.21961-3.493,2.20525-.3078,2.79216.7123,3.89209,1.1168,2.05134.473,5.16836,2.47288,6.95763,2.661,2.9005.18816,4.60439-1.20235,6.55887-1.13384,6.05751.21077,13.95543,7.539,24.04728,3.46447,2.37637-1.03715,2.56436-5.53877,3.4476-7.989,1.49869-4.17712,2.023-4.42788,7.02041-3.65854-3.90914-6.22812-6.17142-9.42513-12.66178-12.61031,1.527-3.14,2.00579-5.28244-1.58424-6.9978-2.7979-1.27644-7.54472-.8549-9.94369-2.51288-1.983-1.33348-1.84057-4.71274-2.19394-5.60729,3.59.473,8.49074-.7749,13.43685.33042,6.92928,1.60685,7.37951.376,2.456-4.59866,1.25366-.82638,2.58714-1.20236,4.13138-2.23359,2.25655,2.92328,7.11153,6.5474,13.24887,4.87759,3.85783-1.15088,1.76075-3.51594.85472-5.84657,3.2424-2.43323,4.855-5.92622,7.955-8.25685,1.46442-1.16236,3.41907-1.06567,4.88924-2.211,2.49583-1.90909,4.99741-7.89792,8.01756-8.84951,3.08866-1.05419,7.77844-.74082,10.32557-1.385,0,0,.188-3.17962.30207-3.89192a10.6413,10.6413,0,0,1-2.96885.27929,62.19542,62.19542,0,0,0-.1426-7.75567c3.77819-.6097,10.72451.07408,13.41408-.849,2.21672-.76934-1.55-3.38482.26224-4.479,1.97726-1.16827,8.01756-1.58424,10.27984-1.92614-.11964-5.77805-2.16542-7.33934-4.95184-11.2257-5.23114-7.38525,10.61043-3.5389-.68379-5.68136.14243-.66674.51841-2.6214.51841-2.6214,6.32532-1.99987,9.80126-3.74932,8.56482,2.66139a34.10144,34.10144,0,0,1,4.63848.98568c0,.22816,0,1.778.21651,1.94318-1.17384,1.69241-4.22251,3.64706-4.64422,6.01769-1.06549,5.44764,5.65284,3.037,7.47064,6.52444.30206.70674-.188,1.92614.26207,2.51879,7.65306-1.07714,11.29421-2.33063,17.9842-.473,3.96044-5.02019,12.736-7.516,17.54545-12.0406.80917.28485,2.09691-.37633,2.96885-.18816.718.1652,1.84057,2.33063,2.50157,2.39914,5.02593.45006,3.52725-2.77512,3.52725-2.77512l-.14817-1.24792c2.44471-.1426,5.69285.7123,5.18-.9975-.23372-.7123.37041-.809-.82638-.56414l.54136-1.9543c1.55572.18781,1.93187.75786,3.84652.42154-4.57587-2.75217-5.54467-5.74954-6.462-12.35989a37.97092,37.97092,0,0,0,3.65262-1.48164c-2.87772-5.801.96881-8.46206,8.08034-9.45921.906-.097,5.28817-.28485,5.28817-.28485a26.42207,26.42207,0,0,0,1.93744-3.33926c4.627.7749,7.14.18781,2.09134-2.0343-15.86434-7.04893-13.984,12.95219-29.9622,3.13962-2.40488-1.43017-.17111-3.18519-2.07429-5.65842-2.51862-3.0944-8.62743-2.47879-6.91224-8.468.84916-3.10554,4.60439-7.07154,6.55887-9.92075-4.92907-3.49333-3.44743-4.59865-8.55891-2.05169a11.83715,11.83715,0,0,1-3.01441.19408c-.84917,4.023.34745,7.68123-2.76956,10.34819a10.43332,10.43332,0,0,1-5.03741,2.8492c-1.06549,12.30285,3.69837,11.18014,13.12348,16.457a26.22182,26.22182,0,0,0-1.88039,3.9434c-3.56725-1.13975-5.34522-1.27087-9.90961-.66118.03426,0,.19947,1.76093.22225,1.9317,2.2395.07409,9.07748,1.2994,9.21434,1.2994-4.28528,1.5272-7.64158,2.58139-10.86693,4.52457,3.79523,5.1854,8.20572,11.18014-.78064,14.70756,1.17957,1.53834,1.44164,3.1111,1.91465,3.72671-5.345.30781-11.29421.59823-12.3371-3.06-.44432-1.53312,1.305-1.09419.42745-2.52436-.94028-1.74388-4.35362-2.2395-5.59006-3.4989-2.42749-2.684-3.16275-6.21142-5.4706-8.5817a13.51115,13.51115,0,0,1-1.738-2.4847c-3.28222-9.17436-1.35052-1.80058-8.05182,2.4847-1.31626.78047-2.72382,3.04293-4.14268,3.41891-7.87531,2.1369-12.09207-3.27666-10.753-8.22868-3.81209-2.61548-4.74108-1.9943-.47284-4.4731.376-.28485-.58135-1.69241-.18816-1.88057-1.57833-1.61242-4.855-2.47288-7.23691-3.40187,3.20813-2.04578,3.53872-4.1312,2.96885-7.23709,2.09707-.376,5.784-.25633,8.21145-1.15679a21.926,21.926,0,0,0-.31337-2.52436s2.38193.28485,3.08849.38189c.31338-.73526-.21094-2.308-.33058-3.16258,2.9518-.8549,5.0261-1.56129,8.79837-2.42766-2.211-3.3963-1.97726-2.84921.85473-6.46184,2.68974.42745,4.83238.946,6.09734.27928.78064-.42188.188-4.47344-.50154-4.42788,1.23662-4.60422,3.90357-5.15688,4.79812-11.81279-2.51861-.50154-4.84924-1.74354-6.34236-2.14247a20.161,20.161,0,0,1,8.41666.14225,14.79441,14.79441,0,0,0,.21651,1.858c.74638.30745,2.27933-.5471,3.01441-.21112a48.55675,48.55675,0,0,1,3.91487-5.94883c4.382.75786,7.4762.66639,9.64736-2.5247.97437-1.43017.39893-1.57277,1.09976-3.9034a43.489,43.489,0,0,1,11.56775,1.2594c1.41887-1.40165-.0113-1.64094,1.32774-2.63253,4.1086,1.60685,4.55309,1.65833,4.26807,4.79238,4.49048-1.18531,6.98058-3.5615,10.5193-1.89205.35894.19373,2.399,2.3762,2.54158,2.42767,1.93743.33041,5.16261-.83786,8.32536-.53562,8.41649.826,12.77585,2.35915,18.10941,5.96031,1.74371,1.20827,4.8722,5.7784,1.89188,3.6815-.21651.1652.18816,2.23916.21094,2.52435-9.95517,1.76059-17.574-.496-25.3978-2.90624,1.27644,1.90874.59265,3.35074,2.70678,4.29641,3.4076,1.57868,7.21987.82082,10.1602,2.55288,3.117,1.88057,4.98036,4.519,8.90654,5.86953a45.79039,45.79039,0,0,0,13.88134,2.33063c-.83194-.94011-2.0856-2.33063-2.58139-3.04293,0,0-1.28218-1.74945-1.68667-2.39915.54709-.23929,2.75234-.54709,2.94032-.87751.11965-.23372-.45-1.65832-.188-1.88057-7.03189-2.44436-4.78091-4.27937-4.74108-9.8637-5.9377-2.42767-1.493.18781-4.90072-3.533-1.8291-2.03465-11.19735-5.37391-3.56151-4.87237,4.83795.2678,3.70411,2.3195,6.57035,4.0686.7123.4504,1.11123.1426,2.29081.496,4.15416.94011,6.39349,2.2395,11.75574,3.12849a24.582,24.582,0,0,1-1.66389-1.858c-1.11123-.76343-2.33636-1.72058-3.28239-2.28507,1.90909-3.89748,4.37641-5.13983,4.61013-7.949,2.82069,4.05156,6.99189,6.25663,10.02351,9.56772,0-.25077-.18816-2.5247-.18816-2.5247-.718-1.99987-2.94032-5.86919-3.795-7.98348.85473-.09669,8.35388-.54118,8.35388-.54118-2.76955-.42154-3.80653-2.31916-5.60728-2.88921,0,0-2.34767.62118-2.96311.8549-1.17957-4.09712-2.8379-3.43629.92307-6.42775,6.39367,2.00022,11.27717,5.51581,18.18367,6.59853,3.89192.54153,1.13958-.30746-.87194-1.25905.80916-.41041.29633-.59857.718-.67822a22.17575,22.17575,0,0,1,4.54161-.25633Zm49.92384,247.6412c-.473-.4271.59248.98046.5184.83786,1.89761,4.46753,8.14885,28.77134-.54136,23.39777-3.4189-2.09725-7.368-6.13177-10.08611-8.7243.27928,10.62748,6.48479,6.593,9.53919,12.58214.73509,1.37313-.18816,3.56707.38172,5.05428.23372.56413,11.317,10.599,12.35988,11.01493,1.47016.58153,3.85783,0,5.0887.86638,2.13117,1.44721,4.88351,8.58761,7.22561,10.84416,1.966,1.85761,6.633,3.02,8.26259,4.99724,1.49294,1.91465.946,4.43936,1.795,6.77555a177.85541,177.85541,0,0,0,7.59028,18.292c.58692,1.25349,3.1398,2.51845,3.73819,3.516,1.94318,3.23074,1.29922,8.18277,4.23955,10.27411,1.89187,1.53277,6.27976.809,8.04625,2.61548,4.21676,4.48458-.34763,3.37926,7.4136,6.32515-.33059,6.05178.661,10.99233,2.929,14.85016,5.70971-3.13406,6.27959-6.47332,9.59606-8.32537,1.4246-.91159,2.94033-.13669,4.17694-1.00306,2.12543-1.53834,1.9317-5.60138,3.949-7.22527,4.59865-3.85783,9.56772-3.1344,11.71592-9.71032,0,8.85542-2.37045,15.511-3.21387,22.86772-.14243.63822.84342,3.3963.28485,5.61876-.75786,2.77513-4.26233,6.12586-5.30522,8.57614-1.567,3.51594-.33615,6.41627-1.65815,10.183-.8775,2.28507-4.194,7.31674-5.96621,9.88666-1.44738,2.194-5.14,4.09713-6.7013,6.177-2.439,3.04328-3.15127,6.55331-5.21409,9.85849-2.05708,3.39629-6.05734,6.80964-7.93217,10.1089-1.41886,2.63844-.89472,5.305-2.41045,7.77827-1.21383,1.892-4.14842,3.613-5.328,5.45912-2.54157,3.88636-4.1712,9.09471-5.70988,11.80723-.64378,1.13384-2.72382,1.90875-3.36778,2.80365-2.38749,3.16257-3.4589,6.8552-5.77249,9.92074-.63822.87751-3.74375,2.56992-3.97747,3.49333-.661,2.23916,1.39051,2.76365.946,4.95168-.11964.80934-2.15968,2.14282-2.63269,2.80956,2.18246,1.02567-.42172,4.56422-.39894,5.11131a15.085,15.085,0,0,1,.06852,1.78945c1.35609,0,1.52147-.3478,2.75217-.9175-2.02282,9.4992-2.44454,18.08681-8.33667,25.40355-4.439,5.38469-12.08059,8.51319-17.19782,13.51077-1.36756,1.33348-1.34478,3.12258-2.55861,4.66126-2.52436,3.14-6.65574,5.07167-9.784,7.8068-1.50443,1.28791,2.1369,15.32317,1.87466,15.65358-3.43039,4.09156-5.25392,12.79882-9.63589,16.26885-19.37472,15.31761-42.39616,24.97054-69.62323,35.1024-5.02019,1.89762-16.52534-5.328-23.15256-5.56172-2.51879-.09669-7.86383-4.09713-10.00073-5.37913.23929-3.27666.16521-3.43073,1.48721-6.54775-6.25681-1.06532-5.8351-1.86909-8.09164-7.459a40.35325,40.35325,0,0,0-4.75813.50154c1.31053-.7523-2.49027-5.75545-2.58139-6.19438a6.60293,6.60293,0,0,1-.11964-1.84614c.70656-.23929,3.02014-14.41123,4.06286-16.2692,1.25365-2.40471,5.11149-3.81227,7.7727-5.23687-2.9405-5.49321-1.55-10.58748-4.2112-17.36861-.23929-.63822-4.2225-3.35073-4.46753-4.03452-1.28791-3.68671,1.32774-5.21391.68952-7.73827-1.16827-4.48493-23.45463-17.26044-28.78836-19.65959.16521-1.23644-.70656-2.56991-.34763-3.75523.66674-2.28507,9.87535-6.2455,11.00362-9.28287.8149-2.57548.21651-5.04315.73508-7.03745-1.17957-.88307-3.86913-1.57277-4.43327-2.84921-1.72093-3.72115.92307-4.28528-2.05152-6.78668-4.39918-3.78967-12.21728-3.14-20.34891-.75787-1.8691.49562-4.41067,2.97442-6.65017,3.16258-10.88954.849-6.37071-3.86375-9.37382-9.44808-.03408-.05113-10.55339-8.16016-12.29136-10.44523l-.78082-1.18531c-2.05134-.49562-6.23976.42745-8.29684.75786-9.11175,1.43052-12.468,6.01769-14.8785,12.20616-.44449,1.16827.63248,2.47323-.33059,3.214-2.1882,1.59537-5.75527.80343-8.1772,1.99987-1.65815.7523-2.99736,2.95181-4.52457,3.613-7.368,3.22518-16.22327-.42745-25.02165.96863-1.91466.27929-7.63584.72378-10.33114,1.54981-4.55309,1.51608-8.1772,8.61057-15.03814,8.44536-7.784-.23963-35.01665-21.85909-42.44172-26.47479-4.17694-2.61582-9.38529-3.8067-13.51094-6.53626-4.29658-2.85477-2.63843-6.9519-9.10026-10.82712l-.889-1.28757c-.87768-2.01169-.14242-3.70411-.06278-5.75545a17.58965,17.58965,0,0,1-7.35082-2.55288,81.16821,81.16821,0,0,1,2.97442-9.334c-4.12564-3.92044-7.2597-5.44765-10.04056-11.41387.96881-1.0601,4.78108-4.35936,4.9235-5.56728.30763-3.81228-3.86931-5.49356-4.64421-8.04052-1.03715-3.2311,1.19661-11.52238,1.36182-16.24068a13.69829,13.69829,0,0,0-1.527-.5697c-.02278-.18225-.02278-.35337-.06852-.65526-4.644-5.328-2.56991-.1426-2.45027-7.51638a9.1647,9.1647,0,0,0-1.16236-3.16258c-.67248-3.59-2.8492-7.68158-2.80364-10.143.09686-3.90931,8.84394-11.32273,11.69871-13.84153,1.97169-1.74388,6.10307-3.43629,7.1117-5.76692.50136-1.18532,3.37334-11.75019,3.47038-11.89244.11965-1.47017-1.21957-3.74967-.73525-5.08871.99732-2.667,8.2798-4.74682,10.70746-6.65592,6.22829-4.90054,11.93243-12.0406,17.87587-17.5112,2.59269-2.42732,4.92906-5.37356,7.6814-7.75532-3.345-3.23109-6.62721-5.94361-3.53872-10.61043,1.88614-2.80365,11.48794-6.86668,11.0151-10.51375a4.646,4.646,0,0,0-.0913-.66083c2.70678-1.75536,6.55331-1.47016,9.12322-3.23665,4.006-2.84921,1.15106-6.46219,3.0885-9.84145,2.2908-4.18825,8.41092-6.33071,11.13474-10.559.40449.28485,2.38193-.16521,2.86624-.18816,1.47017,2.55879,1.02011,4.58161,4.96333,4.72421,3.573.14225,23.523-2.47323,27.30115-3.92079,2.04561-.80342,4.00026-3.85783,5.95474-4.94611,5.87509-3.16257,13.16331-7.14005,20.30336-8.51353,2.50174-.5697,8.30258-1.41312,10.89545-.85455.28485.08556,1.339,1.82353,1.66963,1.82353,5.28243.5471,5.56728-2.39914,7.7214-3.14,3.03146-.96863,9.1401-1.07123,11.51646-1.45312.31337.25077,1.44738,1.738,1.72093,1.78945,4.08564-.05147,3.80079-2.31359,6.25107-2.99737,6.01751-1.95465,8.93506,0,12.62195,1.58981,2.3934-2.27359,1.43607-1.94318,5.51615-3.59-.42745,4.84943,0,4.07452-3.02015,6.593.2506.1426.2506,2.23951.28486,2.52436,7.11726,1.06011,7.727.92342,8.861,8.3598-6.30237,2.14247-7.04893,1.85762-8.76986,7.67011,1.17957.78638,10.451,7.3223,10.98084,7.41343,5.88083,1.339,12.85567-1.56129,18.71355-2.01726,2.23376,2.83216,6.99762,7.6075,10.998,8.05756,3.23092.433,6.69556-1.98874,10.80973-1.37313.39893,0,1.17957,1.66389,1.55572,1.76058,3.57855.80934,9.23713,2.56992,13.99525.80934,5.85805-2.2169,2.51879-8.04052.42171-10.82712,2.496-4.1086,3.59-7.989,12.57639-7.23118,1.14531.02261,11.32847.88307,13.27738,1.45869,1.36756.54153,2.45028,3.27665,3.92618,3.60707,4.59291.91194,10.411-1.32757,15.2489-1.13384,7.9094.26224,16.9128,2.07986,25.01035,3.20814.7123-1.06567,2.12543-4.83238,3.31648-5.28244,5.81805-2.40471,12.639,1.40756,16.189,2.59287.73525-.51857,2.06856-2.51879,2.75234-2.73547a7.34726,7.34726,0,0,1,3.88061-.45006Z"/>
          <path class="cls-1" d="M0,1747.46521H165.76667c185.73952,0,349.77956,49.99221,349.77956,242.325,0,192.33838-164.04,242.31911-349.77956,242.31911H0ZM121.50715,2155.7506H189.2099c101.5456,0,199.62087-60.42588,199.62087-165.96037,0-105.546-98.07527-165.94914-199.62087-165.94914H121.50715Z"/>
          <path class="cls-1" d="M1163.63345,2225.18284c-51.12619,8.33685-106.25255,15.27178-159.35026,15.27178-226.47749,0-383.82754-78.45573-383.82754-242.3305,0-165.94914,146.32365-258.99854,383.82754-258.99854,46.11148,0,107.23248,6.25125,158.33589,20.1326l-10.02351,81.93742c-53.10919-20.83342-101.23219-25.69988-151.30975-25.69988-144.32926,0-234.50652,76.39866-234.50652,175.6706,0,98.6052,88.18853,172.91252,237.50389,172.91252,55.13766,0,120.25336-8.33676,153.33831-20.14956Z"/>
          <rect class="cls-1" x="1363.00186" y="1747.45999" width="121.48433" height="484.65544"/>
        </g>
        <g>
          <path class="cls-1" d="M1821.42673,2086.607v17.77971c0,99.12117-36.00458,140.01728-90.67367,140.01728-55.11984,0-89.78886-40.89611-89.78886-140.01728v-33.77866c0-99.12117,34.669-140.01728,89.78886-140.01728,49.78315,0,80.89623,31.55829,88.89848,99.12117H1783.647c-8.00225-45.78205-23.11639-64.44657-52.8939-64.44657-36.00458,0-51.5639,27.55716-51.5639,105.34268v33.77866c0,77.78552,15.55932,105.34824,51.5639,105.34824,32.00345,0,51.11315-24.00121,52.44871-88.45334h-52.00352V2086.607Z"/>
          <path class="cls-1" d="M1958.322,2066.16176c-7.55707-12.8882-15.55932-18.22489-27.5627-18.22489-20.00007,0-32.89383,16.89489-32.89383,53.78431v139.1269h-35.55939V2018.599h35.55939v21.7808c6.67225-14.22377,20.00563-25.33122,40.45089-25.33122,20.89045,0,36.44977,10.22264,47.56278,30.22272Z"/>
          <path class="cls-1" d="M2146.3305,2143.94728c0,63.56176-27.11752,100.45674-75.11991,100.45674s-74.67473-36.895-74.67473-100.45674v-29.33234c0-63.56732,26.67233-99.56636,74.67473-99.56636s75.11991,35.999,75.11991,99.56636Zm-35.55939,0v-29.33234c0-41.78648-8.89263-67.56845-39.56052-67.56845s-39.11533,25.782-39.11533,67.56845v29.33234c0,38.225,8.44744,68.45327,39.11533,68.45327S2110.77111,2182.17226,2110.77111,2143.94728Z"/>
          <path class="cls-1" d="M2326.3367,2240.84808h-35.55939v-21.78084c-7.55707,14.22377-17.77969,25.33678-44.00127,25.33678-38.225,0-63.12209-24.89159-63.12209-87.11778V2018.599h35.55939v138.24205c0,44.89167,14.66894,54.66912,34.22939,54.66912,23.11082,0,37.33458-19.5549,37.33458-54.22393V2018.599h35.55939Z"/>
          <path class="cls-1" d="M2408.11774,2040.825c7.99669-15.11414,21.77526-25.7764,45.33683-25.7764,41.7809,0,69.78322,35.999,69.78322,99.56636v29.33234c0,57.78544-22.66563,100.45674-69.78322,100.45674-24.0012,0-36.44976-8.44745-45.33683-23.11084v104.00711h-35.55939V2018.599h35.55939Zm79.56066,103.1223v-29.33234c0-42.23167-13.33338-67.56845-40.00571-67.56845-24.44638,0-39.55495,24.452-39.55495,64.45213v32.44866c0,38.225,10.22263,68.45327,39.55495,68.45327C2475.675,2212.40055,2487.6784,2181.73264,2487.6784,2143.94728Z"/>
        </g>
      </g>
    </g>
  </g>
</svg>
