<svg xmlns="http://www.w3.org/2000/svg" xmlns:xlink="http://www.w3.org/1999/xlink" width="92.86276cm" height="85.58036cm" viewBox="0 0 2632.3302 2425.89997">
  <defs>
    <style>
      .cls-1 {
        fill: none;
      }

      .cls-2 {
        fill: #abb0b4;
      }

      .cls-3 {
        clip-path: url(#clip-path);
      }

      .cls-4 {
        fill: url(#Dégradé_sans_nom_2);
      }

      .cls-5 {
        fill: #71777a;
      }

      .cls-6 {
        fill: #0062ae;
      }

      .cls-7 {
        fill: #717880;
      }
    </style>
    <clipPath id="clip-path" transform="translate(-106.91338 -240.18935)">
      <path class="cls-1" d="M803.6175,622.45017C408.5216,699.031,140.0496,841.48846,140.0496,1009.155c0,247.00564,579.50878,447.2676,1294.36828,447.2676,714.79419,0,1294.2425-200.262,1294.2425-447.2676,0-167.66652-266.33407-309.48282-661.39419-386.05129,257.05213,76.51513,423.99646,201.05549,423.99646,338.45149,0,231.70973-473.20433,419.58866-1056.84477,419.58866-583.694,0-1056.89226-187.87893-1056.89226-419.58866,0-138.10934,166.62016-262.60149,426.09188-339.105Z"/>
    </clipPath>
    <linearGradient id="Dégradé_sans_nom_2" data-name="Dégradé sans nom 2" x1="1118.57349" y1="1837.30606" x2="1124.51828" y2="1837.30606" gradientTransform="translate(-487057.52121 -799268.97163) scale(435.457)" gradientUnits="userSpaceOnUse">
      <stop offset="0" stop-color="#0062ae"/>
      <stop offset="0.50562" stop-color="#fff"/>
      <stop offset="1" stop-color="#e63027"/>
    </linearGradient>
  </defs>
  <g id="Calque_2" data-name="Calque 2">
    <path class="cls-2" d="M2302.45954,685.32144l-235.19335-62.21775,20.997,49.95991c257.08786,78.06663,423.99337,206.00427,423.99337,346.14062,0,236.35264-473.17458,427.97681-1056.815,427.97681-583.68189,0-1056.86237-191.62417-1056.86237-427.97681,0-140.8613,166.62014-268.74561,426.08588-346.76507l-21.04759-49.989L660.92808,659.51549,448.09913,769.2915C287.3102,833.0849,140.0496,989.03377,140.0496,1008.83988v58.91551c0,251.95171,600.54445,456.22034,1315.392,456.22034,714.79419,0,1273.2188-204.26863,1273.2188-456.22034v-64.14212c0-21.56665-113.04518-159.82-299.31554-233.80436Z" transform="translate(-106.91338 -240.18935)"/>
    <g class="cls-3">
      <rect class="cls-4" x="33.13622" y="381.39549" width="2588.701" height="834.83792"/>
    </g>
    <path class="cls-5" d="M1802.68815,545.83936l-2.25162-17.01624-6.78795-33.72786-4.50323-15.87719-11.29118-31.57227L1771,432.92091l-2.3257-4.32029-.76695-1.865-.19371.08071-8.12319-15.09.178-.10637-2.34392-3.91714-2.19242-4.07278-18.11887-27.079-10.13889-12.41368-22.40355-24.64524-11.5031-11.45012L1680.6573,317.8866l-15.104-11.3272.09106-.16266-1.20238-.67052-10.69144-8.01806-13.76133-9.119-14.72821-7.94025-14.17854-6.49657-14.4302-7.79125-32.13847-11.53952-15.96659-4.5529-33.67487-6.69193-17.01293-2.2781-17.01293-1.10925-34.76757.00993-18.14536,1.13574-16.98643,2.29135-32.57887,6.71511-17.07253,4.5827-15.662,5.60585-14.9037,5.75818-15.41031,7.7184-14.89376,6.874-27.8869,16.73148-12.619,10.29452-13.513,10.119L1233.808,328.37978l-11.28455,11.28787-22.40687,24.66511-10.28789,12.61235-18.03278,27.10215L1156.08759,433.209l-6.72173,14.5792-6.8906,16.18182-13.4832,48.51236-3.35383,25.19987-1.113,4.92209-2.25493,20.57578.64527,27.78095.81663,12.59786.82283,14.87845,2.18746,14.14254,2.24954,16.87014,11.98778,42.99383,2.15434,7.16833,6.288,14.66115,6.80451,14.72159,15.81758,29.30409,18.08245,27.09222,10.15875,12.38719,22.40356,24.65518,11.48654,11.45343,12.41036,10.172,3.92791,2.935,10.22415,9.02177,6.45725,3.97427,4.78757,3.91963,14.86065,8.09256,13.33088,8.88063,15.258,7.08928,15.45,6.65219,14.86727,6.82107,15.9401,5.67208,16.93346,4.533,32.63516,6.7118,17.03942,2.27148,18.09238,1.10925h16.67518l18.11225-.00993,17.02617-1.13574,16.98644-2.288,33.76758-6.74491,15.86064-4.56945,15.854-5.66215,15.70831-6.71842,29.4233-13.6322,14.33086-8.821,13.59991-7.97336,7.59009-5.64518L1680.84273,843.92l12.59579-10.36405,11.29781-11.29118,22.41018-24.68167,10.25808-12.59579,18.09238-27.1154,15.64209-29.14516,6.88729-14.8739,11.25145-31.5524,4.45025-16.907,6.76146-32.62523,2.23175-17.00631,2.23837-34.78413ZM1749.22556,715.6475l-17.38378,21.80755-9.08178,9.09627,5.52556-27.38733,1.57157-23.16182,2.71312-2.70525,19.2248-21.60888,9.72706-13.9091-.02525.44908-2.17215,19.63209-6.04127,31.22708ZM1469.72745,799.338l-52.68114.04636-28.95476-3.85216-.005-26.43867,1.78515-33.20428,9.65835,1.32738,33.68149,1.08938,33.67487-1.10925,34.82717-3.37742,7.41915-1.28267.00455,43.868-.74088,17.96449Zm38.03323,5.32151-3.06037,21.42635-2.1589,19.56255-.99212,4.97218-25.46434,3.1833-17.46988,1.10925-34.89339.04636-17.0063-2.25824-12.56144-.79468-1.68-6.16214-4.23792-39.98809,28.13483,3.72716h35.57549l18.41026-.03973Zm-302.84577-41.02946-8.11616-23.58235-2.14235-10.58589-1.41553-15.40908,7.634,7.61452,22.4168,17.90033,12.48984,9.0793,24.91344,15.83084,6.889,3.43785.37582,8.37981,3.48007,21.75126,5.33392,18.154-3.46641-1.73382-13.1885-7.69523-23.9863-15.19508-10.89384-8.72832-10.92033-9.8177Zm-35.917-291.0675,2.22181,20.02281,1.6941,5.21679-4.30332,6.04128-9.04619,14.69841-7.84753,14.57258-5.75238,11.499-1.317-13.67773-.00993-11.88389.96024-14.62307,3.02313-9.148,13.066-28.377,7.76393-12.35366-.48261,6.33722Zm-32.25437,82.18392,1.99086,6.71263-2.90806,11.37644-.45694,1.5186-.72515-7.85292-.43046-13.33088.3841-5.99658.82945-6.278Zm33.96626,166.08635-13.17525-24.11876-5.49659-12.10242-4.08188-9.75893-4.48418-23.54179-2.1916-13.87805,8.40009,18.40777,6.8608,11.40377,15.758,22.48965,9.06275,11.321.95776,1.07614.0058,3.7847,2.30459,24.99954,2.38406,11.72826.48716,1.46355-.60967-.68542-8.576-10.6753Zm13.95007-56.50889L1182.84,686.6828l-2.425-3.02809-15.37058-21.93337-6.39723-10.58921-10.97-24.07572-4.32112-11.88057-2.78347-10.11447,1.77356-18.67971,1.9743-6.57645,3.95936,9.89427,4.54959,10.20842,5.87406,11.66535,6.82769,10.225,14.93018,19.45,7.63024,7.61907Zm3.394-29.77429-14.24477-18.61224-6.34756-9.44685-5.46348-10.9137-4.3774-9.82433L1153.326,575.064l-4.03594-13.45422,4.824-10.61819,6.60584-13.20174,7.629-14.18186,7.95887-12.94016.54759,2.48009,4.77806,9.85412,4.533,10.20511,4.69527,9.331,5.55619,8.88063,7.25814,8.55613,9.55157,10.25478-1.67423,3.36087-11.26469,29.324-8.97665,31.44644-.62334,2.80707ZM1472.7336,250.327l15.11934,1.05089,14.09245,2.16553,4.65762,1.07034-1.35966.55545-6.99325,3.51981-5.54957,3.31782-5.17209,4.97342-4.90719,3.66549-9.29494,15.09989-16.16154.01242-8.66706.58359-5.2797-13.17608-8.84752-19.91685-.548-.76158,7.36244-1.06289,15.1984-1.08607,11.948-.00952Zm315.59182,309.83744-.08071,1.00246-4.384,24.03267L1780.7018,597.004l-4.33767,11.87065-3.62865,8.01268-.00042-1.70485-1.16554-23.75122-2.92461-22.54056,1.50742-2.72719,4.57607-11.51634,3.50325-11.62231,3.7698-19.22108,2.89233,12.34041ZM1763.9339,443.56972l3.93329,16.40284-.31746-.58856-8.86739-14.46331-6.47794-7.7838-.66762-6.03383-2.34433-12.78454-2.81658-9.34047,2.38985,3.99786,10.76056,20.01867ZM1496.972,639.26811l-29.65508,3.32444-29.63521,1.11587-29.622-1.08607-8.96879-1.03475,3.39936-29.819,6.96924-43.55011,7.77883,1.13367,23.8075,1.11588,25.80747-1.12912,24.9598-2.2781,2.346-.4495,4.99163,32.79327,4.437,34.19474.36588,4.64106Zm7.78048,9.10248,2.15973,27.38691,2.2185,36.39006.00124,10.10661-8.76929,1.5157-34.13181,3.30788-33.01926,1.08939-32.82058-1.043-9.91993-1.37,2.03266-26.38445,5.43988-47.71808,9.34792,1.07987,30.39017,1.11587,30.38354-1.14567,30.20474-3.37411ZM1224.54658,433.44076l1.41678,6.59963-3.13529,2.68828-15.83415,14.72159-13.4567,14.61562-12.74066,14.878-1.68291-14.94095-.01656-10.725,1.05958-13.99643,2.03225-12.297,12.09663-14.96082,15.16528-15.16859,16.45334-13.1885.74626-.53435-2.09392,12.64008-1.13243,12.59911Zm-36.64833,60.78034,13.22161-15.41362,13.056-14.20173,14.3321-13.31267,5.3927,15.08748,6.68862,14.45668,10.5296,14.23153,3.33769,3.35383L1239.649,520.67426l-14.5792,25.78761-7.01436,14.07838-6.80989-7.31692-6.43034-7.51311-5.1158-8.13561-4.36085-8.6952-4.53634-10.20842-4.17873-8.331-2.21519-9.9071-.29718-.89237Zm172.37428-214.71459,3.37618-1.84517,2.58729.3187,8.48659,2.11255,20.36055,8.57931,9.34751,6.19525,3.67833,2.76609-11.96294,6.53838-5.492,4.82772L1379.05033,306.91l-24.93994-2.25162h-22.21192l7.80822-7.81111,9.79452-8.71508Zm-.245-12.4766,5.55992-1.9863-3.99124,2.17918ZM1621.612,404.08038l19.84069,12.14878,19.695,13.11565,17.40489,13.51093-4.33228,10.13433-8.4568,13.77458-9.80114,13.03288-.48716.49088L1641.062,464.99316l-20.291-19.13541-23.37457-19.11554,13.99726-15.84408,4.86787-9.48658Zm-.49585-11.56395,2.019-3.61458,4.223-21.10806,9.56481,3.35673,17.43014,6.54955,16.43015,7.64555,16.19176,8.60249.0091.00621.04388,14.04651-2.14566,16.25136-2.65434,8.624-15.15328-11.75971L1646.91621,407.683l-20.39035-12.46666Zm-183.302-54.44478-21.62874,3.42709-36.99269,9.76721v-7.211l6.00651-14.96993,6.74822-7.77469,1.418-1.26156,9.17781,2.29135,12.99313,4.29462,13.00639,5.38732,11.53124,5.79666Zm8.14968,9.27964-30.083,33.5507-5.15512,5.9316-9.44064-4.723-9.11572-7.033-4.18535-4.20191-6.0628-8.07932-.6461-1.62042,36.98979-9.76348,20.90027-3.29133ZM1376.99076,323.062l-2.66924,6.39764-.04594-.2355-4.95024,1.00329-15.97321,1.16554-22.685,3.44364-21.01,5.04337,1.43086-5.01688,5.00984-10.09253,5.54-8.29123,10.6484-1.67547,21.37377-.01987,24.0128,2.16553,4.02766.728Zm-4.24164,44.1217,7.32437,10.05611,1.84971,1.86131-1.18416.5956-18.63542,12.74149-25.71144,20.12214-12.23073,10.49112-2.69946-3.0343-6.25816-9.37069-5.2946-9.52963-2.10758-6.97545,9.67035-5.37531,19.79765-9.927,19.81089-8.80117,14.57257-5.70064Zm-29.94977,53.24075,25.30085-19.8109,17.503-12.0064,4.5591-2.29259,5.30164,4.12037,8.41665,4.27517-10.5325,12.11857-22.31416,31.2577-9.19933,13.7841-1.78722-.89692-10.80775-6.44027-10.68854-7.44689-7.53173-6.557Zm36.5821,23.42672,21.92343-30.74447,12.58007-14.4571,11.82345,2.80831,6.84424.90768-13.3673,58.65414-1.51239,7.367-16.57336-2.34392L1385.729,461.629l-12.99645-4.288-1.76486-.88575Zm141.73577-106.96161-21.37046-1.11588-28.12448.02235,3.38322-3.10176,17.344-13.05605,10.768-6.48333,10.04741-5.0235.34975.18916,10.68192,7.46343,8.30448,7.24159,2.72842,4.543,2.053,4.03966,2.04631,5.12573.43253,2.16759Zm18.43468,12.1852-1.19,5.41381-2.649,4.45025-3.62907,4.84759-2.85426,4.75488-6.213,4.86415L1502.25,359.77987l-24.44077-13.864,21.67261-.00331,20.81419,1.08607ZM1496.96535,368.432l16.9703,11.14011-5.32151,3.38612-14.70833,5.27473-15.18515,4.32443-3.07941.38327-5.40388-23.16431-4.1957-18.89162ZM1467.845,404.13294l.2202.95073,11.02753,64.26082-31.25894,2.06577-16.34407-1.06951-3.75614-.531,1.35883-6.61784,7.79456-33.41,5.79087-26.07361.08319.01118,19.35064,1.1258Zm-47.62,102.24688,5.46761-26.62989,4.79048.68335,17.32418,1.10263,33.00311-2.18374.59229,3.45193,11.23241,73.79334-2.23258.42715-24.22471,2.19532-25.1055,1.11587-22.86712-1.06951-7.14681-1.04013.3125-1.9532Zm57.78038-103.306-.04636-.19784,2.40393-.29884,14.70793-4.14644,2.358,1.74251,12.9534,11.82429,17.5361,19.73474,9.94021,13.22492,4.78013,6.6911-.54179.226-14.1057,6.48-14.854,4.28469-24.04881,4.98708Zm57.74065,22.21814-18.11887-20.3738-11.33505-10.3566,6.27554-2.24582,10.62563-6.66668,9.268,6.08391,30.82062,20.90359,18.79808,14.88549-4.08974,3.65722-10.927,7.66873-11.86071,7.55615-2.96393,1.23715-6.19484-8.68072Zm33.52918-20.83075L1538.09042,383.296l-6.12986-4.02186,4.99743-3.89521,3.52311-5.92374,1.12581-1.50535,4.331,1.06828,38.23108,16.38711,23.04883,11.49607-3.877,7.79828L1589.47108,420.441Zm44.60844-19.80758-1.85551,3.32651-23.58773-11.77337-38.88669-16.67519-2.0935-.53145,2.16055-8.83966,11.54863,1.24543,19.68175,3.25822,18.62879,4.39727,18.24594,5.37365Zm-11.8011-35.39339-19.23144-4.53634-20.31088-3.36418-12.2953-1.327-1.06206-5.74575-2.66221-6.83763-2.41055-4.7615-.12582-.21026,15.79441-1.01819,26.31739-.01325,16.02619,1.04965,6.9829,1.34062,3.72551,6.72877,3.07941,11.21171,1.19245,11.90707Zm-15.6421-37.94632-26.98625.00993-18.27781,1.192-4.66258.76034-6.06569-5.46555-6.57687-4.5918,2.27231-1.03392,12.99976-5.41712,12.50308-3.17213,14.05934-2.149,15.19839-1.10263,2.13572.154,3.16882,2.81617,8.45679,8.42037,7.5694,9.69188.54842.99087ZM1564.58,281.37071l-14.9335,2.29135-13.35074,3.36417-14.205,5.86082-8.59338,3.913-6.89639-3.75407-15.37058-4.841-6.76188-.99667,5.742-9.56936,3.68868-2.75492,4.5562-4.49991,4.66879-2.8079,6.384-3.20855,7.172-3.06286,12.32345-1.543,1.41139.32449,12.81433,5.33765,11.90707,5.40719,15.515,10.09377Zm-75.95223,16.64539,13.57591,4.182.08443.04594-4.04462,2.02687-11.54284,6.96014-18.17184,13.66862-6.98911,6.40965-4.759-19.78358-4.829-15.25841,5.55081-.37706h16.311ZM1455.688,351.67074l9.85453,42.527-3.76855.46895-18.05265-1.0364-16.205-2.14235-6.16586-1.4176,2.1262-2.44325Zm-9.24487-22.0029-13.67524-6.86412-13.68849-5.66877-13.70835-4.52971-2.4151-.60388,9.67987-5.3331,14.0196-5.41381,14.9066-4.25158,5.45064,17.23147,4.07029,17.56425Zm-22.99957-38.0258-4.24247,1.64567-8.91622-6.69855-9.9932-6.63895-21.94-9.34089-.90727-.22889,7.523-3.75779,12.8938-5.39394,14.09245-4.36085,10.75394-2.49044,2.57694,3.42751,8.60911,19.344,4.17707,10.4071Zm-80.48526-11.26138-10.20842,9.08593-9.09916,9.10579-7.588,8.557-6.65343,1.03889-20.43671,5.69526-8.35953,3.16178,1.10139-1.10221,22.04595-17.66524,11.95673-8.71839,11.93686-7.59919,5.91959-2.728,5.557-1.11628,7.86451-.91762Zm-10.31106,64.39286,21.82409-3.30458,15.31553-1.13988-.73964,1.77232V354.2005l.05091.27193L1353.18,360.67389l-20.24135,8.99321L1312.737,379.79605l-7.331,4.07692-.702-3.461-1.07614-11.77462,1.02978-11.22827,1.81412-6.3604Zm-26.09886,71.1477,6.66875,10.01637,3.27809,3.6895-11.27131,9.66787-32.82059,37.26091-11.58836,13.93434-1.79549-1.79549-9.45016-12.60573-6.288-13.53949-5.35752-14.92688-.81414-3.77973,7.89679-6.76974,16.44672-13.15208,18.64866-13.16863,17.57583-10.98324,1.06124-.58981,1.61421,5.38111Zm-72.52514,135.30215,14.26133-25.24126,13.455-20.24094,2.2599,2.27107,13.32756,12.19845,16.3838,10.6455,16.67519,9.9932,3.44282,1.41843-7.85333,19.24013-8.93361,25.675-8.0073,25.024-7.956-3.40846-20.748-11.95342L1241.71513,583.693l-16.152-15.08582-.13742-.14776Zm65.04184-28.9796L1283.86,512.436l-12.85075-11.75144-3.00532-3.00532,12.10118-14.52085,32.02258-36.42317,11.14176-9.55777,9.02674,7.879,11.43356,7.98661L1355.17,459.8575l1.17878.59312-7.77138,12.44968-11.26469,20.31089-9.96008,20.98968-9.41787,18.84692-2.66137-1.09559Zm37.40659-3.596,9.85743-20.79763,10.98324-19.801,8.13313-13.02212,3.06534,1.54219,14.22821,4.75157,16.18182,4.60919,16.71409,2.38489-5.36993,26.15763-8.89388,50.11166-.34891,2.18125-27.82275-4.04876-20.47644-5.34427-25.39356-10.45594Zm166.13391,36.04238-11.18977-73.50858-.61671-3.59182,24.80169-5.11663,15.56262-4.47674,15.00635-6.831,2.51816-1.05048.09768.13659,10.9998,17.57584,10.99979,19.83076,11.00642,21.98635,4.53551,10.39426-8.29041,3.91342-20.887,7.71509-20.56254,6.52306Zm77.153-61.76045-11.2382-20.25129L1558.17986,456.156l1.334-.55669,13.19181-8.321,11.56932-8.15879,5.84468-5.22549,23.95609,19.57953,19.80758,18.68509,14.44716,15.32711-4.9374,4.97384L1629.09535,503.466l-15.29773,10.94019-17.29107,10.82762-1.01778.48054-4.51192-10.36115Zm21.589,41.19792,18.07913-11.28788,15.70832-11.225,14.94012-11.55276,4.91506-4.92582,10.52836,12.90911,11.08589,17.72815,9.80776,16.34739,6.16338,12.25225-2.75947,2.7574-17.27782,15.20171-20.7016,14.18186-22.15191,12.19183-8.696,4.56448-.774-3.72013-8.90712-30.13851-9.09917-28.2677-2.68083-6.15593Zm15.6752,99.85578,5.53633,35.4265,2.32446,18.48517-3.71517,1.776-28.36371,12.05607-29.80739,8.81771-30.761,7.71509-12.96582,2.24127-.00082-8.66168-2.23175-36.7874-2.22513-28.16712,13.8673-2.04756,29.17826-6.76477,27.11208-7.91708,26.0525-10.23491,2.776-1.4532Zm6.11165-20.40236,11.345-5.93822,22.66183-12.49646,21.60225-14.811,17.99967-15.801.29221-.2918,3.615,8.41748,5.37738,14.99972,9.36821,38.41817-3.32858,3.336-19.55593,17.4467-22.06582,15.40369-23.91346,15.28118-12.01468,5.74369-1.91221-15.28987-5.60255-35.82716Zm76.9878-66.7496-4.82938-9.59461-10.03955-16.758L1673.75677,502.158l-11.57429-14.23028,1.21687-1.21976,10.7349-14.23815,8.92036-14.48318,3.55912-8.28586,12.87766,11.32885,16.5891,17.71822,8.60248,9.629,6.52306,10.90708.92672,1.3965-3.2578,6.47091L1718.03409,524.545,1704.882,542.07453Zm6.42869-93.07321-15.86063-13.97035,4.01317-12.94637,2.4238-18.17848-.01573-7.72047,18.22731,12.578,13.02625,11.86071,10.95343,12.119,3.16965,3.78843.082.72473.03311,19.46984-.98011,9.29785-2.0993,8.53626-3.01567,9.06979-3.3617-5.62945Zm.27814-89.93543,7.38852,5.52142,4.651,6.35915,6.54955,10.95344,6.47008,11.874,4.245,11.5925,3.20524,10.55941.39735,2.18-4.192-4.627-13.9004-12.6289-25.03472-17.29149-.73964-6.45311-2.38406-9.46009-3.29795-8.6952-3.33107-10.023-2.23216-4.54131,4.55,2.55128Zm-21.43213,17.82583-10.07722-5.37573-17.03279-7.92038-17.89371-6.73829-12.74645-4.466-1.68374-16.81178-3.50987-13.03949-.54759-1.00371,14.16323,2.71891,17.37716,5.40387,13.48361,5.53426,1.00619,1.60468,5.3244,7.46675,4.07939,8.20184,3.29133,9.88061,3.18537,8.31442Zm-46.88448-62.46409-22.88-4.38733-4.71556-8.64223-8.66209-11.12562-3.17958-3.17958,12.84165,1.68954,14.90038,5.32441,4.27352,1.70319,11.9381,9.56812,13.7365,14.71289Zm-35.64379-37.02415-6.05742-.83277-9.61489-.69866-4.03386-3.58934-16.16692-10.56851,21.42468,7.65963-.0062.01159Zm-310.75374,41.33864,15.58911-4.35753-.36092.53972-5.55619,11.09914-3.56409,12.33462-11.57139,4.13859-16.93677,6.78133-17.14537,8.01972-6.72711,4.05083,3.70067-8.21632,6.45684-10.81106,7.59257-10.85741.24751-.31084,10.91453-5.86786Zm-34.79075,47.50244,16.41692-7.6588,16.49969-6.60252,4.54048-1.63408-1.33855,13.53121,1.23507,13.23154,1.44907,7.16461-3.598,2.00079-18.03609,11.27131L1255.36389,415.812l-16.82419,13.44677-3.85838,3.30789-.03559-.16556-1.04965-15.91031,1.01654-11.43025,2.11585-12.84745,2.77892-10.28623,1.61173-1.154Zm-16.75134-17.81424-5.6489,12.46666-3.95233,9.92449-11.18977,8.00233L1202.696,397.30567,1188.96363,411.038l.87829-2.63985,5.24494-12.73487,7.41625-12.73569,15.86809-15.91941,12.05937-9.874,12.81434-9.64552,1.09021-.62168Zm-45.93954,313.04061,2.11833-9.55984,12.07677,10.63267,21.61549,15.89705,23.59228,13.46664,15.72777,7.84216-1.86379,17.42559-1.11257,28.21472.27773,6.199-1.38035-.68583L1241.49,740.26956l-12.04613-8.76474L1207.62967,714.121l-9.7912-9.79452-5.39726-6.06943-.00662-4.586Zm76.631,24.25121-.35181,3.28926-12.09167-6.04418-22.85056-13.013-20.76783-15.2878-15.948-14.0519,1.89524-8.55365,8.75149-30.68818,10.821-28.17787,14.32092,13.39007,19.82414,14.03947,21.67178,12.47,9.81894,4.22054-8.362,33.54367Zm6.74822,32.19477,1.42961-13.39876,27.78177,9.98492,29.29084,7.85747,30.2511,5.59592,13.02335,1.79012L1377.9477,768.822l.02318,25.36377-10.55279-1.404-15.25137-3.288-30.68155-8.72831-14.15867-5.4403-28.75775-13.26466-1.14277-.56787-.50289-11.36568Zm25.37039,61.99555,14.87721,5.70519,31.453,8.95679,15.9666,3.437,12.30068,1.62952.00041.57573,3.33107,29.90674,1.096,12.21832.82573,3.09348-9.50106-1.90476-15.2282-2.15559-44.8038-13.10241-14.00305-5.36414-8.56193-4.28221-4.5173-9.66124-5.30122-17.897-3.2814-20.54266-.10389-2.346Zm79.02171-86.25007-2,25.94447-12.01965-1.66015-29.62859-5.4701-28.49615-7.64224L1283.019,699.82l-2.43787-1.21852.70611-6.61909,6.60915-34.17487,7.89472-31.68112,4.27393,1.8373,23.93,9.05944,26.87367,6.69193,27.12864,5.63234,9.87316,1.14071Zm-2.788-59.07839-26.48957-5.51314L1327.0248,627.361l-23.15188-8.79785-5.48086-2.34764,8.2722-25.81741,8.79785-25.30417,7.73454-18.96612L1349.4979,556.965l21.66185,5.67209,28.264,4.11913-6.97959,43.62833-3.42585,30.04126Zm124.513-74.63935,34.92775-6.69028,21.37046-6.74822,21.52278-7.96343,8.42451-3.98378,2.35675,5.401,8.88063,27.68162,8.768,29.61866,1.27813,6.151-4.83435,2.53762-25.11874,9.85743-26.4101,7.69854-28.49616,6.61577-12.78619,1.882-.33277-4.20977-4.48337-34.559Zm8.42493,282.49977,2.20526-19.83738,3.384-23.85056.00786-.18294,4.83311-.61836,16.95333-3.43372,33.7742-8.99983,31.53584-11.2945,19.73639-9.11117-5.59758,30.90216-4.33105,15.15867-1.76528,4.62533-5.19485,2.39772-46.33689,16.55267-16.65532,3.341-16.311,4.36416-16.65408,2.08191Zm88.85927-77.60122L1570.69246,780.6l-33.05237,8.80116-16.3242,3.30789-2.73215.351.69246-16.44009-.00456-45.83608,15.05726-2.60343,31.33716-7.85085,30.55573-9.06937,29.112-12.34414.656-.31456.97308,22.4466.00662,23.04925-.70611,14.02789Zm27.83392,33.50932,6.74822-37.347.06-1.15271,26.52227-14.86355,25.99952-16.98313,23.728-19.26124,6.68034-6.66088-.73343,10.96544-6.64888,32.99939-3.495,9.81895-8.30614,6.65757-10.86735,9.76472-13.17856,8.81441-11.821,8.61574-13.16532,7.70184-14.18517,7.629-10.65584,4.918Zm76.28335-97.13729-22.91348,18.60231-25.2843,16.49638-20.65566,11.57761.43087-8.28628-.00662-23.53268-1.139-25.98627-.12044-.96439,15.6036-7.47917,24.62868-15.69838,22.70818-15.89044,18.683-16.63587,2.88612,18.78815.01324,29.26767-.353,5.28012Zm13.70173-106.11394-3.48337-15.03284-5.66215-15.86395-5.33434-12.42485,7.55284-7.54167L1726.39155,530.28l11.31105-18.1586.84022-1.6585,5.62986,9.35372,4.31118,11.89051,4.26482,10.57265,3.2251,11.7382,2.18332,12.92733-2.83893,5.09883-5.17209,10.54285-13.1587,19.70825-7.39059,9.54949-5.87489,5.88814Zm39.84032,43.77072L1743.84156,665.41l-13.34412,14.97613V656.57905l-4.13776-27.1601,10.82637-10.87563,8.01972-10.31769,13.69511-20.56253,1.55337-3.13985,1.01612,7.80532,1.12581,23.09892.00621,21.67923Zm3.27809-104.56762-4.39065-10.96669-4.41713-12.19845-7.23828-12.19514-2.82983-4.26523,5.77679-17.28735,2.33109-9.58923,1.13243-10.51967-.012-7.46882,6.05825,9.87275,7.5098,13.85736,5.52307,14.32755,1.95112,5.44071.02235,9.04247-1.09931,11.7117-4.27145,21.75457-2.94282,9.76017Zm6.99987,140.29544,2.25161-20.2844,1.08152-19.29849,1.71975-3.16136,5.64891-11.2945,5.69525-12.60573,4.61581-12.64215,2.03059-7.58016.20116,1.79881v9.59337l-4.25158,26.88941-3.25159,11.93355-4.245,12.85738-5.629,12.37726-5.331,12.85738-1.262,2.31825Zm-83.07793-343.80164,4.85008,4.83973-.53724.4913-14.3855-8.05283-2.38985-.98343-3.17958-5.07275-5.87944-8.14761,9.66083,7.24365ZM1252.662,326.009l13.513-10.119,7.05161-5.78176-8.66747,8.67575-7.34051,9.17905-3.42419,1.83068L1237.692,339.022l-.81745.61257,3.73461-3.745ZM1165.157,437.742l11.11776-20.65525-.4855,1.46024-2.9718,11.93686-.81952,1.01323-10.066,15.63216-4.17211,6.82107.87416-2.0397Zm33.11528,341.62286-17.54272-26.28759-1.86627-3.46062.27359.34147,16.676,18.74386,4.57194,12.92774.46025.86547Zm107.19006,92.8526-13.40041-8.9005-5.50859-2.97014.15769-.26159-13.36771-8.16789-7.34713-6.01065-9.22251-6.89185-7.82022-6.88274-9.88723-10.96668-10.84086-12.99314-9.68525-13.94345-3.86541-7.2449,3.99785,3.59265,11.56933,9.23824,24.59888,15.61892,13.63882,7.95018,14.989,7.4891,1.80543,3.88155,8.04951,13.77127,8.89388,12.22163,10.73821,10.82431,9.393,8.33387-2.79051-1.20155Zm59.6897,25.33977.46481-.774-16.47651-9.89716-9.68856-6.43366-9.76141-7.58264-9.77465-8.67534-9.73161-9.73823-8.374-11.46668-2.76319-4.73129,11.34581,4.35713,45.65478,13.3673,15.97322,2.30128,14.07217,2.79176,2.11958,9.40338,3.33437,10.01637,9.48,16.74473,4.45025,6.69524,3.57816,3.63032-28.06115-5.776Zm115.69446,14.0403-34.14506.00994-17.24761-1.05255.31415-.62292-6.21843-3.1357-4.7019-3.6953-5.2052-5.2052-3.98668-5.98-8.64885-15.1123-3.03305-9.02964-1.24294-5.569,8.97789.58567,17.34405,2.26817h17.7745l18.10563-.00993,18.09238-1.149,22.43336-2.80044-.21523,1.07862-3.15888,13.85074-4.49,12.38057L1486.204,904.6076l-3.93949,6.89557Zm32.67489-3.288-16.3242,2.19864-2.78555.18543.85181-1.49,5.9138-17.46326,4.6158-12.84413,3.36418-14.58583.90023-4.53386,20.33779-2.53886,17.01292-4.51316,16.70168-3.341,43.65937-15.5589-4.55414,9.11531-7.78793,11.11238-6.34425,10.58259-8.66872,8.67865-7.45019,8.49984-26.2313,19.6652.11631.15521-.28849.0832Zm121.40171-44.85017-13.89378,8.59256-28.78092,13.29777-15.27124,6.53961-1.03268.36879,3.53595-2.6502,8.33759-9.36407,8.88063-8.88063,7.23165-11.78786,7.8078-11.119,7.2449-14.43682,2.288-5.98665,19.83738-9.14884,14.62224-7.85747,13.74809-8.06608,12.07925-8.77467,13.31763-8.90712,6.53506-5.8364-.64775,1.81992-6.4767,15.17522-7.56277,14.03947-8.78792,13.18519-8.50978,11.77131-10.78125,11.89382-3.86127,3.4751-6.39682,4.80289Zm62.48229-48.2011-5.09925,5.10711,3.09928-4.6601,8.00648-14.85734,6.788-15.8805,6.51064-18.27036,1.15809-.93128,21.52278-21.55258,6.55493-8.22253-5.13111,14.133-7.67536,17.556-6.53837,14.537-7.14349,8.754Zm71.2437-105.24972-6.576,14.16861-3.35714,6.26355.589-1.62787,3.31119-14.56927.21937-1.13657,2.48257-3.89976,6.80782-11.31105,2.4536-4.5231Z" transform="translate(-106.91338 -240.18935)"/>
    <g>
      <path class="cls-6" d="M1176.73079,763.70992c2.50868,1.68866,2.56809-4.01266,4.69633-1.53373,1.40292,1.69447,5.23143-2.73437,6.54519-.89767,2.71677,3.85228,6.462-.8915,9.5652,2.6277,2.045,2.38386,5.06489,3.35881,7.2823,5.76662,2.56818,2.72276,10.427,7.66284,13.15577,10.16535.76687.66,3.61444,4.9223,4.37531,5.75465,5.77842,6.10516,7.24085-2.67522,13.20341,2.93067,3.228,3.02609,10.68274,10.33225,13.14389,13.06081,4.27426,4.60119.79063,20.462,5.77823,24.12383-.74309.56494-2.50269,19.98636-3.17449,20.6402-27.36978-20.765-50.57215-48.38445-71.91388-77.79922-.71933-.963-3.014-5.13638-2.65726-4.83921" transform="translate(-106.91338 -240.18935)"/>
      <path class="cls-6" d="M1601.18442,494.784c7.19313-.91545,11.194.60667,6.45,4.20315-.34488.21988-.99273,1.93793-1.35539,2.02138-7.39541,2.01522-24.26658-3.8882-5.09464-6.22453" transform="translate(-106.91338 -240.18935)"/>
      <path class="cls-6" d="M1520.37823,491.97668c9.458-1.60484,2.15781,9.78545,1.11156,11.86018-1.15928-.57075-2.64547-.25581-3.82253-.36865-.416-1.28409.25562-1.53373-.90946-1.92632,0-.27939-.101-.422-.101-.648-4.29821-1.73583-13.62556.82039-8.16808-4.714,3.1803-3.222,3.72129-.49347,7.59135-1.23656.89766-.20791,2.4196-2.6277,4.29821-2.96659" transform="translate(-106.91338 -240.18935)"/>
      <path class="cls-6" d="M1576.31371,482.0577c.49328,0,1.97348,2.18793,2.51448,2.43176,2.61572.86792,6.54528.37445,8.56648,1.40274,3.4361,1.60521-1.25434,3.23409-1.25434,3.365-.42216,2.79968,3.1627,4.56526-1.05822,5.37984-5.61768,1.094-12.84655-5.76046-16.1816-9.42842,1.67633-.49346,1.97367-.24383,3.03172-.93939.666-.39223,3.0914-2.31239,4.38148-2.21152" transform="translate(-106.91338 -240.18935)"/>
      <path class="cls-6" d="M1475.88564,469.17541c.76088.50543,3.32308.90383,3.9234,1.10013,1.33761,9.03,3.71548,15.64642-3.32906,20.20007-7.46073,4.81526-2.37788-5.90886-3.29931-9.72558-1.78336-8.13852-5.00557-5.42157,2.705-11.57462" transform="translate(-106.91338 -240.18935)"/>
      <path class="cls-6" d="M1475.14255,455.28006c1.66453,5.55872.64186,15.34381-7.15159,5.16612,2.35992-1.73,4.839-3.50141,7.15159-5.16612" transform="translate(-106.91338 -240.18935)"/>
      <path class="cls-6" d="M1256.219,310.51894c.39224,4.47056,9.54724,10.52855,2.64529,13.42946-.26161.10087-1.65854,2.80585.60649,2.55622,0,0,9.9694-3.37079,5.6594-1.69411-1.42687.45755-3.53715,5.65923-4.47654,6.86023,1.66453-1.3494,9.90409-5.95675,10.99189-7.128-2.18158,3.46005-9.14884,20.02227-13.09038,19.50486-.101,0,1.28409,4.86279,1.15928,5.26119-3.9771,8.608-6.32522.119-4.42285,11.5866,2.06275-.22025,4.82125,1.09977,8.78637.52285-7.09208,9.97558-5.23144,10.14793,1.05223,19.404-.47568.72532-3.63239,3.69154-2.687,5.05872-6.94948,6.69986-7.52023,7.82357-12.8587.57075-5.4573,4.10192-6.349,4.74414-12.276,3.17449.09524-.939,1.96188-3.91759-.24964-3.66795-3.89981.34506-6.05181,5.65959-8.78037,9.12544-.68958-.29716-3.94136-1.91435-4.61914-1.55767,2.62769-4.14328,3.8403-6.58085,6.70565-10.9382-1.39693-1.42088-3.002-.10123-1.81311-2.97856,1.15927-2.82943,12.20468-15.34345,15.57529-19.998,13.67309-19.10683-10.80757,9.20237-16.14586,12.698-9.07772,5.903-15.20682,10.47448-22.92308,19.99833,2.44328-1.04063,2.2947-1.53409,5.48107-1.89077,0,0-3.95333,4.47057-2.60973,5.1186-4.22083,5.99848-9.88024,12.288-12.87639,20.94933,6.39651-7.3,14.46364-2.14,8.95281,8.82828-1.53372,3.1745-7.972,4.08994-10.34984,6.206-6.50364,5.7249-10.82543,14.6301-15.55161,22.4475,0,0-2.039-4.14327-1.49808-4.01265,2.259-5.18391,5.83185-10.49843,8.77457-15.14134,1.35539,1.718,2.44328-5.28478,2.84748-6.325-4.33966,6.49158-9.803,15.0343-14.19014,21.78749-10.34984,15.82494-16.55024-12.31155-30.54427,12.79921,14.61222-30.4017,27.233-55.27479,36.34636-69.32217,20.64625-31.75691,38.62917-48.62828,76.37854-83.23313" transform="translate(-106.91338 -240.18935)"/>
      <path class="cls-6" d="M1367.431,370.31727c.6181,0,2.72856,1.5994,3.29332,1.79534,10.13,2.63386,3.10319,4.423,2.78208,9.25026-.3447,4.25068.93939,3.31128-.71335,7.37764-9.51748.58853-12.1332,2.77609-19.68318,4.57724-4.197-6.62257-2.33035-5.148,2.60991-10.16535-10.64719-3.246.422-6.27206,5.4573-6.42047.59433-4.12586.43976-6.55725,6.25392-6.41466" transform="translate(-106.91338 -240.18935)"/>
      <path class="cls-6" d="M1384.27551,347.80155c9.07754.48186,19.75449.10124,6.91955,5.51083,0,.107.34488,1.92632.27957,2.02719,13.81551,2.03336,9.47594,1.3436,4.09592,7.76407-2.63368,3.17449-1.42088,3.17449,2.87715,4.50031-5.68317,1.58126,7.02676,9.37472,8.23956,10.21288-1.2128,2.78226-.35069,3.87006-1.57546,6.75936,4.52408,2.41942,17.82853,5.927,9.08371,10.76-3.54313,1.93793,2.18176,1.492,3.35882,1.78953-.14859.46952-.58254,2.0388-.58254,2.0388-7.28838,5.90342-17.05568,2.26522-26.91206,3.127-1.20082.07148-7.425,3.668-6.575,3.14474-2.15781.27359-14.40422,3.65018-11.53288,1.47459,2.34231-1.9383,6.31941-7.10406,9.17877-8.04345,2.82381-.951,6.31941.39839,9.25007-.58273,0,0,1.64077-1.15891,2.18775-1.504,0,0,.36846-1.599.51723-2.0388-4.964-.34507-13.52451-.64223-17.29334-.83853,4.96384-3.20425,10.96812-5.09465,2.95443-8.29272,9.44637-1.71805,8.82809-2.75251,14.0178-6.8664-.7431-.27939-3.7095-.70718-4.10192-1.12336-.86791-.98692.23186-2.53262.38044-3.32325a61.94241,61.94241,0,0,1-7.19911-1.54571c.79081-1.65274,3.32325-6.349.541-8.13851-.46371.29753-2.55621.16073-3.0972.2616-.3447,3.85845.541,6.54529-2.80585,2.8298a39.50867,39.50867,0,0,1-2.8-3.85809c1.19483-1.11174,5.97453-4.435,6.349-5.7307.35667-1.62879-1.26613-3.79278-.648-5.30873,0,0,4.50031-4.08994,4.89272-5.00575" transform="translate(-106.91338 -240.18935)"/>
      <path class="cls-6" d="M1498.51509,257.31706c.54082,4.869-20.76517-1.58126-19.87948,1.89076.70754-1.72422,2.33633,12.30538-4.77951,3.95315.12481.69557.19611,1.45644.29118,2.00324-12.95359-3.8403-31.37046-17.519-40.49572-11.66351-4.55963,2.78226-3.82252,14.44-7.88289,18.8093-1.12353,1.1415,2.59794-16.32457-17.57853-14.33874-16.33634-8.73285-.26759-13.055,1.27811-13.42329,7.39523-2.53263,86.19329-13.1323,89.04684,12.76909" transform="translate(-106.91338 -240.18935)"/>
      <path class="cls-6" d="M1329.571,296.87033c.05932,2.56238-.14877,3.8345-.07729,5.36242,6.69368-.7431,11.06917.64186,16.5858-.3447,3.68573-.58853.02975-2.3483,7.76987-1.1415-.86193,3.94735-.78465,4.726,1.84286,7.948-3.07344,1.42669-16.90092,7.18751-22.87545,6.78911-2.50868-.19629-8.19185-3.6382-10.86707-4.71439.49346-1.50978.86192-1.21261,1.10575-3.37042-6.12311-2.43757-4.06036-2.38387,1.99145-2.85375-13.2034-1.16508,1.5457-6.17663,4.52408-7.6748" transform="translate(-106.91338 -240.18935)"/>
      <path class="cls-6" d="M1609.40893,272.74c12.52561,6.2717,47.11827,24.64087,73.846,48.75309,41.27455,37.31527,87.852,86.00922,107.98095,167.5359,3.26375,13.35182,7.78765,33.24891,10.32608,50.02522-1.15329-.3984-4.21476.7431-5.16594.09506-5.67737,5.31453-8.2216,3.18066-14.93324,5.0649-.71353-4.96367-1.86083-6.14689-5.71311-8.11457-1.77737,2.39-3.97691,4.75575-5.75447,6.96726-2.24707-5.22527-7.70437-8.43568-12.75148-10.8551-1.629-.7431-4.22673-.44593-5.35625-1.5457-2.39583-2.2351-3.876-6.74739-5.8557-8.78039-1.53372,3.763-3.1685,4.619-6.63435,4.39908,2.33034,10.1893,7.12781,16.56223,12.68617,23.29184,0,0,4.64889-2.03336,2.16978-2.0867,0,0,3.234.27358,3.82851.3984,1.4862,4.22056,5.909,11.7945,10.89683,5.75429,3.60246-4.45859,3.83431-7.49629,8.6258-11.16424.3984,8.92914,1.2841,13.7444,8.86365,11.80647,1.70626,1.64077,2.79405,5.57033,4.82124,6.80689.59452.39223-2.34812,6.69369-2.687,7.38925,4.7142,1.98547-2.27683,6.47961-2.72276,6.77714-.16636,7.86494-2.152,4.51193-4.13166,8.81014-2.06874,4.173.23185,6.20022-2.61572,9.97522-1.97947,2.59794-6.94349,4.06635-8.66735,6.59862-1.48619,2.08669-1.48619,6.74158-1.83107,9.28-1.11156.19594-2.09849-.44593-3.75105.29717l-.71933.6894c-2.17,1.742-2.97239,5.01772-4.94606,6.90195-2.88331,2.8298-7.22887,4.51229-10.07644,7.34208-.88587.77866-.93341,2.9245-2.11645,3.50722-1.5633.68976-3.62024-.14876-5.1897.36865-1.93793.541-4.9936,2.75251-7.318,3.81636-3.04967,1.56965-4.12568,3.127-5.6536,5.75465-.969-.29136-2.74652.2021-3.73326.29717-.73711-1.62879-3.10918-4.67847-3.32907-6.349-.23784-1.52756,1.37317-1.98546.535-3.88784-.07129-.19629-2.88911-1.61682-3.06164-1.76558.5887-6.15269-.29717-12.72192-3.97692-16.7763-1.30786-1.49781-4.2982-1.53373-5.40378-3.49525-2.90109-5.14254.19612-10.7009-3.09739-14.23787-.14259-.08309-2.83559-.30333-3.0377-.45174-2.22929-1.17125-8.56648-8.0137-9.696-10.35-1.44447-3.17449.38642-7.79345-.65384-10.46287-.7431-2.03881-6.31923-2.78807-7.11-4.81526-1.78336-4.62477,1.01069-8.14433-2.9664-11.5387-1.611-1.37335-7.90647-3.35882-9.4402-4.57143-3.80475-3.25178-2.02719-7.71653-3.75721-10.94437,0,0-5.16-4.423-7.24067-6.42046l-1.10575-2.33633c.29716.07728.57075.07728.90946.14876,1.90237-6.81887.46969-11.63412-1.99744-18.334-.43976-1.21842-3.57869-6.94912-3.57869-6.94912,2.74652-2.4851,5.77242-7.68679,6.89-11.06919.547-1.58162-.62426-3.05584.547-3.96548.963-.99854,3.92358-1.20064,5.23144-1.77139.02376-4.99958.56476-6.468,3.13875-10.04089-15.83091-4.10192-7.11585,3.668-15.96171,3.10337-5.60589-.422-5.90324-9.054-10.02891-11.194-5.20749-2.72856-8.17407-.58852-10.552,2.72857-4.197-4.14945-5.13619-1.98547-11.78251-2.52646,0,0-2.91289-.92742-3.115-1.07-5.40977-3.24017-4.54185-12.95378-10.49262-15.70629,2.46713-.8915,4.197-1.81892,5.97453-2.48473,0,0,1.51595-2.87733-1.03446-3.222-.32093,0-.79063-.86827-1.11156-.91581l-.969-2.53226c1.78336-.66581,2.81782-2.36028,4.69624-2.681,3.8345-.58272,6.1291,1.36138,8.69728,2.06275.19612-.35667,1.80133.07728,2.27683-.14877.10105-.09506,1.20681-3.234,1.28409-3.3824a97.53365,97.53365,0,0,1,11.01565,1.84287c.14859-.17852.36865-2.50868.59452-2.65745,1.504-1.26014,7.46072-2.38386,10.647-2.06275,3.0972.24964,10.74225,3.92957,12.84673,5.70713.95717.90928,1.40292,3.82833,2.56818,4.47019,2.16979,1.1357,5.01736.34507,7.82919.79063,1.31384.20211,4.91631,2.18793,5.5881,2.23547,6.34318.34469,8.94094-3.64438,16.72259-4.423-4.47037-4.70242-7.6093-11.78253-12.704-16.19358-2.045-1.81312-4.58938-2.00942-6.46781-4.197-3.72746-4.16723-5.77841-3.47166-11.313-5.83194-1.85466-.81422-3.29332-3.54314-4.96983-4.33377-6.39651-2.9782-17.56093-4.1255-24.55794-5.62367.27358-4.20895.07728-3.71549,3.3648-6.8185a14.37417,14.37417,0,0,1-.14859-2.6335c-1.04026-.29136-2.94263.17815-3.90579.27939.1963-.648-1.40891-1.11792-.99273-2.60992.553-2.09867,7.69258-3.34684,1.1473-5.93281-3.41215,2.18757-6.15867,5.6117-9.59477,7.89469-1.97367,1.24817-7.95419,2.33633-4.33975,4.22673,1.23057.61828,2.36608,1.04027,4.02462,1.68213,0,0,2.29479,3.0261-.44593,3.32326-4.22673.51705-9.23211-3.81636-13.56588-3.07943-3.50141.60631-9.60674,6.783-12.49586,8.79816,1.99744.9394-5.68335,22.76282,7.69839,27.92894a28.72279,28.72279,0,0,1,2.43139,1.78917c.88588.07148.58853,1.03446,1.183.7431l.642,1.78953c-7.32992-.37481-11.46159,7.68061-15.41473,10.32608,1.87842-7.15159-.69557-6.46219-7.63906-8.12073-2.86536,4.93427.2734,3.40054-8.09679,4.55982a14.20546,14.20546,0,0,1,.16636,2.0388c1.70626-.56458,4.54785,4.74414-7.55579,2.41361.58853,1.10594-.29716,2.16979.29717,3.29351.58871,1.21261,4.22691,1.86682,4.863,3.04968.8739,1.55767-.57075,5.70712,2.17577,7.09208,1.11156.55878,3.31128-.61828,4.625-.3447,1.28409.29717,3.54912,3.632,4.98778,4.27427,1.18885.61211.47551.49346.86792,1.98546-5.63564-1.8367-18.71422-1.02248-23.9159-.99854a14.30723,14.30723,0,0,1,1.15927-4.02463c-1.611-.43395-9.38686-1.11174-11.02164-3.21041-.65982-.90347-.31513-3.60845-.43994-4.62477-2.59195-.61247-5.21946-2.13423-7.16338-2.824.79063-4.61316,2.693-7.49629-.88587-9.88015-2.82363-1.87843-5.79021-1.53373-9.52946-2.62153-6.66992-2.14039-19.11843-9.292-22.382-15.09381-6.4025,1.98547-5.4573,3.07326-10.67694,1.44447,0,0-.78464-2.03916-1.00452-2.58016,1.39693.541.49328-1.06385.67161-1.44447-2.82961,0-3.87586-.89186-7.74011.541,1.99744,4.02463,1.64077,5.30872.24383,9.98138,2.97838,1.61682,7.24066,3.07326,9.77329,5.30873,3.06146,2.586,4.10173,6.17663,7.74592,8.09679,3.37078,1.77719,5.42754.21988,10.19527,1.25434,3.775.87952,8.36438,5.83157,12.18091,7.15159,4.732,1.62262,9.52946,1.68213,13.50656,3.69735l-.547,2.67522c-4.49415-.93323-8.86365-.64187-13.12013-.43976.41618,1.058-.27939,1.62879-.529,2.72856,2.31256.68976,5.47508,1.97966,7.92443,2.72856-2.91887,6.30146-4.11388,11.313-10.136,15.37937-.56476-1.08816-1.504-1.23656-2.43139-1.84287.58853-2.07472,2.30658-4.45859,1.57545-7.43715-.98692-3.91142-7.10405-9.82645-11.02164-11.16424-1.12952-.39223-2.92485.17235-3.90579-.39223-.29717-.20211-.17235-2.33633-.22587-2.6335-3.42413-.92742-7.62128-3.40054-10.38558-3.86426-4.23852-.90347-7.18116.61829-10.84331-.66-.36846-.09507-.76686-2.47893-1.02829-2.5798-3.14492-.93323-6.1291.69557-8.59623-.68976-5.29076-3.103-4.35155-14.19614-12.24623-14.4875-3.98308-.14841-15.498,2.23546-16.55024,4.50648-.642,1.1473.59451,4.00068-.24383,5.3265-.422.59433-3.77481.59433-4.52988.963-2.0925,1.21878-2.93066,4.69044-4.67248,6.37257l-.66581,1.37335c-8.46543,3.19227-17.92958-.73112-26.78125,1.90238-5.58212,1.64076-3.89382,7.30035-1.74182,11.47338-1.97367,1.03446-4.11388,2.87733-5.74267,3.79278-4.6489,2.45534-18.22076,6.07577-19.53461,10.04089-.43994,1.24817.89168,2.72856.47569,3.96512-1.52194,4.423-3.02591,4.078-1.01668,10.83152-1.39694.46952-3.3053-.30914-4.57143.30878-2.60392,1.17742-7.49646,11.6461-13.05481,12.36525-2.87733.37445-6.84245-2.681-9.47594-2.681-6.50954-.024-10.86708,3.34684-16.91889,4.64872-2.46115-2.46115-6.91973-4.79748-8.614-7.42481-.61828-.96335-.3447-3.44808-1.29589-3.98908l-4.66068-.951c-4.61316-.07729-9.13723,1.6883-13.64335.951,1.30786-5.06489,2.3601-6.90776,4.66667-11.04523-5.03513-1.22495-3.57869.36828-5.86749-3.59684a71.34609,71.34609,0,0,0,11.80048-15.65839c2.92467-5.33848-.8026-8.76261-2.03916-15.96173,1.40292-.10123,5.20766.19594,6.84244-.44593,1.076-.46952,1.076-3.25178,3.35881-3.644,2.30059-.32111,2.91289.7431,4.06037,1.16508,2.14.49347,5.39181,2.5798,7.25844,2.7761,3.02591.19629,4.80346-1.25434,6.84245-1.18286,6.31941.21988,14.55879,7.86493,25.087,3.61425,2.47911-1.082,2.67523-5.77824,3.59666-8.33445,1.56348-4.35772,2.11046-4.61932,7.32393-3.81672-4.07814-6.49739-6.43824-9.83262-13.2092-13.15552,1.593-3.27572,2.0925-5.51082-1.65274-7.30035-2.91887-1.33163-7.87092-.89187-10.37361-2.62153-2.06873-1.39113-1.92015-4.91649-2.28879-5.84972,3.74523.49347,8.85784-.8084,14.01779.3447,7.22887,1.67633,7.69857.39223,2.5622-4.79748,1.30786-.86211,2.699-1.25434,4.31-2.33016,2.35411,3.04968,7.419,6.83048,13.82168,5.08848,4.02463-1.20064,1.83688-3.668.89168-6.09935,3.38258-2.53844,5.06489-6.18245,8.29889-8.61384,1.52774-1.21262,3.5669-1.11175,5.10063-2.30658,2.60374-1.99163,5.21347-8.23939,8.36419-9.23212,3.22221-1.09977,8.11475-.77285,10.772-1.44483,0,0,.19611-3.31709.31513-4.06019a11.10123,11.10123,0,0,1-3.09721.29136,64.88659,64.88659,0,0,0-.14876-8.091c3.94153-.636,11.18818.07729,13.994-.88569,2.31256-.8026-1.617-3.53117.27358-4.67266,2.06274-1.21878,8.36419-1.65274,10.72429-2.00941-.12482-6.02788-2.259-7.65667-5.16594-11.711-5.4573-7.70456,11.06917-3.69191-.71334-5.927.14858-.69557.54081-2.73474.54081-2.73474,6.5988-2.08633,10.225-3.91142,8.93513,2.77646a35.57574,35.57574,0,0,1,4.839,1.02829c0,.238,0,1.85484.22587,2.02719-1.22459,1.76559-4.40507,3.80475-4.845,6.27787-1.11156,5.68318,5.89724,3.16833,7.79363,6.80653.31513.7373-.19612,2.00942.2734,2.6277,7.98394-1.12372,11.78252-2.4314,18.76175-.49347,4.13167-5.23724,13.28667-7.841,18.304-12.56118.84415.29717,2.18757-.39259,3.09721-.1963.74908.17235,1.92015,2.4314,2.60973,2.50288,5.24322.46951,3.67974-2.89511,3.67974-2.89511l-.15457-1.30187c2.55041-.14877,5.939.7431,5.404-1.04063-.24383-.7431.38642-.844-.86211-.58853l.56476-2.0388c1.623.19594,2.0154.79063,4.01283.43976-4.77371-2.87115-5.7844-5.99812-6.74139-12.89427a39.60925,39.60925,0,0,0,3.81055-1.5457c-3.00214-6.05182,1.01069-8.82791,8.42969-9.86818.9452-.10123,5.51681-.29716,5.51681-.29716a27.56423,27.56423,0,0,0,2.0212-3.48364c4.82705.80841,7.44875.19594,2.18176-2.12225-16.55024-7.3537-14.58855,13.51219-31.25762,3.27536-2.50886-1.492-.17851-3.3229-2.164-5.90306-2.6275-3.22819-9.00043-2.586-7.21109-8.83408.88588-3.2398,4.80347-7.37728,6.84245-10.34967-5.14218-3.64437-3.59648-4.79748-8.929-2.1404-.62427.32112-2.48491.14877-3.14474.20247-.88587,4.197.36248,8.01334-2.8893,10.7956a10.88432,10.88432,0,0,1-5.2552,2.97239c-1.11156,12.83477,3.85827,11.66352,13.69088,17.16854a27.35538,27.35538,0,0,0-1.9617,4.11388c-3.72147-1.189-5.57631-1.32582-10.33805-.68976.03574,0,.20809,1.83707.23186,2.01522,2.33633.07729,9.46995,1.35557,9.61273,1.35557-4.47056,1.59324-7.972,2.693-11.33677,4.7202,3.95932,5.40959,8.5605,11.66352-.81439,15.34345,1.23057,1.60484,1.504,3.24561,1.99743,3.88783-5.57613.32112-11.78251.62409-12.87049-3.19227-.46353-1.5994,1.36138-1.1415.44593-2.6335-.98094-1.81928-4.54185-2.33633-5.83175-3.65017-2.53245-2.8-3.29949-6.48-5.70712-8.95274a14.09485,14.09485,0,0,1-1.81311-2.59213c-3.42413-9.571-1.40891-1.87843-8.39994,2.59213-1.37317.81422-2.84158,3.1745-4.32179,3.56673-8.2158,2.22929-12.61488-3.41832-11.21794-8.58445-3.97691-2.72856-4.94606-2.08053-.49328-4.6665.39223-.29716-.60649-1.76558-.1963-1.96188-1.64657-1.68213-5.06489-2.57979-7.5498-3.54894,3.34684-2.13423,3.69172-4.30982,3.09721-7.55,2.18774-.39223,6.034-.26741,8.56648-1.20681a22.87526,22.87526,0,0,0-.32692-2.6335s2.48491.29717,3.222.3984c.32692-.767-.22006-2.40781-.34488-3.29931,3.07943-.89186,5.24341-1.62879,9.17877-2.53263-2.30657-3.54314-2.06274-2.97239.89169-6.74121,2.806.44593,5.0413.98692,6.361.29136.8144-.44013.19612-4.66686-.52322-4.61933,1.29008-4.80328,4.07234-5.37984,5.00557-12.32352-2.62751-.52322-5.0589-1.81892-6.61658-2.2351,3.9653-.7431,5.75465-.32111,8.78056.1484a15.43262,15.43262,0,0,0,.22587,1.9383c.77865.32075,2.37787-.57075,3.14474-.22025a50.65616,50.65616,0,0,1,4.08413-6.206c4.57142.79063,7.79943.69521,10.06447-2.63386,1.01649-1.492.41617-1.64076,1.1473-4.07216a45.36968,45.36968,0,0,1,12.06789,1.31385c1.48021-1.46225-.01179-1.71188,1.38514-2.74634,4.28624,1.67632,4.75,1.73,4.4526,4.99958,4.68463-1.23656,7.28239-3.71549,10.97411-1.97385.37445.2021,2.50269,2.47892,2.65145,2.53262,2.02121.3447,5.38583-.87408,8.68531-.55877,8.78038.86175,13.32822,2.46115,18.89238,6.218,1.8191,1.26051,5.08285,6.02824,1.97367,3.84067-.22587.17235.1963,2.336.22006,2.6335-10.38558,1.8367-18.33378-.51741-26.49587-3.0319,1.33162,1.99127.61828,3.49561,2.8238,4.48217,3.55493,1.64694,7.532.85631,10.59948,2.66325,3.25177,1.96188,5.19569,4.71439,9.29161,6.1233a47.77025,47.77025,0,0,0,14.48151,2.4314c-.86791-.98076-2.17577-2.4314-2.693-3.17449,0,0-1.33761-1.82509-1.7596-2.50288.57075-.24963,2.87134-.57075,3.06746-.91545.12481-.24383-.46952-1.73-.19612-1.96188-7.33591-2.55-4.9876-4.46439-4.94606-10.29016-6.19441-2.53263-1.55749.19593-5.1126-3.68574-1.90818-2.12261-11.68147-5.60625-3.71549-5.083,5.04711.27939,3.86425,2.41978,6.85442,4.24451.7431.46988,1.15928.14876,2.38985.51741,4.33377.98076,6.66991,2.33633,12.264,3.26375a25.64318,25.64318,0,0,1-1.73583-1.93829c-1.15928-.79644-2.43738-1.795-3.42431-2.38387,1.99163-4.066,4.56562-5.36206,4.80945-8.29272,2.94264,4.22673,7.29418,6.52714,10.45688,9.98138,0-.2616-.1963-2.63386-.1963-2.63386-.74908-2.08633-3.06745-6.12293-3.95913-8.32864.89168-.10087,8.71507-.56458,8.71507-.56458-2.8893-.43977-3.97111-2.41942-5.84972-3.01412,0,0-2.44917.648-3.09122.89186-1.23057-4.27426-2.96059-3.58486.963-6.70566,6.6701,2.0867,11.76474,5.75429,18.96984,6.88382,4.06019.56494,1.18885-.32075-.90964-1.31349.84415-.42815.30914-.62445.74909-.70754a23.13509,23.13509,0,0,1,4.738-.26741Zm52.08229,258.348c-.49346-.44557.6181,1.02285.54082.87408,1.97965,4.66069,8.50117,30.01528-.56477,24.40939-3.56672-2.18793-7.68659-6.39689-10.52219-9.1015.29136,11.087,6.76516,6.878,9.95163,13.12613.76686,1.43249-.1963,3.72129.39822,5.2728.24382.58853,11.80628,11.05721,12.89426,11.49116,1.53372.60667,4.02462,0,5.30871.90384,2.22331,1.50978,5.09465,8.9589,7.538,11.313,2.051,1.93793,6.91973,3.15055,8.61982,5.2133,1.55749,1.99744.98693,4.6313,1.87262,7.0685a185.54619,185.54619,0,0,0,7.91845,19.08288c.61229,1.30768,3.27554,2.62733,3.89981,3.668,2.02719,3.37042,1.35539,8.53655,4.42284,10.71831,1.97367,1.599,6.55127.844,8.39413,2.72856,4.39908,4.67847-.36266,3.52536,7.73413,6.59863-.34488,6.31342.68958,11.46758,3.05566,15.49221,5.95657-3.26956,6.55108-6.7532,10.011-8.68532,1.48619-.951,3.06745-.1426,4.35753-1.04643,2.21732-1.60485,2.01522-5.84355,4.11969-7.53766,4.79748-4.02463,9.98138-3.26992,12.22246-10.13015,0,9.23829-2.47294,16.18161-3.35282,23.85642-.14859.66581.87988,3.54314.29716,5.86169-.79063,2.8951-4.44661,6.39071-5.53458,8.94693-1.63478,3.668-.35069,6.69368-1.72985,10.62325-.91544,2.38386-4.37531,7.63308-6.22416,10.31411-1.51,2.2888-5.36224,4.27426-6.991,6.444-2.54442,3.17485-3.28752,6.83664-5.43952,10.28472-2.146,3.54314-6.31923,7.10406-8.27512,10.546-1.48021,2.75251-.93341,5.53441-2.51467,8.11457-1.26631,1.97386-4.32778,3.76919-5.55835,5.69515-2.65146,4.05439-4.35155,9.48793-5.95675,12.31772-.67162,1.18286-2.84159,1.99127-3.51339,2.92486-2.49071,3.29931-3.60844,7.15159-6.02206,10.34967-.66581.91545-3.90561,2.681-4.14944,3.64437-.68958,2.336,1.45064,2.88313.98693,5.16576-.12482.84433-2.25306,2.23547-2.74653,2.931,2.27683,1.07-.43994,4.76156-.41617,5.33231a15.73766,15.73766,0,0,1,.07148,1.86681c1.41471,0,1.58724-.36284,2.87115-.95717-2.11028,9.90991-2.55022,18.86881-8.6971,26.50189-4.63093,5.6175-12.6029,8.88125-17.94137,14.09491-1.42669,1.39113-1.40292,3.25758-2.66924,4.86279-2.63349,3.27573-6.94349,5.29094-10.20706,8.14432-1.56947,1.3436,2.22929,15.98568,1.95571,16.33038-3.5787,4.26845-5.48107,13.35217-10.0525,16.97223-20.21238,15.97987-44.22916,26.05015-72.63339,36.62007-5.23724,1.97966-17.23982-5.55836-24.15356-5.80219-2.62769-.10087-8.20383-4.27426-10.43312-5.61169.24964-3.41833.17235-3.57906,1.55151-6.83084-6.52732-1.11138-6.08738-1.94991-8.44148-7.78149a42.09966,42.09966,0,0,0-4.96384.52322c1.36718-.78482-2.59794-6.00429-2.693-6.46219a6.8883,6.8883,0,0,1-.12482-1.926c.73711-.24964,3.15072-15.03431,4.23852-16.9726,1.30786-2.50868,5.33248-3.9771,8.10876-5.46329-3.06764-5.73071-1.617-11.04524-4.39328-18.11955-.24963-.66581-4.40506-3.4956-4.66068-4.209-1.3436-3.84611,1.38514-5.43934.71933-8.07284-1.21878-4.67883-24.46869-18.0067-30.033-20.50957.17235-1.2899-.73711-2.681-.36266-3.91759.69557-2.38387,10.30231-6.51554,11.47937-9.68422.85013-2.68684.22587-5.26119.76686-7.34172-1.23057-.92126-4.03642-1.64077-4.62494-2.97239-1.79534-3.882.963-4.47057-2.14022-7.08012-4.58939-3.95351-12.74549-3.27572-21.2287-.79063-1.94991.517-4.60136,3.103-6.93769,3.29932-11.36036.88569-6.64615-4.0308-9.7791-9.85657-.03556-.05334-11.00967-8.513-12.82278-10.89684l-.81458-1.23656c-2.14-.51705-6.50953.44593-8.65555.79063-9.5057,1.49237-13.00711,6.27787-15.52177,12.7339-.46371,1.21878.65982,2.58016-.34488,3.353-2.28281,1.66435-6.0041.83816-8.53074,2.08633-1.72985.78483-3.127,3.07943-4.7202,3.76919-7.68659,3.36463-16.92469-.44593-26.10346,1.01051-1.99744.29137-7.966.75508-10.77781,1.61682-4.74995,1.58163-8.53074,8.98285-15.68832,8.8105-8.12055-.25-36.53059-22.80418-44.27669-27.61944-4.35753-2.72892-9.79107-3.97129-14.09508-6.81886-4.48235-2.9782-2.75251-7.25246-9.49372-11.29523l-.92742-1.34324c-.91563-2.09867-.14858-3.86425-.06549-6.00429a18.35014,18.35014,0,0,1-7.66863-2.66325,84.67674,84.67674,0,0,1,3.103-9.73756c-4.304-4.08994-7.57357-5.68317-10.47466-11.90734,1.01069-1.10594,4.98778-4.54785,5.13637-5.808.32093-3.9771-4.0366-5.73107-4.845-8.38815-1.082-3.37079,1.24835-12.02055,1.4207-16.94285a14.291,14.291,0,0,0-1.593-.59433c-.02377-.19013-.02377-.36865-.07148-.6836-4.84483-5.55835-2.681-.14876-2.55621-7.84135a9.56094,9.56094,0,0,0-1.21261-3.29931c-.70155-3.74524-2.97239-8.0137-2.92486-10.58152.10105-4.07833,9.22631-11.81228,12.2045-14.44,2.05694-1.81929,6.36694-3.58487,7.41918-6.01627.523-1.23656,3.51919-12.25821,3.62042-12.40661.12482-1.53373-1.2723-3.91179-.767-5.30872,1.04044-2.78227,8.63778-4.952,11.1704-6.94369,6.49757-5.11242,12.44833-12.56118,18.64873-18.2683,2.7048-2.53227,5.14218-5.60589,8.01351-8.09062-3.48961-3.37079-6.91374-6.20059-3.69172-11.06919,1.96769-2.92486,11.98462-7.16356,11.49134-10.96831a4.848,4.848,0,0,0-.09524-.6894c2.8238-1.83125,6.83664-1.53372,9.51766-3.37659,4.1792-2.97239,1.20082-6.74158,3.222-10.26694,2.38984-4.36933,8.77457-6.60443,11.61615-11.01548.422.29716,2.48491-.17235,2.99017-.1963,1.53373,2.66942,1.06421,4.7797,5.17791,4.92846,3.72746.14841,24.54-2.58016,28.48153-4.0903,2.134-.83816,4.1732-4.02463,6.21219-5.16,6.1291-3.29931,13.73242-7.44875,21.18117-8.88161,2.60991-.59434,8.66154-1.47422,11.36652-.8915.29717.08926,1.39694,1.90237,1.74182,1.90237,5.51082.57075,5.808-2.50287,8.05523-3.27572,3.16252-1.01052,9.53527-1.11755,12.01438-1.51595.32692.2616,1.51,1.81311,1.79533,1.86681,4.26229-.0537,3.96512-2.41361,6.52133-3.127,6.27769-2.03916,9.32137,0,13.16766,1.65855,2.49689-2.37189,1.49817-2.0272,5.75465-3.74525-.44593,5.05909,0,4.25068-3.15072,6.878.26142.14877.26142,2.33633.29716,2.6335,7.425,1.10594,8.06105.96334,9.24409,8.72124-6.57485,2.2351-7.35369,1.93793-9.149,8.00173,1.23057.82038,10.90281,7.63888,11.4556,7.734,6.13508,1.39693,13.41148-1.62879,19.52262-2.10448,2.33035,2.95461,7.30017,7.93642,11.47356,8.40593,3.37061.45174,6.985-2.07472,11.27708-1.43249.41618,0,1.23058,1.73583,1.623,1.8367,3.73326.84433,9.6365,2.681,14.60033.84433,6.11133-2.31275,2.6277-8.38815.44-11.29523,2.60392-4.28624,3.74524-8.33446,13.12013-7.54383,1.19483.02359,11.81825.92126,13.85143,1.52176,1.42669.56494,2.55621,3.41832,4.09592,3.763,4.79149.95137,10.86109-1.385,15.9082-1.18286,8.25135.27358,17.644,2.16979,26.09167,3.34684.7431-1.11174,2.21732-5.04131,3.45987-5.51082,6.06959-2.50868,13.18544,1.46841,16.889,2.705.767-.541,2.158-2.62769,2.87134-2.85374a7.665,7.665,0,0,1,4.04839-.46951Z" transform="translate(-106.91338 -240.18935)"/>
      <path class="cls-7" d="M106.91338,2063.27135H279.847c193.77,0,364.90231,52.15364,364.90231,252.802,0,200.65419-171.13233,252.79586-364.90231,252.79586H106.91338Zm126.76053,425.93774h70.62988c105.93594,0,208.25149-63.03841,208.25149-173.13572,0-110.10928-102.31555-173.124-208.25149-173.124H233.67391Z" transform="translate(-106.91338 -240.18935)"/>
      <path class="cls-7" d="M1320.85663,2561.64325c-53.33664,8.69729-110.84639,15.93207-166.23979,15.93207-236.26926,0-400.42235-81.8478-400.42235-252.80774,0-173.124,152.65-270.19643,400.42235-270.19643,48.10511,0,111.86869,6.52152,165.18156,21.003l-10.45688,85.48c-55.40537-21.73416-105.609-26.811-157.85164-26.811-150.56934,0-244.64543,79.70177-244.64543,183.26577,0,102.86843,92.00137,180.38845,247.77239,180.38845,57.52155,0,125.45253-8.6972,159.96791-21.02073Z" transform="translate(-106.91338 -240.18935)"/>
      <rect class="cls-7" x="1421.93136" y="1823.07656" width="126.73671" height="505.60967"/>
    </g>
    <g>
      <path class="cls-7" d="M2007.08965,2417.07608v18.54841c0,103.40671-37.56124,146.071-94.59395,146.071-57.503,0-93.67088-42.66426-93.67088-146.071V2400.3854c0-103.4067,36.16793-146.071,93.67088-146.071,51.93553,0,84.39378,32.92272,92.742,103.40671h-37.56124c-8.34824-47.76145-24.11583-67.23294-55.18078-67.23294-37.56124,0-53.79327,28.7486-53.79327,109.8972v35.23909c0,81.14861,16.232,109.903,53.79327,109.903,33.38713,0,53.323-25.03891,54.71634-92.27765h-54.2519v-36.17377Z" transform="translate(-106.91338 -240.18935)"/>
      <path class="cls-7" d="M2149.90365,2395.74685c-7.8838-13.44543-16.232-19.01286-28.75438-19.01286-20.86478,0-34.316,17.62535-34.316,56.10969v145.1421h-37.0968V2346.12769h37.0968v22.7225c6.96073-14.83874,20.87058-26.42642,42.19979-26.42642,21.79365,0,38.02568,10.66462,49.61916,31.52941Z" transform="translate(-106.91338 -240.18935)"/>
      <path class="cls-7" d="M2346.04067,2476.89545c0,66.30987-28.28994,104.8-78.36773,104.8s-77.90329-38.49014-77.90329-104.8v-30.60054c0-66.31567,27.82551-103.87114,77.90329-103.87114s78.36773,37.55547,78.36773,103.87114Zm-37.09681,0v-30.60054c0-43.59313-9.2771-70.48979-41.27092-70.48979s-40.80648,26.89666-40.80648,70.48979v30.60054c0,39.87765,8.81266,71.41286,40.80648,71.41286S2308.94386,2516.7731,2308.94386,2476.89545Z" transform="translate(-106.91338 -240.18935)"/>
      <path class="cls-7" d="M2533.82946,2577.98578h-37.09681v-22.72254c-7.8838,14.83874-18.5484,26.43222-45.90367,26.43222-39.87761,0-65.85118-25.96778-65.85118-90.88434V2346.12769h37.09681v144.219c0,46.83258,15.30315,57.03276,35.7093,57.03276,24.11,0,38.94874-20.40036,38.94874-56.56832V2346.12769h37.09681Z" transform="translate(-106.91338 -240.18935)"/>
      <path class="cls-7" d="M2619.1463,2369.31462c8.34243-15.7676,22.71672-26.89085,47.297-26.89085,43.58729,0,72.8003,37.55547,72.8003,103.87114v30.60054c0,60.28381-23.64558,104.8-72.8003,104.8-25.03889,0-38.02568-8.81267-47.297-24.11v108.5039h-37.0968V2346.12769h37.0968Zm83.00048,107.58083v-30.60054c0-44.05757-13.90985-70.48979-41.73536-70.48979-25.50333,0-41.26512,25.50915-41.26512,67.23874v33.85159c0,39.87765,10.66461,71.41286,41.26512,71.41286C2689.62443,2548.30831,2702.14678,2516.31447,2702.14678,2476.89545Z" transform="translate(-106.91338 -240.18935)"/>
    </g>
  </g>
</svg>
